<?xml version="1.0" encoding="UTF-8"?>
<!DOCTYPE svg PUBLIC "-//W3C//DTD SVG 1.1//EN" "http://www.w3.org/Graphics/SVG/1.1/DTD/svg11.dtd">
<svg xmlns="http://www.w3.org/2000/svg" version="1.1" width="48px" height="48px" style="shape-rendering:geometricPrecision; text-rendering:geometricPrecision; image-rendering:optimizeQuality; fill-rule:evenodd; clip-rule:evenodd" xmlns:xlink="http://www.w3.org/1999/xlink">
<g><path style="opacity:0.944" fill="#6a493e" d="M 32.5,32.5 C 31.1667,32.1667 29.8333,31.8333 28.5,31.5C 28.3433,30.1266 28.51,28.7932 29,27.5C 31.0549,26.328 31.7216,24.6614 31,22.5C 29.6124,23.5536 28.1124,23.7203 26.5,23C 27.9007,22.5899 29.234,22.0899 30.5,21.5C 31.404,20.791 31.7373,19.791 31.5,18.5C 31.082,15.5611 29.582,13.2278 27,11.5C 23.3485,13.7327 19.8485,16.066 16.5,18.5C 15.1667,19.5 15.1667,20.5 16.5,21.5C 17.766,22.0899 19.0993,22.5899 20.5,23C 18.8876,23.7203 17.3876,23.5536 16,22.5C 15.2784,24.6614 15.9451,26.328 18,27.5C 18.49,28.7932 18.6567,30.1266 18.5,31.5C 16.8828,32.038 15.2161,32.3713 13.5,32.5C 8.16079,26.8142 6.99412,20.1475 10,12.5C 12.1105,6.5456 16.2771,3.5456 22.5,3.5C 26.3524,4.09344 30.0191,5.2601 33.5,7C 37.9024,12.7794 39.4024,19.2794 38,26.5C 35.9604,28.3702 34.1271,30.3702 32.5,32.5 Z"/></g>
<g><path style="opacity:1" fill="#df822f" d="M 31.5,18.5 C 26.5,18.5 21.5,18.5 16.5,18.5C 19.8485,16.066 23.3485,13.7327 27,11.5C 29.582,13.2278 31.082,15.5611 31.5,18.5 Z"/></g>
<g><path style="opacity:1" fill="#333433" d="M 16.5,18.5 C 21.5,18.5 26.5,18.5 31.5,18.5C 31.7373,19.791 31.404,20.791 30.5,21.5C 29.88,19.0233 28.88,19.0233 27.5,21.5C 26.4593,19.0087 25.6259,19.0087 25,21.5C 24,18.8333 23,18.8333 22,21.5C 21.3741,19.0087 20.5407,19.0087 19.5,21.5C 18.12,19.0233 17.12,19.0233 16.5,21.5C 15.1667,20.5 15.1667,19.5 16.5,18.5 Z"/></g>
<g><path style="opacity:1" fill="#d47c2b" d="M 30.5,21.5 C 29.234,22.0899 27.9007,22.5899 26.5,23C 28.1124,23.7203 29.6124,23.5536 31,22.5C 31.7216,24.6614 31.0549,26.328 29,27.5C 28.51,28.7932 28.3433,30.1266 28.5,31.5C 25.1667,32.8333 21.8333,32.8333 18.5,31.5C 18.6567,30.1266 18.49,28.7932 18,27.5C 15.9451,26.328 15.2784,24.6614 16,22.5C 17.3876,23.5536 18.8876,23.7203 20.5,23C 19.0993,22.5899 17.766,22.0899 16.5,21.5C 17.12,19.0233 18.12,19.0233 19.5,21.5C 20.5407,19.0087 21.3741,19.0087 22,21.5C 23,18.8333 24,18.8333 25,21.5C 25.6259,19.0087 26.4593,19.0087 27.5,21.5C 28.88,19.0233 29.88,19.0233 30.5,21.5 Z"/></g>
<g><path style="opacity:0.992" fill="#445862" d="M 18.5,31.5 C 19.5717,33.8823 20.7383,36.2156 22,38.5C 23,31.8333 24,31.8333 25,38.5C 26.2617,36.2156 27.4283,33.8823 28.5,31.5C 29.8333,31.8333 31.1667,32.1667 32.5,32.5C 37.4057,34.9756 39.7391,38.9756 39.5,44.5C 28.8333,44.5 18.1667,44.5 7.5,44.5C 6.87093,39.0911 8.87093,35.0911 13.5,32.5C 15.2161,32.3713 16.8828,32.038 18.5,31.5 Z"/></g>
<g><path style="opacity:0.999" fill="#dedbd7" d="M 18.5,31.5 C 21.8333,32.8333 25.1667,32.8333 28.5,31.5C 27.4283,33.8823 26.2617,36.2156 25,38.5C 24,31.8333 23,31.8333 22,38.5C 20.7383,36.2156 19.5717,33.8823 18.5,31.5 Z"/></g>
</svg>
