<?xml version="1.0" encoding="UTF-8"?>
<!DOCTYPE svg PUBLIC "-//W3C//DTD SVG 1.1//EN" "http://www.w3.org/Graphics/SVG/1.1/DTD/svg11.dtd">
<svg xmlns="http://www.w3.org/2000/svg" version="1.1" width="371px" height="136px" style="shape-rendering:geometricPrecision; text-rendering:geometricPrecision; image-rendering:optimizeQuality; fill-rule:evenodd; clip-rule:evenodd" xmlns:xlink="http://www.w3.org/1999/xlink">
<g><path style="opacity:1" fill="#fbfcfc" d="M 0.5,-0.5 C 123.833,-0.5 247.167,-0.5 370.5,-0.5C 370.5,44.1667 370.5,88.8333 370.5,133.5C 247.167,133.5 123.833,133.5 0.5,133.5C 0.5,88.8333 0.5,44.1667 0.5,-0.5 Z"/></g>
<g><path style="opacity:1" fill="#263d8a" d="M 96.5,35.5 C 123.06,33.8972 135.893,46.2305 135,72.5C 128.947,91.1216 116.114,98.9549 96.5,96C 78.08,89.6715 70.58,76.8382 74,57.5C 77.7353,46.2332 85.2353,38.8998 96.5,35.5 Z"/></g>
<g><path style="opacity:1" fill="#8893ba" d="M 170.5,36.5 C 167.167,36.5 163.833,36.5 160.5,36.5C 160.828,47.0135 160.494,57.3468 159.5,67.5C 159.5,56.8333 159.5,46.1667 159.5,35.5C 163.371,35.185 167.038,35.5184 170.5,36.5 Z"/></g>
<g><path style="opacity:1" fill="#253d89" d="M 56.5,38.5 C 61.0704,37.559 65.737,37.2256 70.5,37.5C 70.5,56.1667 70.5,74.8333 70.5,93.5C 67.8333,93.5 65.1667,93.5 62.5,93.5C 62.8289,79.9895 62.4956,66.6562 61.5,53.5C 61.5654,53.0618 61.3988,52.7284 61,52.5C 59.9614,53.2438 59.4614,54.2438 59.5,55.5C 54.5157,68.1411 49.5157,80.8077 44.5,93.5C 39.9497,94.8001 35.4497,94.8001 31,93.5C 25.4706,79.9122 20.1373,66.2455 15,52.5C 14.5001,66.496 14.3334,80.496 14.5,94.5C 10.698,93.2214 7.53133,90.8881 5,87.5C 4.50006,70.5033 4.3334,53.5033 4.5,36.5C 9.5,36.5 14.5,36.5 19.5,36.5C 24.9803,52.4416 31.147,68.1083 38,83.5C 44.095,68.3596 50.2616,53.3596 56.5,38.5 Z"/></g>
<g><path style="opacity:1" fill="#082d83" d="M 71.5,94.5 C 68.1667,94.5 64.8333,94.5 61.5,94.5C 61.5,80.8333 61.5,67.1667 61.5,53.5C 62.4956,66.6562 62.8289,79.9895 62.5,93.5C 65.1667,93.5 67.8333,93.5 70.5,93.5C 70.5,74.8333 70.5,56.1667 70.5,37.5C 65.737,37.2256 61.0704,37.559 56.5,38.5C 61.0557,36.5583 66.0557,35.8917 71.5,36.5C 71.5,55.8333 71.5,75.1667 71.5,94.5 Z"/></g>
<g><path style="opacity:1" fill="#273e8a" d="M 170.5,36.5 C 170.667,47.8382 170.5,59.1716 170,70.5C 167.022,84.6568 158.355,92.6568 144,94.5C 139.373,93.9076 135.706,91.5743 133,87.5C 132.517,86.552 132.351,85.552 132.5,84.5C 143.345,86.8179 151.845,83.4845 158,74.5C 158.977,72.26 159.477,69.9267 159.5,67.5C 160.494,57.3468 160.828,47.0135 160.5,36.5C 163.833,36.5 167.167,36.5 170.5,36.5 Z"/></g>
<g><path style="opacity:1" fill="#253d8a" d="M 196.5,72.5 C 200.555,72.8242 204.555,72.4909 208.5,71.5C 208.376,70.8933 208.043,70.56 207.5,70.5C 205.095,62.6226 202.095,54.956 198.5,47.5C 192.049,62.6797 185.882,78.0131 180,93.5C 176.545,94.7914 173.045,94.7914 169.5,93.5C 177.236,74.6213 184.569,55.6213 191.5,36.5C 196.167,36.5 200.833,36.5 205.5,36.5C 212.431,55.6213 219.764,74.6213 227.5,93.5C 224.216,94.657 220.882,94.8236 217.5,94C 215.833,90.3333 214.167,86.6667 212.5,83C 204.507,82.5003 196.507,82.3336 188.5,82.5C 189.995,78.327 192.662,74.9937 196.5,72.5 Z"/></g>
<g><path style="opacity:1" fill="#176d3a" d="M 258.5,37.5 C 274.833,37.5 291.167,37.5 307.5,37.5C 307.5,56.1667 307.5,74.8333 307.5,93.5C 293.496,93.6666 279.496,93.4999 265.5,93C 262.112,90.4687 259.779,87.302 258.5,83.5C 271.5,83.5 284.5,83.5 297.5,83.5C 297.5,71.5 297.5,59.5 297.5,47.5C 287.161,47.6665 276.828,47.4998 266.5,47C 263.223,44.2337 260.557,41.067 258.5,37.5 Z"/></g>
<g><path style="opacity:1" fill="#116b37" d="M 309.5,37.5 C 312.833,37.5 316.167,37.5 319.5,37.5C 325.029,52.9148 330.862,68.2481 337,83.5C 343.196,68.5797 349.196,53.5797 355,38.5C 358.409,37.3781 361.909,37.2114 365.5,38C 358.073,56.1098 350.74,74.2764 343.5,92.5C 339.217,93.4922 334.884,93.8256 330.5,93.5C 323.5,74.8333 316.5,56.1667 309.5,37.5 Z"/></g>
<g><path style="opacity:1" fill="#263d8a" d="M 233.5,43.5 C 241.167,43.5 248.833,43.5 256.5,43.5C 256.5,45.5 256.5,47.5 256.5,49.5C 262.842,49.3338 269.175,49.5005 275.5,50C 278.167,53 278.167,56 275.5,59C 269.175,59.4995 262.842,59.6662 256.5,59.5C 256.5,63.5 256.5,67.5 256.5,71.5C 263.175,71.3337 269.842,71.5004 276.5,72C 278.013,74.9156 277.68,77.5823 275.5,80C 269.175,80.4995 262.842,80.6662 256.5,80.5C 256.5,82.8333 256.5,85.1667 256.5,87.5C 248.16,87.6664 239.827,87.4997 231.5,87C 218.868,71.8103 219.535,57.3103 233.5,43.5 Z"/></g>
<g><path style="opacity:1" fill="#fbfbfc" d="M 99.5,44.5 C 118.474,44.31 126.641,53.6434 124,72.5C 119.929,83.2912 112.096,88.1245 100.5,87C 88.1206,83.0975 82.6206,74.5975 84,61.5C 86.256,53.0814 91.4227,47.4147 99.5,44.5 Z"/></g>
<g><path style="opacity:1" fill="#a6adca" d="M 61.5,53.5 C 61.5,67.1667 61.5,80.8333 61.5,94.5C 64.8333,94.5 68.1667,94.5 71.5,94.5C 68.0381,95.4816 64.3714,95.815 60.5,95.5C 60.8289,81.9895 60.4956,68.6562 59.5,55.5C 59.4614,54.2438 59.9614,53.2438 61,52.5C 61.3988,52.7284 61.5654,53.0618 61.5,53.5 Z"/></g>
<g><path style="opacity:1" fill="#106a36" d="M 258.5,61.5 C 270.167,61.5 281.833,61.5 293.5,61.5C 293.5,64.1667 293.5,66.8333 293.5,69.5C 283.828,69.6665 274.161,69.4998 264.5,69C 261.882,66.8943 259.882,64.3943 258.5,61.5 Z"/></g>
<g><path style="opacity:1" fill="#929bbe" d="M 207.5,70.5 C 208.043,70.56 208.376,70.8933 208.5,71.5C 204.555,72.4909 200.555,72.8242 196.5,72.5C 200.167,71.8333 203.833,71.1667 207.5,70.5 Z"/></g>
<g><path style="opacity:1" fill="#27723f" d="M 206.5,95.5 C 208.912,95.6941 209.912,97.0274 209.5,99.5C 206.046,99.7332 205.046,98.3999 206.5,95.5 Z"/></g>
<g><path style="opacity:1" fill="#1c6c37" d="M 272.5,95.5 C 274.912,95.6941 275.912,97.0274 275.5,99.5C 272.046,99.7332 271.046,98.3999 272.5,95.5 Z"/></g>
<g><path style="opacity:1" fill="#1c6f3c" d="M 358.5,95.5 C 359.5,95.5 360.5,95.5 361.5,95.5C 361.5,105.167 361.5,114.833 361.5,124.5C 360.5,124.5 359.5,124.5 358.5,124.5C 358.649,123.448 358.483,122.448 358,121.5C 348.635,127.068 343.135,124.402 341.5,113.5C 343.924,104.334 349.424,102 358,106.5C 358.499,102.848 358.665,99.1817 358.5,95.5 Z"/></g>
<g><path style="opacity:1" fill="#aac6b6" d="M 274.5,104.5 C 272.541,110.75 271.874,117.416 272.5,124.5C 271.509,117.687 271.175,110.687 271.5,103.5C 272.791,103.263 273.791,103.596 274.5,104.5 Z"/></g>
<g><path style="opacity:1" fill="#196f3b" d="M 290.5,99.5 C 291.5,99.5 292.5,99.5 293.5,99.5C 293.5,101.167 293.5,102.833 293.5,104.5C 301.5,105.167 301.5,105.833 293.5,106.5C 293.334,111.179 293.501,115.845 294,120.5C 296.093,122.114 298.26,122.947 300.5,123C 296.921,125.265 293.754,124.765 291,121.5C 290.501,116.511 290.334,111.511 290.5,106.5C 286.5,105.833 286.5,105.167 290.5,104.5C 290.5,102.833 290.5,101.167 290.5,99.5 Z"/></g>
<g><path style="opacity:1" fill="#006429" d="M 206.5,104.5 C 207.82,107.428 208.486,110.761 208.5,114.5C 208.167,117.833 207.833,121.167 207.5,124.5C 206.503,117.866 206.17,111.2 206.5,104.5 Z"/></g>
<g><path style="opacity:1" fill="#006327" d="M 274.5,104.5 C 275.126,111.584 274.459,118.25 272.5,124.5C 271.874,117.416 272.541,110.75 274.5,104.5 Z"/></g>
<g><path style="opacity:1" fill="#146b35" d="M 329.5,111.5 C 329.5,112.5 329.5,113.5 329.5,114.5C 324.167,114.5 318.833,114.5 313.5,114.5C 313.263,115.791 313.596,116.791 314.5,117.5C 317.939,123.071 322.105,123.738 327,119.5C 327.692,120.025 328.192,120.692 328.5,121.5C 323.019,125.74 317.852,125.406 313,120.5C 308.776,109.074 312.61,103.907 324.5,105C 327.493,106.159 329.16,108.325 329.5,111.5 Z"/></g>
<g><path style="opacity:1" fill="#186d38" d="M 97.5,104.5 C 98.675,104.281 99.675,104.614 100.5,105.5C 102.667,110.5 104.833,115.5 107,120.5C 110.015,115.475 112.182,110.142 113.5,104.5C 114.675,104.281 115.675,104.614 116.5,105.5C 113.158,114.348 109.158,122.848 104.5,131C 103.333,131.167 102.167,131.333 101,131.5C 99.0271,131.691 97.5271,131.024 96.5,129.5C 101.145,130.718 104.145,128.884 105.5,124C 102.682,117.536 100.016,111.036 97.5,104.5 Z"/></g>
<g><path style="opacity:1" fill="#fbfcfb" d="M 326.5,110.5 C 324.952,111.794 322.952,112.461 320.5,112.5C 318.304,112.495 316.304,112.162 314.5,111.5C 315.843,106.922 318.843,105.422 323.5,107C 324.71,108.039 325.71,109.206 326.5,110.5 Z"/></g>
<g><path style="opacity:1" fill="#f7f9f8" d="M 348.5,106.5 C 356.147,106.313 359.314,109.98 358,117.5C 353.667,124.167 349.333,124.167 345,117.5C 343.662,112.96 344.829,109.293 348.5,106.5 Z"/></g>
<g><path style="opacity:1" fill="#1a6d39" d="M 224.5,104.5 C 226.124,104.36 227.29,105.027 228,106.5C 232.722,103.635 237.222,103.969 241.5,107.5C 252.092,101.126 257.092,104.126 256.5,116.5C 256.167,119.167 255.833,121.833 255.5,124.5C 254.672,119.868 254.172,115.202 254,110.5C 250.829,105.586 247.163,105.253 243,109.5C 242.501,114.489 242.334,119.489 242.5,124.5C 241.5,124.5 240.5,124.5 239.5,124.5C 239.666,119.489 239.499,114.489 239,109.5C 234.837,105.253 231.171,105.586 228,110.5C 227.501,115.155 227.334,119.821 227.5,124.5C 226.5,124.5 225.5,124.5 224.5,124.5C 224.5,117.833 224.5,111.167 224.5,104.5 Z"/></g>
<g><path style="opacity:1" fill="#20703e" d="M 67.5,103.5 C 68.5,103.5 69.5,103.5 70.5,103.5C 70.3505,104.552 70.5172,105.552 71,106.5C 75.2672,103.894 79.6005,103.894 84,106.5C 85.4101,112.379 85.9101,118.379 85.5,124.5C 84.5,124.5 83.5,124.5 82.5,124.5C 82.6659,119.489 82.4993,114.489 82,109.5C 78.3797,105.513 74.713,105.513 71,109.5C 70.5007,114.489 70.3341,119.489 70.5,124.5C 69.5,124.5 68.5,124.5 67.5,124.5C 67.5,117.5 67.5,110.5 67.5,103.5 Z"/></g>
<g><path style="opacity:1" fill="#106932" d="M 53.5,111.5 C 53.5,112.5 53.5,113.5 53.5,114.5C 48.1667,114.5 42.8333,114.5 37.5,114.5C 37.2627,115.791 37.596,116.791 38.5,117.5C 41.8924,123.057 46.059,123.724 51,119.5C 51.6924,120.025 52.1924,120.692 52.5,121.5C 47.0186,125.74 41.8519,125.406 37,120.5C 32.7762,109.074 36.6095,103.907 48.5,105C 51.4934,106.159 53.1601,108.325 53.5,111.5 Z"/></g>
<g><path style="opacity:1" fill="#fbfcfb" d="M 50.5,110.5 C 48.9522,111.794 46.9522,112.461 44.5,112.5C 42.3035,112.495 40.3035,112.162 38.5,111.5C 39.8432,106.922 42.8432,105.422 47.5,107C 48.7101,108.039 49.7101,109.206 50.5,110.5 Z"/></g>
<g><path style="opacity:1" fill="#89b099" d="M 50.5,110.5 C 51.404,111.209 51.7373,112.209 51.5,113.5C 46.7863,113.827 42.1196,113.493 37.5,112.5C 37.6236,111.893 37.9569,111.56 38.5,111.5C 40.3035,112.162 42.3035,112.495 44.5,112.5C 46.9522,112.461 48.9522,111.794 50.5,110.5 Z"/></g>
<g><path style="opacity:1" fill="#8bb19a" d="M 326.5,110.5 C 327.404,111.209 327.737,112.209 327.5,113.5C 322.786,113.827 318.12,113.493 313.5,112.5C 313.624,111.893 313.957,111.56 314.5,111.5C 316.304,112.162 318.304,112.495 320.5,112.5C 322.952,112.461 324.952,111.794 326.5,110.5 Z"/></g>
<g><path style="opacity:1" fill="#186c37" d="M 4.5,97.5 C 6.28896,102.407 7.12229,107.74 7,113.5C 11.4666,108.032 16.3,102.865 21.5,98C 22.5,97.3333 23.5,97.3333 24.5,98C 21.3532,101.981 18.0199,105.814 14.5,109.5C 18.2881,114.244 21.9547,119.077 25.5,124C 24.5,124.667 23.5,124.667 22.5,124C 19.3461,119.846 15.8461,116.013 12,112.5C 10.3551,114.145 8.68844,115.812 7,117.5C 6.81416,119.9 6.31416,122.234 5.5,124.5C 4.50182,115.525 4.16849,106.525 4.5,97.5 Z"/></g>
<g><path style="opacity:1" fill="#70a083" d="M 53.5,111.5 C 54.4345,112.568 54.7678,113.901 54.5,115.5C 48.7291,114.887 43.3958,115.554 38.5,117.5C 37.596,116.791 37.2627,115.791 37.5,114.5C 42.8333,114.5 48.1667,114.5 53.5,114.5C 53.5,113.5 53.5,112.5 53.5,111.5 Z"/></g>
<g><path style="opacity:1" fill="#6fa083" d="M 329.5,111.5 C 330.434,112.568 330.768,113.901 330.5,115.5C 324.729,114.887 319.396,115.554 314.5,117.5C 313.596,116.791 313.263,115.791 313.5,114.5C 318.833,114.5 324.167,114.5 329.5,114.5C 329.5,113.5 329.5,112.5 329.5,111.5 Z"/></g>
<g><path style="opacity:1" fill="#1d6e39" d="M 129.5,104.5 C 139.72,101.921 144.053,105.755 142.5,116C 142.167,118.833 141.833,121.667 141.5,124.5C 140.833,123.833 140.167,123.167 139.5,122.5C 135.916,124.877 132.25,125.043 128.5,123C 125.512,118.952 126.178,115.618 130.5,113C 133.817,112.502 137.15,112.335 140.5,112.5C 140.671,110.007 139.671,108.174 137.5,107C 134.289,106.202 131.289,106.702 128.5,108.5C 128.167,108.167 127.833,107.833 127.5,107.5C 128.193,106.482 128.859,105.482 129.5,104.5 Z"/></g>
<g><path style="opacity:1" fill="#f2f6f4" d="M 130.5,115.5 C 133.833,115.5 137.167,115.5 140.5,115.5C 139.315,122.176 135.815,123.843 130,120.5C 129.36,118.735 129.527,117.068 130.5,115.5 Z"/></g>
<g><path style="opacity:1" fill="#186c35" d="M 177.5,97.5 C 179.467,105.097 180.134,113.097 179.5,121.5C 184.5,121.5 189.5,121.5 194.5,121.5C 194.5,122.5 194.5,123.5 194.5,124.5C 188.833,124.5 183.167,124.5 177.5,124.5C 177.5,115.5 177.5,106.5 177.5,97.5 Z"/></g>
<g><path style="opacity:1" fill="#959595" d="M -0.5,-0.5 C -0.166667,-0.5 0.166667,-0.5 0.5,-0.5C 0.5,44.1667 0.5,88.8333 0.5,133.5C 123.833,133.5 247.167,133.5 370.5,133.5C 370.5,134.167 370.5,134.833 370.5,135.5C 246.833,135.5 123.167,135.5 -0.5,135.5C -0.5,90.1667 -0.5,44.8333 -0.5,-0.5 Z"/></g>
</svg>
