<?xml version="1.0" encoding="UTF-8"?>
<!DOCTYPE svg PUBLIC "-//W3C//DTD SVG 1.1//EN" "http://www.w3.org/Graphics/SVG/1.1/DTD/svg11.dtd">
<svg xmlns="http://www.w3.org/2000/svg" version="1.1" width="225px" height="225px" style="shape-rendering:geometricPrecision; text-rendering:geometricPrecision; image-rendering:optimizeQuality; fill-rule:evenodd; clip-rule:evenodd" xmlns:xlink="http://www.w3.org/1999/xlink">
<g><path style="opacity:1" fill="#2cb24a" d="M -0.5,-0.5 C 74.5,-0.5 149.5,-0.5 224.5,-0.5C 224.5,74.5 224.5,149.5 224.5,224.5C 149.5,224.5 74.5,224.5 -0.5,224.5C -0.5,149.5 -0.5,74.5 -0.5,-0.5 Z"/></g>
<g><path style="opacity:1" fill="#ea3c3e" d="M 201.5,60.5 C 201.664,63.1873 201.497,65.854 201,68.5C 198.114,70.944 195.447,73.6106 193,76.5C 191.979,79.1051 191.145,81.7717 190.5,84.5C 189.726,85.7112 188.893,85.7112 188,84.5C 186.886,88.4557 186.053,88.4557 185.5,84.5C 185.324,81.2727 184.657,78.2727 183.5,75.5C 183.5,75.1667 183.5,74.8333 183.5,74.5C 181.865,69.8802 178.531,67.5469 173.5,67.5C 166.167,67.5 158.833,67.5 151.5,67.5C 149.833,67.5 148.167,67.5 146.5,67.5C 146.433,66.0413 146.766,64.7079 147.5,63.5C 151.39,62.8703 155.223,62.8703 159,63.5C 160.563,62.8979 160.396,62.0646 158.5,61C 161.718,60.0997 164.718,58.933 167.5,57.5C 177.264,53.9349 187.264,53.6015 197.5,56.5C 199.188,57.5213 200.521,58.8546 201.5,60.5 Z"/></g>
<g><path style="opacity:1" fill="#d04f40" d="M 167.5,57.5 C 164.718,58.933 161.718,60.0997 158.5,61C 160.396,62.0646 160.563,62.8979 159,63.5C 155.223,62.8703 151.39,62.8703 147.5,63.5C 153.761,60.5275 160.428,58.5275 167.5,57.5 Z"/></g>
<g><path style="opacity:1" fill="#d8473e" d="M 147.5,63.5 C 146.766,64.7079 146.433,66.0413 146.5,67.5C 148.167,67.5 149.833,67.5 151.5,67.5C 146.172,69.1662 140.838,70.8329 135.5,72.5C 132.422,72.6197 129.755,73.6197 127.5,75.5C 126.5,75.5 125.5,75.5 124.5,75.5C 123.761,75.631 123.094,75.4643 122.5,75C 124.319,74.2597 125.652,73.0931 126.5,71.5C 133.372,68.567 140.372,65.9004 147.5,63.5 Z"/></g>
<g><path style="opacity:1" fill="#bb5a40" d="M 173.5,67.5 C 178.531,67.5469 181.865,69.8802 183.5,74.5C 180.698,71.3583 177.365,69.0249 173.5,67.5 Z"/></g>
<g><path style="opacity:1" fill="#52a24a" d="M 202.5,61.5 C 203.649,66.3253 204.149,71.3253 204,76.5C 202.425,72.436 201.258,72.6027 200.5,77C 200.645,77.772 200.978,78.4387 201.5,79C 200.207,79.49 198.873,79.6567 197.5,79.5C 198.89,76.1836 200.39,72.8502 202,69.5C 202.497,66.854 202.664,64.1873 202.5,61.5 Z"/></g>
<g><path style="opacity:1" fill="#758847" d="M 135.5,72.5 C 133.245,74.3803 130.578,75.3803 127.5,75.5C 129.755,73.6197 132.422,72.6197 135.5,72.5 Z"/></g>
<g><path style="opacity:1" fill="#718c47" d="M 124.5,75.5 C 125.5,75.5 126.5,75.5 127.5,75.5C 125.967,77.2451 123.967,78.2451 121.5,78.5C 122.306,77.2719 123.306,76.2719 124.5,75.5 Z"/></g>
<g><path style="opacity:1" fill="#dd443e" d="M 201.5,60.5 C 202.167,60.5 202.5,60.8333 202.5,61.5C 202.664,64.1873 202.497,66.854 202,69.5C 200.39,72.8502 198.89,76.1836 197.5,79.5C 191.231,87.1067 184.564,94.44 177.5,101.5C 176.504,101.414 175.671,101.748 175,102.5C 174.517,101.552 174.351,100.552 174.5,99.5C 175.806,98.5326 176.473,97.1993 176.5,95.5C 178.954,93.2983 180.954,90.6317 182.5,87.5C 183.1,86.0998 184.1,85.0998 185.5,84.5C 186.053,88.4557 186.886,88.4557 188,84.5C 188.893,85.7112 189.726,85.7112 190.5,84.5C 191.145,81.7717 191.979,79.1051 193,76.5C 195.447,73.6106 198.114,70.944 201,68.5C 201.497,65.854 201.664,63.1873 201.5,60.5 Z"/></g>
<g><path style="opacity:1" fill="#bf573e" d="M 126.5,71.5 C 125.652,73.0931 124.319,74.2597 122.5,75C 123.094,75.4643 123.761,75.631 124.5,75.5C 123.306,76.2719 122.306,77.2719 121.5,78.5C 118.821,79.2261 116.154,80.0594 113.5,81C 109.606,83.4458 105.606,85.6124 101.5,87.5C 100.001,86.506 98.3344,86.506 96.5,87.5C 106.114,81.6144 116.114,76.2811 126.5,71.5 Z"/></g>
<g><path style="opacity:1" fill="#bb5940" d="M 183.5,75.5 C 184.657,78.2727 185.324,81.2727 185.5,84.5C 184.1,85.0998 183.1,86.0998 182.5,87.5C 183.162,83.5341 183.495,79.5341 183.5,75.5 Z"/></g>
<g><path style="opacity:1" fill="#30b14a" d="M 151.5,67.5 C 158.833,67.5 166.167,67.5 173.5,67.5C 177.365,69.0249 180.698,71.3583 183.5,74.5C 183.5,74.8333 183.5,75.1667 183.5,75.5C 183.495,79.5341 183.162,83.5341 182.5,87.5C 180.954,90.6317 178.954,93.2983 176.5,95.5C 173.632,95.085 171.465,96.085 170,98.5C 169.667,98.1667 169.333,97.8333 169,97.5C 168.667,98.8333 168.333,100.167 168,101.5C 167.818,98.7737 167.318,96.1071 166.5,93.5C 165.987,97.1209 164.987,100.454 163.5,103.5C 164.974,100.673 164.64,98.1735 162.5,96C 158.835,94.7222 155.168,93.5555 151.5,92.5C 145.681,91.3475 139.681,91.1808 133.5,92C 131.121,92.7162 129.121,93.8828 127.5,95.5C 118.11,100.665 115.443,108.332 119.5,118.5C 121.05,120.428 122.717,122.261 124.5,124C 132.642,127.27 140.976,129.936 149.5,132C 152.462,135.488 151.795,138.155 147.5,140C 142.5,140.667 137.5,140.667 132.5,140C 128.768,138.427 125.102,137.093 121.5,136C 117.284,140.115 116.617,144.615 119.5,149.5C 117.433,149.468 116.1,148.468 115.5,146.5C 116.396,144.199 116.562,141.866 116,139.5C 115.077,140.759 114.243,142.092 113.5,143.5C 111.373,141.383 111.04,142.049 112.5,145.5C 110.993,146.739 109.826,146.405 109,144.5C 108.405,145.899 108.572,147.232 109.5,148.5C 105.796,148.972 103.796,149.972 103.5,151.5C 103.738,155.099 102.738,155.433 100.5,152.5C 98.9291,153.309 97.2624,153.643 95.5,153.5C 98.3573,150.999 101.691,149.332 105.5,148.5C 107.048,148.179 107.715,147.179 107.5,145.5C 105.901,145.232 104.568,145.566 103.5,146.5C 100.779,146.963 98.1123,147.629 95.5,148.5C 91.4754,148.63 87.8088,149.63 84.5,151.5C 84.1667,151.5 83.8333,151.5 83.5,151.5C 75.8261,152.793 68.1595,152.793 60.5,151.5C 56.9802,150.817 54.4802,148.817 53,145.5C 51.7804,139.103 52.6137,133.103 55.5,127.5C 57.5311,126.461 58.8645,124.795 59.5,122.5C 61.7974,120.183 63.7974,117.516 65.5,114.5C 76.3113,104.075 88.3113,95.0752 101.5,87.5C 105.606,85.6124 109.606,83.4458 113.5,81C 116.154,80.0594 118.821,79.2261 121.5,78.5C 123.967,78.2451 125.967,77.2451 127.5,75.5C 130.578,75.3803 133.245,74.3803 135.5,72.5C 140.838,70.8329 146.172,69.1662 151.5,67.5 Z"/></g>
<g><path style="opacity:1" fill="#d24d3e" d="M 101.5,87.5 C 88.3113,95.0752 76.3113,104.075 65.5,114.5C 64.9653,112.554 63.632,111.554 61.5,111.5C 62.1667,110.833 62.8333,110.167 63.5,109.5C 65.6038,107.901 67.6038,106.068 69.5,104C 78.4058,98.2431 87.4058,92.7431 96.5,87.5C 98.3344,86.506 100.001,86.506 101.5,87.5 Z"/></g>
<g><path style="opacity:1" fill="#d1f5d6" d="M 151.5,92.5 C 143.249,91.8463 135.249,92.8463 127.5,95.5C 129.121,93.8828 131.121,92.7162 133.5,92C 139.681,91.1808 145.681,91.3475 151.5,92.5 Z"/></g>
<g><path style="opacity:1" fill="#f6fbf7" d="M 151.5,92.5 C 155.168,93.5555 158.835,94.7222 162.5,96C 164.64,98.1735 164.974,100.673 163.5,103.5C 162.416,105.319 161.082,106.985 159.5,108.5C 152.418,103.994 144.752,102.494 136.5,104C 132.749,107.053 132.583,110.219 136,113.5C 143.805,115.91 151.638,118.243 159.5,120.5C 162.266,122.259 164.266,124.593 165.5,127.5C 165.676,132.88 165.342,138.213 164.5,143.5C 155.703,152.208 145.036,155.375 132.5,153C 128.159,151.828 123.826,150.661 119.5,149.5C 116.617,144.615 117.284,140.115 121.5,136C 125.102,137.093 128.768,138.427 132.5,140C 137.5,140.667 142.5,140.667 147.5,140C 151.795,138.155 152.462,135.488 149.5,132C 140.976,129.936 132.642,127.27 124.5,124C 122.717,122.261 121.05,120.428 119.5,118.5C 115.443,108.332 118.11,100.665 127.5,95.5C 135.249,92.8463 143.249,91.8463 151.5,92.5 Z"/></g>
<g><path style="opacity:1" fill="#748445" d="M 174.5,99.5 C 174.351,100.552 174.517,101.552 175,102.5C 175.671,101.748 176.504,101.414 177.5,101.5C 176.713,103.104 175.38,103.771 173.5,103.5C 173.232,101.901 173.566,100.568 174.5,99.5 Z"/></g>
<g><path style="opacity:1" fill="#847d42" d="M 63.5,109.5 C 62.8333,110.167 62.1667,110.833 61.5,111.5C 61.1667,111.5 60.8333,111.5 60.5,111.5C 60.8212,109.952 61.8212,109.285 63.5,109.5 Z"/></g>
<g><path style="opacity:1" fill="#bb5d43" d="M 59.5,111.5 C 58.1553,115.55 55.4886,118.217 51.5,119.5C 54.1407,116.963 56.8074,114.297 59.5,111.5 Z"/></g>
<g><path style="opacity:1" fill="#8e7242" d="M 59.5,122.5 C 58.8645,124.795 57.5311,126.461 55.5,127.5C 56.0798,125.251 57.4131,123.585 59.5,122.5 Z"/></g>
<g><path style="opacity:1" fill="#ab6543" d="M 42.5,127.5 C 41.578,129.816 39.9113,131.483 37.5,132.5C 38.1667,129.833 39.8333,128.167 42.5,127.5 Z"/></g>
<g><path style="opacity:1" fill="#ea3b3e" d="M 59.5,111.5 C 59.8333,111.5 60.1667,111.5 60.5,111.5C 60.8333,111.5 61.1667,111.5 61.5,111.5C 63.632,111.554 64.9653,112.554 65.5,114.5C 63.7974,117.516 61.7974,120.183 59.5,122.5C 57.4131,123.585 56.0798,125.251 55.5,127.5C 52.6137,133.103 51.7804,139.103 53,145.5C 54.4802,148.817 56.9802,150.817 60.5,151.5C 60.6107,152.117 60.944,152.617 61.5,153C 68.1667,153.667 74.8333,153.667 81.5,153C 82.4158,152.722 83.0825,152.222 83.5,151.5C 83.8333,151.5 84.1667,151.5 84.5,151.5C 85.5,151.5 86.5,151.5 87.5,151.5C 88.4778,151.811 89.1445,152.478 89.5,153.5C 87.6684,154.057 86.3351,155.057 85.5,156.5C 84.8333,156.5 84.5,156.833 84.5,157.5C 76.5016,161.115 68.1683,163.782 59.5,165.5C 54.9697,165.036 50.9697,166.036 47.5,168.5C 38.8911,170.926 30.8911,169.759 23.5,165C 20.9663,159.87 20.9663,154.703 23.5,149.5C 27.0635,142.935 31.7302,137.269 37.5,132.5C 39.9113,131.483 41.578,129.816 42.5,127.5C 44.8998,124.097 47.8998,121.43 51.5,119.5C 55.4886,118.217 58.1553,115.55 59.5,111.5 Z"/></g>
<g><path style="opacity:1" fill="#c2e9ca" d="M 165.5,127.5 C 168.404,133.035 168.07,138.368 164.5,143.5C 165.342,138.213 165.676,132.88 165.5,127.5 Z"/></g>
<g><path style="opacity:1" fill="#837e43" d="M 103.5,146.5 C 104.568,145.566 105.901,145.232 107.5,145.5C 107.715,147.179 107.048,148.179 105.5,148.5C 106.66,146.797 105.993,146.131 103.5,146.5 Z"/></g>
<g><path style="opacity:1" fill="#6d8e48" d="M 95.5,148.5 C 92.9127,149.749 90.246,150.749 87.5,151.5C 86.5,151.5 85.5,151.5 84.5,151.5C 87.8088,149.63 91.4754,148.63 95.5,148.5 Z"/></g>
<g><path style="opacity:1" fill="#d04a3e" d="M 103.5,146.5 C 105.993,146.131 106.66,146.797 105.5,148.5C 101.691,149.332 98.3573,150.999 95.5,153.5C 95.1667,153.5 94.8333,153.5 94.5,153.5C 91.7336,155.071 88.7336,156.071 85.5,156.5C 86.3351,155.057 87.6684,154.057 89.5,153.5C 89.1445,152.478 88.4778,151.811 87.5,151.5C 90.246,150.749 92.9127,149.749 95.5,148.5C 98.1123,147.629 100.779,146.963 103.5,146.5 Z"/></g>
<g><path style="opacity:1" fill="#b55841" d="M 60.5,151.5 C 68.1595,152.793 75.8261,152.793 83.5,151.5C 83.0825,152.222 82.4158,152.722 81.5,153C 74.8333,153.667 68.1667,153.667 61.5,153C 60.944,152.617 60.6107,152.117 60.5,151.5 Z"/></g>
<g><path style="opacity:1" fill="#659749" d="M 94.5,153.5 C 94.5858,154.496 94.2524,155.329 93.5,156C 90.6074,157.149 87.6074,157.649 84.5,157.5C 84.5,156.833 84.8333,156.5 85.5,156.5C 88.7336,156.071 91.7336,155.071 94.5,153.5 Z"/></g>
<g><path style="opacity:1" fill="#bc5940" d="M 59.5,165.5 C 55.8002,167.281 51.8002,168.281 47.5,168.5C 50.9697,166.036 54.9697,165.036 59.5,165.5 Z"/></g>
<g><path style="opacity:1" fill="#5a9c47" d="M 23.5,149.5 C 20.9663,154.703 20.9663,159.87 23.5,165C 30.8911,169.759 38.8911,170.926 47.5,168.5C 45.0849,169.814 42.2515,170.481 39,170.5C 33.096,171.184 27.7626,169.85 23,166.5C 21.8382,167.187 20.6716,167.353 19.5,167C 20.0143,162.434 20.0143,157.767 19.5,153C 19.9444,151.238 20.4444,151.405 21,153.5C 21.1216,151.563 21.955,150.23 23.5,149.5 Z"/></g>
</svg>
