<?xml version="1.0" encoding="UTF-8"?>
<!DOCTYPE svg PUBLIC "-//W3C//DTD SVG 1.1//EN" "http://www.w3.org/Graphics/SVG/1.1/DTD/svg11.dtd">
<svg xmlns="http://www.w3.org/2000/svg" version="1.1" width="422px" height="119px" style="shape-rendering:geometricPrecision; text-rendering:geometricPrecision; image-rendering:optimizeQuality; fill-rule:evenodd; clip-rule:evenodd" xmlns:xlink="http://www.w3.org/1999/xlink">
<g><path style="opacity:1" fill="#d12124" d="M 142.5,14.5 C 141.833,14.5 141.167,14.5 140.5,14.5C 131.048,14.271 121.715,14.9377 112.5,16.5C 112.167,16.5 111.833,16.5 111.5,16.5C 120.724,12.8216 130.391,11.6549 140.5,13C 141.416,13.2784 142.082,13.7784 142.5,14.5 Z"/></g>
<g><path style="opacity:1" fill="#f01921" d="M 140.5,14.5 C 139.246,19.9085 136.246,20.9085 131.5,17.5C 130.893,17.6236 130.56,17.9569 130.5,18.5C 124.366,17.9143 118.366,17.2476 112.5,16.5C 121.715,14.9377 131.048,14.271 140.5,14.5 Z"/></g>
<g><path style="opacity:1" fill="#e11f27" d="M 111.5,16.5 C 111.833,16.5 112.167,16.5 112.5,16.5C 118.366,17.2476 124.366,17.9143 130.5,18.5C 131.6,19.6049 132.267,20.9382 132.5,22.5C 130.073,22.523 127.74,23.023 125.5,24C 126.056,24.3826 126.389,24.8826 126.5,25.5C 122.986,24.1217 119.319,23.455 115.5,23.5C 108.788,24.2428 102.121,25.2428 95.5,26.5C 98.7478,24.7609 102.414,23.5942 106.5,23C 110.5,22.6667 114.5,22.3333 118.5,22C 115.124,20.9302 111.79,19.7635 108.5,18.5C 104.713,20.3534 100.713,21.3534 96.5,21.5C 101.165,19.0775 106.165,17.4108 111.5,16.5 Z"/></g>
<g><path style="opacity:1" fill="#e41e26" d="M 140.5,14.5 C 141.167,14.5 141.833,14.5 142.5,14.5C 146.926,16.3592 148.426,19.6925 147,24.5C 144.548,31.7543 140.381,37.7543 134.5,42.5C 134.773,40.549 134.107,39.049 132.5,38C 134.577,37.8078 136.577,37.3078 138.5,36.5C 135.557,33.8196 135.89,33.153 139.5,34.5C 140.241,31.2937 139.241,28.6271 136.5,26.5C 136.167,24.1667 134.833,22.8333 132.5,22.5C 132.267,20.9382 131.6,19.6049 130.5,18.5C 130.56,17.9569 130.893,17.6236 131.5,17.5C 136.246,20.9085 139.246,19.9085 140.5,14.5 Z"/></g>
<g><path style="opacity:1" fill="#ea171d" d="M 95.5,26.5 C 93.4727,26.6621 91.4727,26.4955 89.5,26C 92.1867,24.9514 94.52,23.4514 96.5,21.5C 100.713,21.3534 104.713,20.3534 108.5,18.5C 111.79,19.7635 115.124,20.9302 118.5,22C 114.5,22.3333 110.5,22.6667 106.5,23C 102.414,23.5942 98.7478,24.7609 95.5,26.5 Z"/></g>
<g><path style="opacity:1" fill="#e21c21" d="M 132.5,22.5 C 134.833,22.8333 136.167,24.1667 136.5,26.5C 135.842,27.3984 135.176,28.3984 134.5,29.5C 133.534,27.604 133.201,25.604 133.5,23.5C 131.897,23.3118 130.563,23.8118 129.5,25C 132.6,28.9442 132.933,32.7776 130.5,36.5C 131.344,31.8619 130.011,28.1953 126.5,25.5C 126.389,24.8826 126.056,24.3826 125.5,24C 127.74,23.023 130.073,22.523 132.5,22.5 Z"/></g>
<g><path style="opacity:1" fill="#ef1a21" d="M 136.5,26.5 C 139.241,28.6271 140.241,31.2937 139.5,34.5C 135.89,33.153 135.557,33.8196 138.5,36.5C 136.577,37.3078 134.577,37.8078 132.5,38C 134.107,39.049 134.773,40.549 134.5,42.5C 131.09,42.6162 129.756,40.9496 130.5,37.5C 130.5,37.1667 130.5,36.8333 130.5,36.5C 132.933,32.7776 132.6,28.9442 129.5,25C 130.563,23.8118 131.897,23.3118 133.5,23.5C 133.201,25.604 133.534,27.604 134.5,29.5C 135.176,28.3984 135.842,27.3984 136.5,26.5 Z"/></g>
<g><path style="opacity:1" fill="#d22122" d="M 96.5,21.5 C 94.52,23.4514 92.1867,24.9514 89.5,26C 91.4727,26.4955 93.4727,26.6621 95.5,26.5C 88.8295,28.9505 82.1628,31.6171 75.5,34.5C 75.1788,32.9519 74.1788,32.2852 72.5,32.5C 80.1191,28.0683 88.1191,24.4016 96.5,21.5 Z"/></g>
<g><path style="opacity:1" fill="#d61a1d" d="M 72.5,32.5 C 74.1788,32.2852 75.1788,32.9519 75.5,34.5C 72.1718,36.1657 68.8385,37.8324 65.5,39.5C 63.901,39.7678 62.5676,39.4345 61.5,38.5C 64.7226,35.7532 68.3893,33.7532 72.5,32.5 Z"/></g>
<g><path style="opacity:1" fill="#cf1e22" d="M 61.5,38.5 C 62.5676,39.4345 63.901,39.7678 65.5,39.5C 58.245,44.0798 51.245,49.0798 44.5,54.5C 44.703,52.3618 45.703,50.6951 47.5,49.5C 47.0431,48.7025 46.3764,48.3691 45.5,48.5C 50.4888,44.6692 55.8222,41.3359 61.5,38.5 Z"/></g>
<g><path style="opacity:1" fill="#36ad4e" d="M 185.5,56.5 C 186.609,57.8787 187.276,59.5453 187.5,61.5C 187.415,63.3328 186.748,64.6661 185.5,65.5C 186.537,63.2625 186.703,60.9291 186,58.5C 184.951,60.1066 183.451,60.7733 181.5,60.5C 181.657,59.1266 181.49,57.7932 181,56.5C 180.667,57.1667 180.333,57.8333 180,58.5C 179.623,57.0577 178.79,56.0577 177.5,55.5C 178.714,53.8514 180.047,52.1848 181.5,50.5C 179.86,48.4172 177.86,48.0838 175.5,49.5C 175.5,48.1667 175.5,46.8333 175.5,45.5C 173.486,45.3915 171.82,46.0582 170.5,47.5C 171.767,43.7427 174.434,41.5761 178.5,41C 182.167,40.3333 185.833,40.3333 189.5,41C 190.46,44.73 190.793,48.5633 190.5,52.5C 187.745,50.875 185.245,51.2084 183,53.5C 182.517,54.448 182.351,55.448 182.5,56.5C 183.5,56.5 184.5,56.5 185.5,56.5 Z"/></g>
<g><path style="opacity:1" fill="#37a94f" d="M 107.5,54.5 C 108.822,54.67 109.989,54.3366 111,53.5C 112.15,51.2462 112.484,48.9129 112,46.5C 109.131,49.3185 107.631,48.6518 107.5,44.5C 103.192,43.6324 98.859,43.4657 94.5,44C 93.1509,44.7724 92.3176,45.9391 92,47.5C 89.9546,46.0735 87.7879,45.0735 85.5,44.5C 94.7993,40.9593 104.133,41.1259 113.5,45C 114.728,45.779 115.728,46.779 116.5,48C 115.666,51.5003 114.166,54.667 112,57.5C 110.348,56.6006 108.848,55.6006 107.5,54.5 Z"/></g>
<g><path style="opacity:0.996" fill="#d02426" d="M 130.5,37.5 C 129.756,40.9496 131.09,42.6162 134.5,42.5C 131.478,46.5214 127.811,49.8547 123.5,52.5C 122.386,51.277 122.219,49.9437 123,48.5C 126.018,45.1139 128.518,41.4473 130.5,37.5 Z"/></g>
<g><path style="opacity:1" fill="#31b34c" d="M 107.5,54.5 C 107.167,54.5 106.833,54.5 106.5,54.5C 106.389,53.8826 106.056,53.3826 105.5,53C 101.532,52.0582 97.5319,51.2249 93.5,50.5C 92.6518,48.7172 91.3185,48.2172 89.5,49C 90.2524,49.6708 90.5858,50.5041 90.5,51.5C 87.9104,50.9489 87.2437,49.6155 88.5,47.5C 88,47.1667 87.5,46.8333 87,46.5C 85.8261,47.5442 84.6594,48.5442 83.5,49.5C 83.8333,48.1667 84.1667,46.8333 84.5,45.5C 84.5,44.8333 84.8333,44.5 85.5,44.5C 87.7879,45.0735 89.9546,46.0735 92,47.5C 92.3176,45.9391 93.1509,44.7724 94.5,44C 98.859,43.4657 103.192,43.6324 107.5,44.5C 107.631,48.6518 109.131,49.3185 112,46.5C 112.484,48.9129 112.15,51.2462 111,53.5C 109.989,54.3366 108.822,54.67 107.5,54.5 Z"/></g>
<g><path style="opacity:1" fill="#3bab54" d="M 106.5,54.5 C 101.774,52.2107 97.1071,52.2107 92.5,54.5C 91.3861,55.723 91.2195,57.0563 92,58.5C 97.3411,60.7057 102.841,62.5391 108.5,64C 110.584,64.6972 112.251,65.8639 113.5,67.5C 112.167,67.1667 110.833,66.8333 109.5,66.5C 108.223,65.1024 106.557,64.4357 104.5,64.5C 102.325,65.0465 100.991,66.0465 100.5,67.5C 99.2613,67.0576 98.2613,66.3909 97.5,65.5C 97.8039,64.8501 98.1373,64.1835 98.5,63.5C 95.9302,62.7771 93.5968,61.6104 91.5,60C 91.12,57.6742 90.12,55.8409 88.5,54.5C 88.5,54.1667 88.5,53.8333 88.5,53.5C 89.9778,53.762 91.3112,53.4287 92.5,52.5C 92.0431,51.7025 91.3764,51.3691 90.5,51.5C 90.5858,50.5041 90.2524,49.6708 89.5,49C 91.3185,48.2172 92.6518,48.7172 93.5,50.5C 97.5319,51.2249 101.532,52.0582 105.5,53C 106.056,53.3826 106.389,53.8826 106.5,54.5 Z"/></g>
<g><path style="opacity:0.624" fill="#42a056" d="M 266.5,39.5 C 271.167,39.5 275.833,39.5 280.5,39.5C 280.666,43.5138 280.499,47.5138 280,51.5C 275.667,52.8333 271.333,52.8333 267,51.5C 266.501,47.5138 266.334,43.5138 266.5,39.5 Z"/></g>
<g><path style="opacity:1" fill="#30b149" d="M 269.5,40.5 C 272.833,40.5 276.167,40.5 279.5,40.5C 279.5,43.8333 279.5,47.1667 279.5,50.5C 275.833,50.5 272.167,50.5 268.5,50.5C 268.253,47.0613 268.586,43.728 269.5,40.5 Z"/></g>
<g><path style="opacity:1" fill="#2fb449" d="M 90.5,51.5 C 91.3764,51.3691 92.0431,51.7025 92.5,52.5C 91.3112,53.4287 89.9778,53.762 88.5,53.5C 86.9293,52.8031 85.4293,52.4698 84,52.5C 82.6483,55.7376 80.9816,58.0709 79,59.5C 78.5959,55.3083 80.0959,51.975 83.5,49.5C 84.6594,48.5442 85.8261,47.5442 87,46.5C 87.5,46.8333 88,47.1667 88.5,47.5C 87.2437,49.6155 87.9104,50.9489 90.5,51.5 Z"/></g>
<g><path style="opacity:1" fill="#2eb44d" d="M 177.5,55.5 C 176.5,55.5 175.5,55.5 174.5,55.5C 172.885,59.121 173.219,62.4543 175.5,65.5C 174.417,65.4606 173.417,65.1272 172.5,64.5C 171.83,66.2914 171.163,67.9581 170.5,69.5C 170.5,62.5 170.5,55.5 170.5,48.5C 170.5,48.1667 170.5,47.8333 170.5,47.5C 171.82,46.0582 173.486,45.3915 175.5,45.5C 175.5,46.8333 175.5,48.1667 175.5,49.5C 177.86,48.0838 179.86,48.4172 181.5,50.5C 180.047,52.1848 178.714,53.8514 177.5,55.5 Z"/></g>
<g><path style="opacity:1" fill="#31b449" d="M 177.5,55.5 C 178.79,56.0577 179.623,57.0577 180,58.5C 180.333,57.8333 180.667,57.1667 181,56.5C 181.49,57.7932 181.657,59.1266 181.5,60.5C 183.451,60.7733 184.951,60.1066 186,58.5C 186.703,60.9291 186.537,63.2625 185.5,65.5C 184.167,65.5 182.833,65.5 181.5,65.5C 180.518,64.8592 179.518,64.1925 178.5,63.5C 177.692,65.4233 177.192,67.4233 177,69.5C 176.209,68.255 175.709,66.9217 175.5,65.5C 173.219,62.4543 172.885,59.121 174.5,55.5C 175.5,55.5 176.5,55.5 177.5,55.5 Z"/></g>
<g><path style="opacity:1" fill="#d81d25" d="M 45.5,48.5 C 46.3764,48.3691 47.0431,48.7025 47.5,49.5C 45.703,50.6951 44.703,52.3618 44.5,54.5C 38.4343,59.5631 33.1009,65.2297 28.5,71.5C 28.4226,70.2502 27.756,69.4169 26.5,69C 27.0353,66.8913 28.0353,66.3913 29.5,67.5C 30.5896,66.6086 30.5896,65.6086 29.5,64.5C 30.6888,63.5713 32.0222,63.238 33.5,63.5C 34.3475,61.5185 34.8475,59.5185 35,57.5C 33.9887,58.3366 32.8221,58.67 31.5,58.5C 35.4538,54.1879 40.1205,50.8545 45.5,48.5 Z"/></g>
<g><path style="opacity:1" fill="#30b44a" d="M 88.5,54.5 C 90.12,55.8409 91.12,57.6742 91.5,60C 93.5968,61.6104 95.9302,62.7771 98.5,63.5C 98.1373,64.1835 97.8039,64.8501 97.5,65.5C 97.5,66.8333 97.5,68.1667 97.5,69.5C 99.604,69.2011 101.604,69.5344 103.5,70.5C 104.595,72.6204 106.261,74.1204 108.5,75C 107.906,75.4643 107.239,75.631 106.5,75.5C 103.994,74.2504 101.327,73.5838 98.5,73.5C 98.1667,73.5 97.8333,73.5 97.5,73.5C 91.2512,72.3719 86.2512,69.2052 82.5,64C 83.3757,62.4152 84.7091,61.4152 86.5,61C 85.266,58.2039 85.9327,56.0372 88.5,54.5 Z"/></g>
<g><path style="opacity:1" fill="#39ad51" d="M 84.5,45.5 C 84.1667,46.8333 83.8333,48.1667 83.5,49.5C 80.0959,51.975 78.5959,55.3083 79,59.5C 80.9816,58.0709 82.6483,55.7376 84,52.5C 85.4293,52.4698 86.9293,52.8031 88.5,53.5C 88.5,53.8333 88.5,54.1667 88.5,54.5C 85.9327,56.0372 85.266,58.2039 86.5,61C 84.7091,61.4152 83.3757,62.4152 82.5,64C 86.2512,69.2052 91.2512,72.3719 97.5,73.5C 89.2272,73.4478 82.7272,70.1145 78,63.5C 75.9808,55.8907 78.1475,49.8907 84.5,45.5 Z"/></g>
<g><path style="opacity:1" fill="#3aaa4f" d="M 146.5,58.5 C 143.545,57.8413 140.545,57.5079 137.5,57.5C 137.66,59.1992 137.494,60.8659 137,62.5C 134.181,60.6232 131.347,60.2899 128.5,61.5C 127.833,62.1667 127.167,62.8333 126.5,63.5C 125.833,63.8333 125.167,64.1667 124.5,64.5C 128.237,56.304 134.57,53.4707 143.5,56C 144.571,56.8518 145.571,57.6851 146.5,58.5 Z"/></g>
<g><path style="opacity:1" fill="#42a457" d="M 148.5,91.5 C 152.5,91.5 156.5,91.5 160.5,91.5C 160.5,90.5 160.5,89.5 160.5,88.5C 160.5,87.1667 160.5,85.8333 160.5,84.5C 160.5,77.1667 160.5,69.8333 160.5,62.5C 160.737,61.209 160.404,60.209 159.5,59.5C 156.038,58.5184 152.371,58.185 148.5,58.5C 152.373,56.5698 156.706,55.9031 161.5,56.5C 161.5,68.5 161.5,80.5 161.5,92.5C 156.968,92.8182 152.634,92.4849 148.5,91.5 Z"/></g>
<g><path style="opacity:1" fill="#44a258" d="M 392.5,56.5 C 389.482,56.3354 386.482,56.502 383.5,57C 381.133,58.8448 378.467,60.0114 375.5,60.5C 372.663,58.5977 369.329,57.931 365.5,58.5C 364.833,59.5 364.167,60.5 363.5,61.5C 363.5,59.8333 363.5,58.1667 363.5,56.5C 368.533,56.0184 373.366,56.6851 378,58.5C 382.608,55.4922 387.442,54.8256 392.5,56.5 Z"/></g>
<g><path style="opacity:1" fill="#3aa853" d="M 316.5,58.5 C 312.246,57.3538 307.913,56.6871 303.5,56.5C 300.982,57.5109 300.982,58.8443 303.5,60.5C 303.192,61.3081 302.692,61.9747 302,62.5C 301.082,60.6243 299.582,59.6243 297.5,59.5C 296.127,59.3433 294.793,59.51 293.5,60C 292.211,61.8022 290.544,62.9688 288.5,63.5C 294.344,55.9533 302.01,53.4533 311.5,56C 313.491,56.3736 315.158,57.207 316.5,58.5 Z"/></g>
<g><path style="opacity:1" fill="#31af51" d="M 392.5,56.5 C 394.749,57.0798 396.415,58.4131 397.5,60.5C 397.565,60.9382 397.399,61.2716 397,61.5C 396.292,60.6195 395.458,59.9528 394.5,59.5C 391.667,57.0547 388.667,56.888 385.5,59C 388.028,59.9978 388.028,60.8311 385.5,61.5C 383.923,59.8156 382.257,59.4823 380.5,60.5C 378.9,61.252 377.4,62.252 376,63.5C 375.517,62.552 375.351,61.552 375.5,60.5C 378.467,60.0114 381.133,58.8448 383.5,57C 386.482,56.502 389.482,56.3354 392.5,56.5 Z"/></g>
<g><path style="opacity:1" fill="#30b449" d="M 394.5,59.5 C 394.833,62.1667 395.167,64.8333 395.5,67.5C 395.599,70.2372 395.265,72.9039 394.5,75.5C 392.871,77.0603 391.704,76.727 391,74.5C 390.506,76.1341 390.34,77.8008 390.5,79.5C 391.978,79.238 393.311,79.5713 394.5,80.5C 395.304,83.6255 395.304,86.9589 394.5,90.5C 392.5,90.5 390.5,90.5 388.5,90.5C 387.085,83.4741 387.252,76.4741 389,69.5C 389.667,70.1667 390.333,70.8333 391,71.5C 392.35,68.6284 392.85,65.795 392.5,63C 391.975,62.3076 391.308,61.8076 390.5,61.5C 389.77,62.9337 388.77,64.1004 387.5,65C 388.712,66.1068 388.379,66.6068 386.5,66.5C 386.167,65.8333 385.833,65.1667 385.5,64.5C 383.338,63.8724 381.672,62.539 380.5,60.5C 382.257,59.4823 383.923,59.8156 385.5,61.5C 388.028,60.8311 388.028,59.9978 385.5,59C 388.667,56.888 391.667,57.0547 394.5,59.5 Z"/></g>
<g><path style="opacity:1" fill="#2db44a" d="M 411.5,57.5 C 412.911,59.539 414.911,60.539 417.5,60.5C 417.279,62.6636 416.279,64.3303 414.5,65.5C 413.626,63.31 411.959,62.31 409.5,62.5C 409.5,63.5 409.5,64.5 409.5,65.5C 406.574,64.5392 403.574,63.8726 400.5,63.5C 400.5,65.1667 400.5,66.8333 400.5,68.5C 397.759,70.2997 396.259,72.9664 396,76.5C 395.617,75.944 395.117,75.6107 394.5,75.5C 395.265,72.9039 395.599,70.2372 395.5,67.5C 398.573,66.2673 398.906,64.7673 396.5,63C 398.715,61.9562 401.048,61.2895 403.5,61C 404.743,59.8455 405.743,58.5122 406.5,57C 408.387,56.2204 410.054,56.3871 411.5,57.5 Z"/></g>
<g><path style="opacity:1" fill="#32b24d" d="M 159.5,59.5 C 160.404,60.209 160.737,61.209 160.5,62.5C 159.504,62.4142 158.671,62.7476 158,63.5C 157.501,66.5182 157.668,69.5182 158.5,72.5C 157.818,74.8409 157.151,77.1743 156.5,79.5C 155.527,77.0521 155.194,74.3854 155.5,71.5C 154.385,67.6272 152.052,64.6272 148.5,62.5C 152.589,62.1119 156.256,61.1119 159.5,59.5 Z"/></g>
<g><path style="opacity:1" fill="#31b24d" d="M 210.5,57.5 C 211.833,57.5 213.167,57.5 214.5,57.5C 215.5,58.1667 216.5,58.8333 217.5,59.5C 218.5,60.1667 219.5,60.8333 220.5,61.5C 220.192,65.0091 218.192,66.6757 214.5,66.5C 213.448,64.744 211.781,64.0773 209.5,64.5C 210.36,62.3862 212.027,61.2195 214.5,61C 213.269,59.5952 211.936,58.4286 210.5,57.5 Z"/></g>
<g><path style="opacity:1" fill="#35b150" d="M 270.5,58.5 C 271.68,60.913 273.68,61.913 276.5,61.5C 276.502,63.8309 275.669,65.8309 274,67.5C 273.221,64.9028 272.721,64.9028 272.5,67.5C 271.167,67.5 269.833,67.5 268.5,67.5C 268.5,72.1667 268.5,76.8333 268.5,81.5C 268.5,84.5 268.5,87.5 268.5,90.5C 267.833,82.1667 267.167,73.8333 266.5,65.5C 266.5,64.1667 266.5,62.8333 266.5,61.5C 267.404,60.791 267.737,59.791 267.5,58.5C 268.5,58.5 269.5,58.5 270.5,58.5 Z"/></g>
<g><path style="opacity:1" fill="#2fb54b" d="M 303.5,56.5 C 304.806,57.4674 305.473,58.8007 305.5,60.5C 308.518,60.2962 311.518,59.9629 314.5,59.5C 314.5,61.1667 314.5,62.8333 314.5,64.5C 312.602,63.9035 310.935,63.9035 309.5,64.5C 305.958,64.1872 302.625,64.5206 299.5,65.5C 298.414,65.38 297.747,64.7133 297.5,63.5C 298.432,62.0202 298.432,60.6869 297.5,59.5C 299.582,59.6243 301.082,60.6243 302,62.5C 302.692,61.9747 303.192,61.3081 303.5,60.5C 300.982,58.8443 300.982,57.5109 303.5,56.5 Z"/></g>
<g><path style="opacity:1" fill="#3aa951" d="M 355.5,62.5 C 353.668,61.7515 352.001,60.7515 350.5,59.5C 345.207,55.9336 339.874,55.7669 334.5,59C 340.175,59.4641 340.508,60.1307 335.5,61C 338.146,61.4974 340.813,61.6641 343.5,61.5C 342.909,62.1515 342.243,62.8182 341.5,63.5C 343.784,64.4584 345.784,65.7917 347.5,67.5C 347.741,69.8984 347.074,71.8984 345.5,73.5C 345.82,67.0028 342.82,64.8361 336.5,67C 334.686,69.4815 334.02,72.3148 334.5,75.5C 333.326,74.4863 332.66,73.153 332.5,71.5C 333.511,67.8878 333.678,64.2211 333,60.5C 329.209,59.5525 326.209,60.8859 324,64.5C 323.058,67.3738 321.891,70.0404 320.5,72.5C 320.66,63.668 324.993,58.168 333.5,56C 341.119,54.4508 348.119,55.7841 354.5,60C 355.252,60.6708 355.586,61.5041 355.5,62.5 Z"/></g>
<g><path style="opacity:1" fill="#30b24d" d="M 350.5,59.5 C 348.167,60.1667 345.833,60.8333 343.5,61.5C 340.813,61.6641 338.146,61.4974 335.5,61C 340.508,60.1307 340.175,59.4641 334.5,59C 339.874,55.7669 345.207,55.9336 350.5,59.5 Z"/></g>
<g><path style="opacity:1" fill="#2fb549" d="M 365.5,58.5 C 365.369,59.2389 365.536,59.9056 366,60.5C 368.466,59.2234 370.966,59.2234 373.5,60.5C 372.16,61.6878 371.493,63.1878 371.5,65C 372.86,67.2702 373.527,69.7702 373.5,72.5C 373.901,76.5645 372.901,80.2312 370.5,83.5C 369.808,82.9747 369.308,82.3081 369,81.5C 368.292,82.3805 367.458,83.0472 366.5,83.5C 366.338,81.4727 366.505,79.4727 367,77.5C 367.317,79.3008 367.984,79.6341 369,78.5C 369.496,73.792 369.162,69.1253 368,64.5C 367.329,65.2524 366.496,65.5858 365.5,65.5C 365.167,64.5 364.5,63.8333 363.5,63.5C 363.5,62.8333 363.5,62.1667 363.5,61.5C 364.167,60.5 364.833,59.5 365.5,58.5 Z"/></g>
<g><path style="opacity:1" fill="#37ac51" d="M 418.5,59.5 C 416.167,58.8333 413.833,58.1667 411.5,57.5C 410.054,56.3871 408.387,56.2204 406.5,57C 405.743,58.5122 404.743,59.8455 403.5,61C 401.048,61.2895 398.715,61.9562 396.5,63C 398.906,64.7673 398.573,66.2673 395.5,67.5C 395.167,64.8333 394.833,62.1667 394.5,59.5C 395.458,59.9528 396.292,60.6195 397,61.5C 397.399,61.2716 397.565,60.9382 397.5,60.5C 402.257,55.8797 407.924,54.3797 414.5,56C 416.324,56.66 417.657,57.8267 418.5,59.5 Z"/></g>
<g><path style="opacity:1" fill="#2fb44b" d="M 146.5,58.5 C 147.396,59.5063 148.062,59.5063 148.5,58.5C 152.371,58.185 156.038,58.5184 159.5,59.5C 156.256,61.1119 152.589,62.1119 148.5,62.5C 152.052,64.6272 154.385,67.6272 155.5,71.5C 154.849,70.9094 154.182,70.2427 153.5,69.5C 152.682,72.1071 152.182,74.7737 152,77.5C 151.26,79.3187 150.093,80.6521 148.5,81.5C 148.571,78.6887 149.238,76.022 150.5,73.5C 148.28,70.2153 147.113,66.5487 147,62.5C 146.667,62.1667 146.333,61.8333 146,61.5C 144.915,62.2931 143.748,62.9598 142.5,63.5C 140.997,62.9478 139.331,62.9478 137.5,63.5C 137.5,64.8333 137.5,66.1667 137.5,67.5C 135.574,68.2423 133.741,69.2423 132,70.5C 131.5,70 131,69.5 130.5,69C 131.833,68.3333 132.833,67.3333 133.5,66C 132.266,63.9279 130.599,62.4279 128.5,61.5C 131.347,60.2899 134.181,60.6232 137,62.5C 137.494,60.8659 137.66,59.1992 137.5,57.5C 140.545,57.5079 143.545,57.8413 146.5,58.5 Z"/></g>
<g><path style="opacity:1" fill="#36ad50" d="M 220.5,61.5 C 222.415,61.2155 224.081,61.5489 225.5,62.5C 224.533,63.8062 223.199,64.4729 221.5,64.5C 220.145,69.5308 219.145,74.5308 218.5,79.5C 217.778,80.5511 216.778,81.2178 215.5,81.5C 218.457,76.2241 218.124,71.2241 214.5,66.5C 218.192,66.6757 220.192,65.0091 220.5,61.5 Z"/></g>
<g><path style="opacity:1" fill="#2fb349" d="M 263.5,65.5 C 259.154,65.3343 254.821,65.501 250.5,66C 249.131,67.7189 248.131,69.5522 247.5,71.5C 246.209,71.7373 245.209,71.404 244.5,70.5C 245.199,68.0052 246.199,65.6719 247.5,63.5C 248.117,63.6107 248.617,63.944 249,64.5C 252.337,61.8292 255.67,59.1625 259,56.5C 260.226,56.6448 261.393,56.9781 262.5,57.5C 263.48,60.0865 263.813,62.7531 263.5,65.5 Z"/></g>
<g><path style="opacity:1" fill="#30b44c" d="M 225.5,62.5 C 227.433,68.9418 226.766,74.9418 223.5,80.5C 221.955,81.4519 220.288,81.7852 218.5,81.5C 218.5,80.8333 218.5,80.1667 218.5,79.5C 219.145,74.5308 220.145,69.5308 221.5,64.5C 223.199,64.4729 224.533,63.8062 225.5,62.5 Z"/></g>
<g><path style="opacity:1" fill="#2eb54b" d="M 247.5,63.5 C 246.199,65.6719 245.199,68.0052 244.5,70.5C 243.596,71.209 243.263,72.209 243.5,73.5C 241.416,71.4236 239.749,69.0903 238.5,66.5C 238.5,65.8333 238.5,65.1667 238.5,64.5C 239.15,64.1961 239.817,63.8627 240.5,63.5C 242.62,68.5224 243.454,68.5224 243,63.5C 242.1,62.2298 240.934,61.2298 239.5,60.5C 241.743,59.5258 244.076,59.1924 246.5,59.5C 246.232,61.099 246.566,62.4324 247.5,63.5 Z"/></g>
<g><path style="opacity:1" fill="#34af4e" d="M 264.5,66.5 C 264.167,66.5 263.833,66.5 263.5,66.5C 263.5,66.1667 263.5,65.8333 263.5,65.5C 263.813,62.7531 263.48,60.0865 262.5,57.5C 261.393,56.9781 260.226,56.6448 259,56.5C 255.67,59.1625 252.337,61.8292 249,64.5C 248.617,63.944 248.117,63.6107 247.5,63.5C 246.566,62.4324 246.232,61.099 246.5,59.5C 244.076,59.1924 241.743,59.5258 239.5,60.5C 240.934,61.2298 242.1,62.2298 243,63.5C 243.454,68.5224 242.62,68.5224 240.5,63.5C 239.817,63.8627 239.15,64.1961 238.5,64.5C 238.5,62.5 238.5,60.5 238.5,58.5C 241.5,58.5 244.5,58.5 247.5,58.5C 248.167,58.8333 248.833,59.1667 249.5,59.5C 251.595,58.588 253.595,57.4213 255.5,56C 258.167,55.3333 260.833,55.3333 263.5,56C 264.456,59.3936 264.789,62.8936 264.5,66.5 Z"/></g>
<g><path style="opacity:1" fill="#32b04a" d="M 303.5,56.5 C 307.913,56.6871 312.246,57.3538 316.5,58.5C 316.768,61.1194 316.435,63.6194 315.5,66C 313.119,66.7385 311.119,66.2385 309.5,64.5C 310.935,63.9035 312.602,63.9035 314.5,64.5C 314.5,62.8333 314.5,61.1667 314.5,59.5C 311.518,59.9629 308.518,60.2962 305.5,60.5C 305.473,58.8007 304.806,57.4674 303.5,56.5 Z"/></g>
<g><path style="opacity:1" fill="#33ae4d" d="M 414.5,65.5 C 415.562,70.1466 414.729,70.4799 412,66.5C 410.665,67.0795 409.498,67.4128 408.5,67.5C 408.167,67.5 407.833,67.5 407.5,67.5C 405.03,66.1221 402.696,66.4554 400.5,68.5C 400.5,66.8333 400.5,65.1667 400.5,63.5C 403.574,63.8726 406.574,64.5392 409.5,65.5C 409.5,64.5 409.5,63.5 409.5,62.5C 411.959,62.31 413.626,63.31 414.5,65.5 Z"/></g>
<g><path style="opacity:1" fill="#31b34c" d="M 217.5,57.5 C 221.5,57.5 225.5,57.5 229.5,57.5C 229.5,68.5 229.5,79.5 229.5,90.5C 226.167,90.5 222.833,90.5 219.5,90.5C 218.21,89.0652 216.544,88.0652 214.5,87.5C 216.229,86.4032 217.896,85.2365 219.5,84C 218.748,83.3292 218.414,82.4959 218.5,81.5C 220.288,81.7852 221.955,81.4519 223.5,80.5C 226.766,74.9418 227.433,68.9418 225.5,62.5C 224.081,61.5489 222.415,61.2155 220.5,61.5C 219.5,60.8333 218.5,60.1667 217.5,59.5C 217.5,58.8333 217.5,58.1667 217.5,57.5 Z"/></g>
<g><path style="opacity:1" fill="#30b34b" d="M 297.5,59.5 C 298.432,60.6869 298.432,62.0202 297.5,63.5C 297.747,64.7133 298.414,65.38 299.5,65.5C 299.179,67.0481 298.179,67.7148 296.5,67.5C 296.5,69.1667 296.5,70.8333 296.5,72.5C 293.783,73.129 292.45,71.7957 292.5,68.5C 291.209,68.2627 290.209,68.596 289.5,69.5C 288.539,67.7354 288.205,65.7354 288.5,63.5C 290.544,62.9688 292.211,61.8022 293.5,60C 294.793,59.51 296.127,59.3433 297.5,59.5 Z"/></g>
<g><path style="opacity:1" fill="#30b44e" d="M 365.5,58.5 C 369.329,57.931 372.663,58.5977 375.5,60.5C 375.351,61.552 375.517,62.552 376,63.5C 377.4,62.252 378.9,61.252 380.5,60.5C 381.672,62.539 383.338,63.8724 385.5,64.5C 383.473,64.3379 381.473,64.5045 379.5,65C 378.177,65.8159 377.511,66.9826 377.5,68.5C 376,69.6252 374.667,70.9586 373.5,72.5C 373.527,69.7702 372.86,67.2702 371.5,65C 371.493,63.1878 372.16,61.6878 373.5,60.5C 370.966,59.2234 368.466,59.2234 366,60.5C 365.536,59.9056 365.369,59.2389 365.5,58.5 Z"/></g>
<g><path style="opacity:1" fill="#30b449" d="M 210.5,57.5 C 211.936,58.4286 213.269,59.5952 214.5,61C 212.027,61.2195 210.36,62.3862 209.5,64.5C 205.326,66.829 203.16,70.4957 203,75.5C 201.519,74.5291 200.685,73.1958 200.5,71.5C 200.549,68.9009 201.549,66.7342 203.5,65C 202.892,64.1301 202.059,63.6301 201,63.5C 199.75,65.7058 197.916,67.0391 195.5,67.5C 197.514,61.9282 201.514,58.2615 207.5,56.5C 208.726,56.5195 209.726,56.8529 210.5,57.5 Z"/></g>
<g><path style="opacity:1" fill="#30b24b" d="M 270.5,58.5 C 273.5,58.5 276.5,58.5 279.5,58.5C 279.828,69.0135 279.494,79.3468 278.5,89.5C 275.375,90.4794 272.042,90.8128 268.5,90.5C 268.5,87.5 268.5,84.5 268.5,81.5C 273.395,83.2219 274.395,81.5552 271.5,76.5C 272.407,73.5788 272.74,70.5788 272.5,67.5C 272.721,64.9028 273.221,64.9028 274,67.5C 275.669,65.8309 276.502,63.8309 276.5,61.5C 273.68,61.913 271.68,60.913 270.5,58.5 Z"/></g>
<g><path style="opacity:1" fill="#31b34a" d="M 332.5,71.5 C 330.397,72.98 330.397,74.1466 332.5,75C 331.584,75.2784 330.918,75.7784 330.5,76.5C 329.305,76.6775 328.138,77.0109 327,77.5C 326.747,76.4655 325.914,75.4655 324.5,74.5C 323.817,74.8627 323.15,75.1961 322.5,75.5C 322.158,74.6618 321.492,74.3284 320.5,74.5C 319.494,74.0623 319.494,73.3957 320.5,72.5C 321.891,70.0404 323.058,67.3738 324,64.5C 326.209,60.8859 329.209,59.5525 333,60.5C 333.678,64.2211 333.511,67.8878 332.5,71.5 Z"/></g>
<g><path style="opacity:1" fill="#36b14e" d="M 350.5,59.5 C 352.001,60.7515 353.668,61.7515 355.5,62.5C 358.871,65.5104 360.205,69.3437 359.5,74C 360.205,78.6563 358.871,82.4896 355.5,85.5C 355.5,83.5 355.5,81.5 355.5,79.5C 356.5,79.5 357.5,79.5 358.5,79.5C 358.5,76.1667 358.5,72.8333 358.5,69.5C 356.219,69.0773 354.552,69.744 353.5,71.5C 352.25,71.5774 351.417,72.244 351,73.5C 349.224,70.4444 349.057,67.2778 350.5,64C 349.552,63.5172 348.552,63.3505 347.5,63.5C 347.5,64.8333 347.5,66.1667 347.5,67.5C 345.784,65.7917 343.784,64.4584 341.5,63.5C 342.243,62.8182 342.909,62.1515 343.5,61.5C 345.833,60.8333 348.167,60.1667 350.5,59.5 Z"/></g>
<g><path style="opacity:1" fill="#dd1d24" d="M 28.5,71.5 C 28.0679,72.7095 27.4013,73.7095 26.5,74.5C 25.004,65.8552 21.6706,65.1885 16.5,72.5C 14.5,74.1667 12.5,75.8333 10.5,77.5C 12.2199,74.2689 14.5532,71.4356 17.5,69C 22.0473,65.2386 26.7139,61.7386 31.5,58.5C 32.8221,58.67 33.9887,58.3366 35,57.5C 34.8475,59.5185 34.3475,61.5185 33.5,63.5C 32.0222,63.238 30.6888,63.5713 29.5,64.5C 30.5896,65.6086 30.5896,66.6086 29.5,67.5C 28.0353,66.3913 27.0353,66.8913 26.5,69C 27.756,69.4169 28.4226,70.2502 28.5,71.5 Z"/></g>
<g><path style="opacity:1" fill="#32b34d" d="M 109.5,66.5 C 107.088,66.6941 106.088,68.0274 106.5,70.5C 109.695,70.5131 111.362,72.1798 111.5,75.5C 110.421,77.5798 108.755,78.9132 106.5,79.5C 106.5,78.1667 106.5,76.8333 106.5,75.5C 107.239,75.631 107.906,75.4643 108.5,75C 106.261,74.1204 104.595,72.6204 103.5,70.5C 101.604,69.5344 99.604,69.2011 97.5,69.5C 97.5,68.1667 97.5,66.8333 97.5,65.5C 98.2613,66.3909 99.2613,67.0576 100.5,67.5C 100.991,66.0465 102.325,65.0465 104.5,64.5C 106.557,64.4357 108.223,65.1024 109.5,66.5 Z"/></g>
<g><path style="opacity:1" fill="#34b04d" d="M 128.5,61.5 C 130.599,62.4279 132.266,63.9279 133.5,66C 132.833,67.3333 131.833,68.3333 130.5,69C 131,69.5 131.5,70 132,70.5C 133.741,69.2423 135.574,68.2423 137.5,67.5C 134.842,71.8014 134.842,76.1347 137.5,80.5C 137.957,81.2975 138.624,81.6309 139.5,81.5C 139.5,81.8333 139.5,82.1667 139.5,82.5C 137.435,82.5172 135.435,82.8505 133.5,83.5C 131.833,83.5 130.167,83.5 128.5,83.5C 129.911,81.461 131.911,80.461 134.5,80.5C 134.975,77.6874 133.975,75.6874 131.5,74.5C 130.458,73.2089 129.292,73.2089 128,74.5C 128.111,72.517 128.611,70.517 129.5,68.5C 129.714,66.0582 128.714,64.3915 126.5,63.5C 127.167,62.8333 127.833,62.1667 128.5,61.5 Z"/></g>
<g><path style="opacity:1" fill="#31b14d" d="M 394.5,90.5 C 395.833,90.5 397.167,90.5 398.5,90.5C 398.216,88.5853 398.549,86.9187 399.5,85.5C 399.5,87.5 399.5,89.5 399.5,91.5C 395.5,91.5 391.5,91.5 387.5,91.5C 386.712,83.1912 386.379,74.8578 386.5,66.5C 388.379,66.6068 388.712,66.1068 387.5,65C 388.77,64.1004 389.77,62.9337 390.5,61.5C 391.308,61.8076 391.975,62.3076 392.5,63C 392.85,65.795 392.35,68.6284 391,71.5C 390.333,70.8333 389.667,70.1667 389,69.5C 387.252,76.4741 387.085,83.4741 388.5,90.5C 390.5,90.5 392.5,90.5 394.5,90.5 Z"/></g>
<g><path style="opacity:1" fill="#38a952" d="M 316.5,58.5 C 317.756,58.4614 318.756,58.9614 319.5,60C 318.266,63.2001 316.933,66.3668 315.5,69.5C 310.643,66.0982 305.643,65.7648 300.5,68.5C 297.626,74.5312 298.959,79.1979 304.5,82.5C 303.127,82.6567 301.793,82.49 300.5,82C 299.845,80.5134 298.845,79.3467 297.5,78.5C 296.534,76.604 296.201,74.604 296.5,72.5C 296.5,70.8333 296.5,69.1667 296.5,67.5C 298.179,67.7148 299.179,67.0481 299.5,65.5C 302.625,64.5206 305.958,64.1872 309.5,64.5C 311.119,66.2385 313.119,66.7385 315.5,66C 316.435,63.6194 316.768,61.1194 316.5,58.5 Z"/></g>
<g><path style="opacity:1" fill="#479c59" d="M 217.5,57.5 C 221.634,56.5151 225.968,56.1818 230.5,56.5C 230.5,68.5 230.5,80.5 230.5,92.5C 225.706,93.0969 221.373,92.4302 217.5,90.5C 218.167,90.5 218.833,90.5 219.5,90.5C 222.833,90.5 226.167,90.5 229.5,90.5C 229.5,79.5 229.5,68.5 229.5,57.5C 225.5,57.5 221.5,57.5 217.5,57.5 Z"/></g>
<g><path style="opacity:0.51" fill="#509b5d" d="M 363.5,63.5 C 364.5,63.8333 365.167,64.5 365.5,65.5C 365.174,74.0168 365.507,82.3501 366.5,90.5C 369.962,91.4816 373.629,91.815 377.5,91.5C 373.366,92.4849 369.032,92.8182 364.5,92.5C 364.782,82.7807 364.449,73.1141 363.5,63.5 Z"/></g>
<g><path style="opacity:0.059" fill="#539962" d="M 249.5,59.5 C 248.833,59.1667 248.167,58.8333 247.5,58.5C 244.375,57.5206 241.042,57.1872 237.5,57.5C 237.5,68.8333 237.5,80.1667 237.5,91.5C 236.505,80.012 236.172,68.3453 236.5,56.5C 240.833,56.5 245.167,56.5 249.5,56.5C 249.5,57.5 249.5,58.5 249.5,59.5 Z"/></g>
<g><path style="opacity:1" fill="#30b44a" d="M 411.5,57.5 C 413.833,58.1667 416.167,58.8333 418.5,59.5C 417.366,70.1093 417.366,79.7759 418.5,88.5C 416.602,89.1268 414.269,89.4602 411.5,89.5C 411.231,87.5714 411.731,85.9047 413,84.5C 414.668,87.21 415.501,87.0433 415.5,84C 415.085,80.8943 414.085,80.7276 412.5,83.5C 411.522,83.0233 410.689,82.3567 410,81.5C 409.284,78.5818 409.784,75.9151 411.5,73.5C 411.246,71.5828 410.246,70.2495 408.5,69.5C 408.5,68.8333 408.5,68.1667 408.5,67.5C 409.498,67.4128 410.665,67.0795 412,66.5C 414.729,70.4799 415.562,70.1466 414.5,65.5C 416.279,64.3303 417.279,62.6636 417.5,60.5C 414.911,60.539 412.911,59.539 411.5,57.5 Z"/></g>
<g><path style="opacity:1" fill="#2fb54a" d="M 109.5,66.5 C 110.833,66.8333 112.167,67.1667 113.5,67.5C 114.492,67.3284 115.158,67.6618 115.5,68.5C 114.761,68.369 114.094,68.5357 113.5,69C 114.894,69.956 115.561,71.2894 115.5,73C 114.09,76.1048 112.423,78.9381 110.5,81.5C 108.517,81.8432 107.183,81.1765 106.5,79.5C 108.755,78.9132 110.421,77.5798 111.5,75.5C 111.362,72.1798 109.695,70.5131 106.5,70.5C 106.088,68.0274 107.088,66.6941 109.5,66.5 Z"/></g>
<g><path style="opacity:1" fill="#37aa53" d="M 148.5,81.5 C 147.29,81.9321 146.29,82.5987 145.5,83.5C 143.265,83.7947 141.265,83.4614 139.5,82.5C 139.5,82.1667 139.5,81.8333 139.5,81.5C 141.544,82.7784 143.544,82.6117 145.5,81C 149.5,76.3333 149.5,71.6667 145.5,67C 142.739,66.2782 140.073,66.4448 137.5,67.5C 137.5,66.1667 137.5,64.8333 137.5,63.5C 139.331,62.9478 140.997,62.9478 142.5,63.5C 143.748,62.9598 144.915,62.2931 146,61.5C 146.333,61.8333 146.667,62.1667 147,62.5C 147.113,66.5487 148.28,70.2153 150.5,73.5C 149.238,76.022 148.571,78.6887 148.5,81.5 Z"/></g>
<g><path style="opacity:1" fill="#33af50" d="M 214.5,57.5 C 213.167,57.5 211.833,57.5 210.5,57.5C 209.726,56.8529 208.726,56.5195 207.5,56.5C 201.514,58.2615 197.514,61.9282 195.5,67.5C 197.916,67.0391 199.75,65.7058 201,63.5C 202.059,63.6301 202.892,64.1301 203.5,65C 201.549,66.7342 200.549,68.9009 200.5,71.5C 201.009,73.9295 200.342,76.2628 198.5,78.5C 196.562,75.1636 195.062,71.4969 194,67.5C 193.722,68.4158 193.222,69.0825 192.5,69.5C 193.628,60.7055 198.628,56.0388 207.5,55.5C 210.205,55.3161 212.538,55.9827 214.5,57.5 Z"/></g>
<g><path style="opacity:1" fill="#30b44a" d="M 296.5,72.5 C 296.201,74.604 296.534,76.604 297.5,78.5C 298.845,79.3467 299.845,80.5134 300.5,82C 301.793,82.49 303.127,82.6567 304.5,82.5C 304.5,83.1667 304.833,83.5 305.5,83.5C 305.631,84.2389 305.464,84.9056 305,85.5C 302.537,86.0322 300.703,87.3655 299.5,89.5C 296.058,90.1717 293.391,89.1717 291.5,86.5C 291.369,85.7611 291.536,85.0944 292,84.5C 294.237,85.0563 296.237,86.0563 298,87.5C 298.353,84.2217 296.853,82.555 293.5,82.5C 293.33,81.1779 293.663,80.0113 294.5,79C 290.81,76.8307 289.143,73.664 289.5,69.5C 290.209,68.596 291.209,68.2627 292.5,68.5C 292.45,71.7957 293.783,73.129 296.5,72.5 Z"/></g>
<g><path style="opacity:1" fill="#ee1921" d="M 26.5,74.5 C 24.9519,74.8212 24.2852,75.8212 24.5,77.5C 23.5,76.8333 22.5,76.1667 21.5,75.5C 19.4687,75.0276 17.8021,74.0276 16.5,72.5C 21.6706,65.1885 25.004,65.8552 26.5,74.5 Z"/></g>
<g><path style="opacity:0.149" fill="#3ca752" d="M 170.5,48.5 C 170.5,55.5 170.5,62.5 170.5,69.5C 170.5,70.8333 170.5,72.1667 170.5,73.5C 170.5,79.1667 170.5,84.8333 170.5,90.5C 174.607,91.1504 178.107,90.1504 181,87.5C 181.818,81.6513 181.652,75.9846 180.5,70.5C 180.366,68.7085 180.699,67.0418 181.5,65.5C 182.833,65.5 184.167,65.5 185.5,65.5C 186.748,64.6661 187.415,63.3328 187.5,61.5C 187.276,59.5453 186.609,57.8787 185.5,56.5C 186.5,56.5 187.5,56.5 188.5,56.5C 188.5,59.8333 188.5,63.1667 188.5,66.5C 186.5,66.5 184.5,66.5 182.5,66.5C 182.5,73.8333 182.5,81.1667 182.5,88.5C 181.596,89.209 181.263,90.209 181.5,91.5C 177.5,91.5 173.5,91.5 169.5,91.5C 169.5,77.8333 169.5,64.1667 169.5,50.5C 169.328,49.5084 169.662,48.8417 170.5,48.5 Z"/></g>
<g><path style="opacity:0.814" fill="#41a757" d="M 247.5,58.5 C 244.5,58.5 241.5,58.5 238.5,58.5C 238.5,60.5 238.5,62.5 238.5,64.5C 238.5,65.1667 238.5,65.8333 238.5,66.5C 238.5,72.8333 238.5,79.1667 238.5,85.5C 238.286,87.1439 238.62,88.6439 239.5,90C 242.482,90.498 245.482,90.6646 248.5,90.5C 248.5,86.8333 248.5,83.1667 248.5,79.5C 248.031,75.0896 249.031,71.0896 251.5,67.5C 255.445,66.5091 259.445,66.1758 263.5,66.5C 263.833,66.5 264.167,66.5 264.5,66.5C 264.53,67.4972 264.03,68.1639 263,68.5C 257.607,66.2001 253.607,67.5335 251,72.5C 250.5,79.1583 250.334,85.825 250.5,92.5C 245.968,92.8182 241.634,92.4849 237.5,91.5C 237.5,80.1667 237.5,68.8333 237.5,57.5C 241.042,57.1872 244.375,57.5206 247.5,58.5 Z"/></g>
<g><path style="opacity:1" fill="#30b24d" d="M 263.5,65.5 C 263.5,65.8333 263.5,66.1667 263.5,66.5C 259.445,66.1758 255.445,66.5091 251.5,67.5C 249.031,71.0896 248.031,75.0896 248.5,79.5C 246.916,81.5286 245.583,83.8619 244.5,86.5C 242.591,85.6518 240.591,85.3184 238.5,85.5C 238.5,79.1667 238.5,72.8333 238.5,66.5C 239.749,69.0903 241.416,71.4236 243.5,73.5C 241.841,74.8342 240.508,76.5008 239.5,78.5C 239.968,80.1338 240.968,81.3005 242.5,82C 241.289,82.8928 241.289,83.7261 242.5,84.5C 243.309,81.3724 244.809,78.7057 247,76.5C 247.494,74.8659 247.66,73.1992 247.5,71.5C 248.131,69.5522 249.131,67.7189 250.5,66C 254.821,65.501 259.154,65.3343 263.5,65.5 Z"/></g>
<g><path style="opacity:1" fill="#35b04f" d="M 288.5,63.5 C 288.205,65.7354 288.539,67.7354 289.5,69.5C 289.143,73.664 290.81,76.8307 294.5,79C 293.663,80.0113 293.33,81.1779 293.5,82.5C 296.853,82.555 298.353,84.2217 298,87.5C 296.237,86.0563 294.237,85.0563 292,84.5C 291.536,85.0944 291.369,85.7611 291.5,86.5C 290.609,85.8902 289.609,85.5569 288.5,85.5C 283.167,78.1667 283.167,70.8333 288.5,63.5 Z"/></g>
<g><path style="opacity:1" fill="#30b34d" d="M 353.5,71.5 C 353.466,75.6295 352.799,79.6295 351.5,83.5C 350.167,83.5 348.833,83.5 347.5,83.5C 347.611,82.8826 347.944,82.3826 348.5,82C 346.98,79.6656 345.98,77.1656 345.5,74.5C 345.5,74.1667 345.5,73.8333 345.5,73.5C 347.074,71.8984 347.741,69.8984 347.5,67.5C 347.5,66.1667 347.5,64.8333 347.5,63.5C 348.552,63.3505 349.552,63.5172 350.5,64C 349.057,67.2778 349.224,70.4444 351,73.5C 351.417,72.244 352.25,71.5774 353.5,71.5 Z"/></g>
<g><path style="opacity:1" fill="#2fb448" d="M 355.5,85.5 C 354.735,85.0766 353.902,84.7432 353,84.5C 352.894,85.7939 351.894,86.4606 350,86.5C 346.65,86.0542 343.483,85.3875 340.5,84.5C 342.717,83.6314 345.05,83.298 347.5,83.5C 348.833,83.5 350.167,83.5 351.5,83.5C 352.799,79.6295 353.466,75.6295 353.5,71.5C 354.552,69.744 356.219,69.0773 358.5,69.5C 358.5,72.8333 358.5,76.1667 358.5,79.5C 357.5,79.5 356.5,79.5 355.5,79.5C 355.5,81.5 355.5,83.5 355.5,85.5 Z"/></g>
<g><path style="opacity:1" fill="#2eb44c" d="M 181.5,65.5 C 180.699,67.0418 180.366,68.7085 180.5,70.5C 180.66,72.1992 180.494,73.8659 180,75.5C 177.471,72.5906 174.305,71.9239 170.5,73.5C 170.5,72.1667 170.5,70.8333 170.5,69.5C 171.163,67.9581 171.83,66.2914 172.5,64.5C 173.417,65.1272 174.417,65.4606 175.5,65.5C 175.709,66.9217 176.209,68.255 177,69.5C 177.192,67.4233 177.692,65.4233 178.5,63.5C 179.518,64.1925 180.518,64.8592 181.5,65.5 Z"/></g>
<g><path style="opacity:1" fill="#31b24c" d="M 126.5,63.5 C 128.714,64.3915 129.714,66.0582 129.5,68.5C 128.611,70.517 128.111,72.517 128,74.5C 129.292,73.2089 130.458,73.2089 131.5,74.5C 129.186,75.1787 128.853,76.512 130.5,78.5C 128.218,79.9004 126.718,79.2337 126,76.5C 124.961,77.2438 124.461,78.2438 124.5,79.5C 123.515,75.3656 123.182,71.0323 123.5,66.5C 123.328,65.5084 123.662,64.8417 124.5,64.5C 125.167,64.1667 125.833,63.8333 126.5,63.5 Z"/></g>
<g><path style="opacity:1" fill="#30b04f" d="M 366.5,83.5 C 366.5,85.8333 366.5,88.1667 366.5,90.5C 365.507,82.3501 365.174,74.0168 365.5,65.5C 366.496,65.5858 367.329,65.2524 368,64.5C 369.162,69.1253 369.496,73.792 369,78.5C 367.984,79.6341 367.317,79.3008 367,77.5C 366.505,79.4727 366.338,81.4727 366.5,83.5 Z"/></g>
<g><path style="opacity:1" fill="#30b449" d="M 244.5,70.5 C 245.209,71.404 246.209,71.7373 247.5,71.5C 247.66,73.1992 247.494,74.8659 247,76.5C 244.809,78.7057 243.309,81.3724 242.5,84.5C 241.289,83.7261 241.289,82.8928 242.5,82C 240.968,81.3005 239.968,80.1338 239.5,78.5C 240.508,76.5008 241.841,74.8342 243.5,73.5C 243.263,72.209 243.596,71.209 244.5,70.5 Z"/></g>
<g><path style="opacity:0.012" fill="#4ba255" d="M 385.5,64.5 C 385.833,65.1667 386.167,65.8333 386.5,66.5C 386.379,74.8578 386.712,83.1912 387.5,91.5C 391.5,91.5 395.5,91.5 399.5,91.5C 395.1,92.8229 390.6,92.8229 386,91.5C 385.5,83.1733 385.334,74.84 385.5,66.5C 381.693,65.7741 379.026,67.1074 377.5,70.5C 377.5,69.8333 377.5,69.1667 377.5,68.5C 377.511,66.9826 378.177,65.8159 379.5,65C 381.473,64.5045 383.473,64.3379 385.5,64.5 Z"/></g>
<g><path style="opacity:0.592" fill="#4c9a5d" d="M 169.5,50.5 C 169.5,64.1667 169.5,77.8333 169.5,91.5C 173.5,91.5 177.5,91.5 181.5,91.5C 181.263,90.209 181.596,89.209 182.5,88.5C 182.5,89.8333 182.5,91.1667 182.5,92.5C 177.833,92.5 173.167,92.5 168.5,92.5C 168.171,78.3234 168.504,64.3234 169.5,50.5 Z"/></g>
<g><path style="opacity:1" fill="#31b24a" d="M 198.5,78.5 C 200.828,79.7356 201.994,81.7356 202,84.5C 203.011,85.3366 204.178,85.67 205.5,85.5C 205.343,84.1266 205.51,82.7932 206,81.5C 207.011,82.3366 208.178,82.67 209.5,82.5C 209.804,83.1499 210.137,83.8165 210.5,84.5C 207.215,84.6981 205.548,86.3648 205.5,89.5C 203.167,89.5 200.833,89.5 198.5,89.5C 192.171,84.1917 190.171,77.5251 192.5,69.5C 193.222,69.0825 193.722,68.4158 194,67.5C 195.062,71.4969 196.562,75.1636 198.5,78.5 Z"/></g>
<g><path style="opacity:1" fill="#ea1a22" d="M 16.5,72.5 C 17.8021,74.0276 19.4687,75.0276 21.5,75.5C 20.3748,76.9999 19.0414,78.3332 17.5,79.5C 16.5178,80.1408 15.5178,80.8075 14.5,81.5C 12.8902,79.0021 10.8902,78.3354 8.5,79.5C 8.83333,78.5 9.5,77.8333 10.5,77.5C 12.5,75.8333 14.5,74.1667 16.5,72.5 Z"/></g>
<g><path style="opacity:1" fill="#31ac4d" d="M 209.5,64.5 C 211.781,64.0773 213.448,64.744 214.5,66.5C 205.781,66.7341 202.948,71.0675 206,79.5C 207.145,80.6364 208.312,81.6364 209.5,82.5C 208.178,82.67 207.011,82.3366 206,81.5C 205.51,82.7932 205.343,84.1266 205.5,85.5C 204.178,85.67 203.011,85.3366 202,84.5C 201.994,81.7356 200.828,79.7356 198.5,78.5C 200.342,76.2628 201.009,73.9295 200.5,71.5C 200.685,73.1958 201.519,74.5291 203,75.5C 203.16,70.4957 205.326,66.829 209.5,64.5 Z"/></g>
<g><path style="opacity:0.043" fill="#47a359" d="M 407.5,67.5 C 407.833,67.5 408.167,67.5 408.5,67.5C 408.5,68.1667 408.5,68.8333 408.5,69.5C 408.5,74.5 408.5,79.5 408.5,84.5C 408.5,86.5 408.5,88.5 408.5,90.5C 412.833,90.5 417.167,90.5 421.5,90.5C 421.5,91.1667 421.5,91.8333 421.5,92.5C 416.833,92.5 412.167,92.5 407.5,92.5C 407.5,84.1667 407.5,75.8333 407.5,67.5 Z"/></g>
<g><path style="opacity:1" fill="#33b34d" d="M 377.5,68.5 C 377.5,69.1667 377.5,69.8333 377.5,70.5C 377.5,77.5 377.5,84.5 377.5,91.5C 373.629,91.815 369.962,91.4816 366.5,90.5C 366.5,88.1667 366.5,85.8333 366.5,83.5C 367.458,83.0472 368.292,82.3805 369,81.5C 369.308,82.3081 369.808,82.9747 370.5,83.5C 372.901,80.2312 373.901,76.5645 373.5,72.5C 374.667,70.9586 376,69.6252 377.5,68.5 Z"/></g>
<g><path style="opacity:1" fill="#3caa52" d="M 115.5,68.5 C 121.281,82.9078 116.281,90.9078 100.5,92.5C 99.5084,92.6716 98.8417,92.3382 98.5,91.5C 101.929,91.2306 104.929,90.2306 107.5,88.5C 112.611,88.2239 115.111,85.5572 115,80.5C 114.329,81.2524 113.496,81.5858 112.5,81.5C 111.833,81.5 111.167,81.5 110.5,81.5C 112.423,78.9381 114.09,76.1048 115.5,73C 115.561,71.2894 114.894,69.956 113.5,69C 114.094,68.5357 114.761,68.369 115.5,68.5 Z"/></g>
<g><path style="opacity:1" fill="#2eb44c" d="M 131.5,74.5 C 133.975,75.6874 134.975,77.6874 134.5,80.5C 131.911,80.461 129.911,81.461 128.5,83.5C 127.348,82.375 126.348,82.375 125.5,83.5C 124.566,82.4324 124.232,81.099 124.5,79.5C 124.461,78.2438 124.961,77.2438 126,76.5C 126.718,79.2337 128.218,79.9004 130.5,78.5C 128.853,76.512 129.186,75.1787 131.5,74.5 Z"/></g>
<g><path style="opacity:1" fill="#30b548" d="M 155.5,71.5 C 155.194,74.3854 155.527,77.0521 156.5,79.5C 153.688,83.7234 155.021,85.3901 160.5,84.5C 160.5,85.8333 160.5,87.1667 160.5,88.5C 156.012,86.9559 151.679,85.9559 147.5,85.5C 145.143,85.6633 142.81,85.4966 140.5,85C 142.382,84.8019 144.048,84.3019 145.5,83.5C 146.29,82.5987 147.29,81.9321 148.5,81.5C 150.093,80.6521 151.26,79.3187 152,77.5C 152.182,74.7737 152.682,72.1071 153.5,69.5C 154.182,70.2427 154.849,70.9094 155.5,71.5 Z"/></g>
<g><path style="opacity:1" fill="#2fb24b" d="M 160.5,62.5 C 160.5,69.8333 160.5,77.1667 160.5,84.5C 155.021,85.3901 153.688,83.7234 156.5,79.5C 157.151,77.1743 157.818,74.8409 158.5,72.5C 157.668,69.5182 157.501,66.5182 158,63.5C 158.671,62.7476 159.504,62.4142 160.5,62.5 Z"/></g>
<g><path style="opacity:1" fill="#31b34c" d="M 180.5,70.5 C 181.652,75.9846 181.818,81.6513 181,87.5C 178.107,90.1504 174.607,91.1504 170.5,90.5C 170.5,84.8333 170.5,79.1667 170.5,73.5C 174.305,71.9239 177.471,72.5906 180,75.5C 180.494,73.8659 180.66,72.1992 180.5,70.5 Z"/></g>
<g><path style="opacity:1" fill="#34b44d" d="M 400.5,68.5 C 399.593,74.1064 399.26,79.773 399.5,85.5C 398.549,86.9187 398.216,88.5853 398.5,90.5C 397.167,90.5 395.833,90.5 394.5,90.5C 395.304,86.9589 395.304,83.6255 394.5,80.5C 393.311,79.5713 391.978,79.238 390.5,79.5C 390.34,77.8008 390.506,76.1341 391,74.5C 391.704,76.727 392.871,77.0603 394.5,75.5C 395.117,75.6107 395.617,75.944 396,76.5C 396.259,72.9664 397.759,70.2997 400.5,68.5 Z"/></g>
<g><path style="opacity:1" fill="#35af4f" d="M 218.5,79.5 C 218.5,80.1667 218.5,80.8333 218.5,81.5C 218.414,82.4959 218.748,83.3292 219.5,84C 217.896,85.2365 216.229,86.4032 214.5,87.5C 216.544,88.0652 218.21,89.0652 219.5,90.5C 218.833,90.5 218.167,90.5 217.5,90.5C 217.565,90.0618 217.399,89.7284 217,89.5C 210.646,94.6098 204.479,94.6098 198.5,89.5C 200.833,89.5 203.167,89.5 205.5,89.5C 205.548,86.3648 207.215,84.6981 210.5,84.5C 210.137,83.8165 209.804,83.1499 209.5,82.5C 211.5,82.1667 213.5,81.8333 215.5,81.5C 216.778,81.2178 217.778,80.5511 218.5,79.5 Z"/></g>
<g><path style="opacity:1" fill="#30b44b" d="M 330.5,76.5 C 332.155,77.9239 333.488,79.7573 334.5,82C 334.361,83.301 333.695,84.1344 332.5,84.5C 331.162,82.8872 329.495,82.3872 327.5,83C 333.036,86.7284 332.703,87.7284 326.5,86C 324.598,82.7448 323.265,79.2448 322.5,75.5C 323.15,75.1961 323.817,74.8627 324.5,74.5C 325.914,75.4655 326.747,76.4655 327,77.5C 328.138,77.0109 329.305,76.6775 330.5,76.5 Z"/></g>
<g><path style="opacity:1" fill="#e81c26" d="M 17.5,79.5 C 17.5,80.8333 17.5,82.1667 17.5,83.5C 16.1667,83.5 14.8333,83.5 13.5,83.5C 11.9519,83.8212 11.2852,84.8212 11.5,86.5C 8.89616,87.5304 6.22949,87.5304 3.5,86.5C 4.43334,83.6298 6.10001,81.2964 8.5,79.5C 10.8902,78.3354 12.8902,79.0021 14.5,81.5C 15.5178,80.8075 16.5178,80.1408 17.5,79.5 Z"/></g>
<g><path style="opacity:0.212" fill="#41a658" d="M 98.5,73.5 C 101.327,73.5838 103.994,74.2504 106.5,75.5C 106.5,76.8333 106.5,78.1667 106.5,79.5C 105.691,80.4687 104.691,81.3021 103.5,82C 98.5111,82.4993 93.5111,82.6659 88.5,82.5C 86.0722,80.9565 83.4056,79.9565 80.5,79.5C 80.7148,81.1788 80.0481,82.1788 78.5,82.5C 78.7377,80.3551 79.7377,78.6885 81.5,77.5C 88.0433,81.2238 95.0433,82.3905 102.5,81C 104.211,79.8668 104.711,78.3668 104,76.5C 101.942,75.7709 100.109,74.7709 98.5,73.5 Z"/></g>
<g><path style="opacity:0.981" fill="#2eb14e" d="M 408.5,69.5 C 410.246,70.2495 411.246,71.5828 411.5,73.5C 409.784,75.9151 409.284,78.5818 410,81.5C 410.689,82.3567 411.522,83.0233 412.5,83.5C 414.085,80.7276 415.085,80.8943 415.5,84C 415.501,87.0433 414.668,87.21 413,84.5C 411.731,85.9047 411.231,87.5714 411.5,89.5C 409.972,88.1979 408.972,86.5313 408.5,84.5C 408.5,79.5 408.5,74.5 408.5,69.5 Z"/></g>
<g><path style="opacity:1" fill="#33ae4e" d="M 332.5,71.5 C 332.66,73.153 333.326,74.4863 334.5,75.5C 335.264,82.0948 338.597,83.7615 344.5,80.5C 345.348,78.5914 345.682,76.5914 345.5,74.5C 345.98,77.1656 346.98,79.6656 348.5,82C 347.944,82.3826 347.611,82.8826 347.5,83.5C 345.05,83.298 342.717,83.6314 340.5,84.5C 337.64,86.8349 334.973,86.8349 332.5,84.5C 333.695,84.1344 334.361,83.301 334.5,82C 333.488,79.7573 332.155,77.9239 330.5,76.5C 330.918,75.7784 331.584,75.2784 332.5,75C 330.397,74.1466 330.397,72.98 332.5,71.5 Z"/></g>
<g><path style="opacity:1" fill="#ee1923" d="M 21.5,75.5 C 22.5,76.1667 23.5,76.8333 24.5,77.5C 24.6653,81.1817 24.4986,84.8484 24,88.5C 22.7083,89.7911 21.5417,89.7911 20.5,88.5C 20.631,87.7611 20.4643,87.0944 20,86.5C 18.7741,88.5477 17.2741,88.881 15.5,87.5C 13.8235,86.8166 13.1568,85.4832 13.5,83.5C 14.8333,83.5 16.1667,83.5 17.5,83.5C 17.5,82.1667 17.5,80.8333 17.5,79.5C 19.0414,78.3332 20.3748,76.9999 21.5,75.5 Z"/></g>
<g><path style="opacity:1" fill="#30b24e" d="M 106.5,79.5 C 107.183,81.1765 108.517,81.8432 110.5,81.5C 111.167,81.5 111.833,81.5 112.5,81.5C 112.389,82.1174 112.056,82.6174 111.5,83C 108.413,83.2589 105.413,83.7589 102.5,84.5C 100.858,86.0808 98.8583,86.7475 96.5,86.5C 96.5,85.5 96.5,84.5 96.5,83.5C 94.396,83.2011 92.396,83.5344 90.5,84.5C 91.6119,85.2652 92.2786,86.2652 92.5,87.5C 91.5,87.5 90.5,87.5 89.5,87.5C 89.634,85.7085 89.3007,84.0418 88.5,82.5C 93.5111,82.6659 98.5111,82.4993 103.5,82C 104.691,81.3021 105.691,80.4687 106.5,79.5 Z"/></g>
<g><path style="opacity:1" fill="#31b348" d="M 107.5,88.5 C 103.941,88.6499 102.275,87.3166 102.5,84.5C 105.413,83.7589 108.413,83.2589 111.5,83C 112.056,82.6174 112.389,82.1174 112.5,81.5C 113.496,81.5858 114.329,81.2524 115,80.5C 115.111,85.5572 112.611,88.2239 107.5,88.5 Z"/></g>
<g><path style="opacity:1" fill="#34b14c" d="M 320.5,74.5 C 321.492,74.3284 322.158,74.6618 322.5,75.5C 323.265,79.2448 324.598,82.7448 326.5,86C 332.703,87.7284 333.036,86.7284 327.5,83C 329.495,82.3872 331.162,82.8872 332.5,84.5C 334.973,86.8349 337.64,86.8349 340.5,84.5C 343.483,85.3875 346.65,86.0542 350,86.5C 351.894,86.4606 352.894,85.7939 353,84.5C 353.902,84.7432 354.735,85.0766 355.5,85.5C 355.5,86.8333 354.833,87.5 353.5,87.5C 350.729,88.6334 347.896,89.6334 345,90.5C 344.167,90.3333 343.333,90.1667 342.5,90C 343.517,88.9505 343.684,87.7839 343,86.5C 340.794,88.1793 338.294,89.1793 335.5,89.5C 332.638,88.7367 329.971,88.7367 327.5,89.5C 322.3,85.9256 319.967,80.9256 320.5,74.5 Z"/></g>
<g><path style="opacity:1" fill="#30b44d" d="M 139.5,82.5 C 141.265,83.4614 143.265,83.7947 145.5,83.5C 144.048,84.3019 142.382,84.8019 140.5,85C 142.81,85.4966 145.143,85.6633 147.5,85.5C 147.262,87.4783 145.929,89.1449 143.5,90.5C 142.833,90.5 142.167,90.5 141.5,90.5C 139.197,88.7448 136.53,87.5782 133.5,87C 135.931,85.9076 135.931,84.7409 133.5,83.5C 135.435,82.8505 137.435,82.5172 139.5,82.5 Z"/></g>
<g><path style="opacity:1" fill="#37b351" d="M 418.5,59.5 C 419.5,60.8333 420.5,62.1667 421.5,63.5C 421.5,72.5 421.5,81.5 421.5,90.5C 417.167,90.5 412.833,90.5 408.5,90.5C 408.5,88.5 408.5,86.5 408.5,84.5C 408.972,86.5313 409.972,88.1979 411.5,89.5C 414.269,89.4602 416.602,89.1268 418.5,88.5C 417.366,79.7759 417.366,70.1093 418.5,59.5 Z"/></g>
<g><path style="opacity:1" fill="#36b04f" d="M 88.5,82.5 C 89.3007,84.0418 89.634,85.7085 89.5,87.5C 88.4481,87.7711 87.1147,87.9378 85.5,88C 88.441,90.239 91.7743,91.5723 95.5,92C 94.944,92.3826 94.6107,92.8826 94.5,93.5C 89.0245,92.6301 83.6911,91.1301 78.5,89C 75.9629,86.7985 75.9629,84.6319 78.5,82.5C 80.0481,82.1788 80.7148,81.1788 80.5,79.5C 83.4056,79.9565 86.0722,80.9565 88.5,82.5 Z"/></g>
<g><path style="opacity:1" fill="#31b449" d="M 248.5,79.5 C 248.5,83.1667 248.5,86.8333 248.5,90.5C 245.482,90.6646 242.482,90.498 239.5,90C 238.62,88.6439 238.286,87.1439 238.5,85.5C 240.591,85.3184 242.591,85.6518 244.5,86.5C 245.583,83.8619 246.916,81.5286 248.5,79.5 Z"/></g>
<g><path style="opacity:1" fill="#31b34d" d="M 102.5,84.5 C 102.275,87.3166 103.941,88.6499 107.5,88.5C 104.929,90.2306 101.929,91.2306 98.5,91.5C 99.1712,90.1529 99.1712,88.9862 98.5,88C 96.5273,87.5045 94.5273,87.3379 92.5,87.5C 92.2786,86.2652 91.6119,85.2652 90.5,84.5C 92.396,83.5344 94.396,83.2011 96.5,83.5C 96.5,84.5 96.5,85.5 96.5,86.5C 98.8583,86.7475 100.858,86.0808 102.5,84.5 Z"/></g>
<g><path style="opacity:1" fill="#2fb44a" d="M 128.5,83.5 C 130.167,83.5 131.833,83.5 133.5,83.5C 135.931,84.7409 135.931,85.9076 133.5,87C 136.53,87.5782 139.197,88.7448 141.5,90.5C 136.925,90.6065 132.592,89.6065 128.5,87.5C 127.09,86.4305 126.09,85.0972 125.5,83.5C 126.348,82.375 127.348,82.375 128.5,83.5 Z"/></g>
<g><path style="opacity:1" fill="#31b24e" d="M 147.5,85.5 C 151.679,85.9559 156.012,86.9559 160.5,88.5C 160.5,89.5 160.5,90.5 160.5,91.5C 156.5,91.5 152.5,91.5 148.5,91.5C 148.649,90.448 148.483,89.448 148,88.5C 147.292,89.3805 146.458,90.0472 145.5,90.5C 144.833,90.5 144.167,90.5 143.5,90.5C 145.929,89.1449 147.262,87.4783 147.5,85.5 Z"/></g>
<g><path style="opacity:1" fill="#31b34b" d="M 299.5,89.5 C 300.703,87.3655 302.537,86.0322 305,85.5C 305.464,84.9056 305.631,84.2389 305.5,83.5C 308.553,83.3185 311.553,83.1519 314.5,83C 315.423,85.0408 315.756,87.2075 315.5,89.5C 310.023,90.7016 304.689,90.7016 299.5,89.5 Z"/></g>
<g><path style="opacity:1" fill="#30b647" d="M 89.5,87.5 C 90.5,87.5 91.5,87.5 92.5,87.5C 94.5273,87.3379 96.5273,87.5045 98.5,88C 99.1712,88.9862 99.1712,90.1529 98.5,91.5C 98.8417,92.3382 99.5084,92.6716 100.5,92.5C 98.7354,93.4614 96.7354,93.7947 94.5,93.5C 94.6107,92.8826 94.944,92.3826 95.5,92C 91.7743,91.5723 88.441,90.239 85.5,88C 87.1147,87.9378 88.4481,87.7711 89.5,87.5 Z"/></g>
<g><path style="opacity:1" fill="#3ea854" d="M 353.5,87.5 C 352.878,89.335 351.544,90.5017 349.5,91C 341.909,94.3827 334.576,93.8827 327.5,89.5C 329.971,88.7367 332.638,88.7367 335.5,89.5C 338.294,89.1793 340.794,88.1793 343,86.5C 343.684,87.7839 343.517,88.9505 342.5,90C 343.333,90.1667 344.167,90.3333 345,90.5C 347.896,89.6334 350.729,88.6334 353.5,87.5 Z"/></g>
<g><path style="opacity:1" fill="#e41c24" d="M 26.5,74.5 C 25.4886,78.1122 25.3219,81.7789 26,85.5C 27.3516,87.749 29.1849,89.4156 31.5,90.5C 31.5,91.1667 31.5,91.8333 31.5,92.5C 30.0206,96.4699 29.3539,96.1366 29.5,91.5C 27.8333,91.5 26.1667,91.5 24.5,91.5C 22.4091,92.8654 20.0758,93.5321 17.5,93.5C 17.2729,91.0672 18.2729,89.4006 20.5,88.5C 21.5417,89.7911 22.7083,89.7911 24,88.5C 24.4986,84.8484 24.6653,81.1817 24.5,77.5C 24.2852,75.8212 24.9519,74.8212 26.5,74.5 Z"/></g>
<g><path style="opacity:1" fill="#ef1925" d="M 20.5,88.5 C 18.2729,89.4006 17.2729,91.0672 17.5,93.5C 20.0758,93.5321 22.4091,92.8654 24.5,91.5C 24.5394,92.5832 24.8728,93.5832 25.5,94.5C 25.0431,95.2975 24.3764,95.6309 23.5,95.5C 20.6757,95.108 17.6757,95.108 14.5,95.5C 13.8614,94.9032 13.528,94.0698 13.5,93C 14.3784,91.1999 15.045,89.3666 15.5,87.5C 17.2741,88.881 18.7741,88.5477 20,86.5C 20.4643,87.0944 20.631,87.7611 20.5,88.5 Z"/></g>
<g><path style="opacity:1" fill="#42a655" d="M 123.5,66.5 C 123.182,71.0323 123.515,75.3656 124.5,79.5C 124.232,81.099 124.566,82.4324 125.5,83.5C 126.09,85.0972 127.09,86.4305 128.5,87.5C 132.592,89.6065 136.925,90.6065 141.5,90.5C 142.167,90.5 142.833,90.5 143.5,90.5C 144.167,90.5 144.833,90.5 145.5,90.5C 137.855,94.5577 131.021,93.2244 125,86.5C 121.487,79.8893 120.987,73.2226 123.5,66.5 Z"/></g>
<g><path style="opacity:1" fill="#43a458" d="M 266.5,65.5 C 267.167,73.8333 267.833,82.1667 268.5,90.5C 272.042,90.8128 275.375,90.4794 278.5,89.5C 279.494,79.3468 279.828,69.0135 279.5,58.5C 276.5,58.5 273.5,58.5 270.5,58.5C 269.5,58.5 268.5,58.5 267.5,58.5C 267.737,59.791 267.404,60.791 266.5,61.5C 266.5,59.8333 266.5,58.1667 266.5,56.5C 271.167,56.5 275.833,56.5 280.5,56.5C 280.5,68.5 280.5,80.5 280.5,92.5C 275.833,92.5 271.167,92.5 266.5,92.5C 266.5,83.5 266.5,74.5 266.5,65.5 Z"/></g>
<g><path style="opacity:1" fill="#2db647" d="M 278.5,89.5 C 275.5,89.5 272.5,89.5 269.5,89.5C 269.33,88.1779 269.663,87.0113 270.5,86C 277.486,87.6711 279.152,85.3377 275.5,79C 275.613,77.7202 276.28,76.8869 277.5,76.5C 278.492,80.7828 278.826,85.1161 278.5,89.5 Z"/></g>
<g><path style="opacity:1" fill="#30b44a" d="M 272.5,67.5 C 272.74,70.5788 272.407,73.5788 271.5,76.5C 274.395,81.5552 273.395,83.2219 268.5,81.5C 268.5,76.8333 268.5,72.1667 268.5,67.5C 269.833,67.5 271.167,67.5 272.5,67.5 Z"/></g>
<g><path style="opacity:1" fill="#3ea754" d="M 288.5,85.5 C 289.609,85.5569 290.609,85.8902 291.5,86.5C 293.391,89.1717 296.058,90.1717 299.5,89.5C 304.689,90.7016 310.023,90.7016 315.5,89.5C 315.756,87.2075 315.423,85.0408 314.5,83C 311.553,83.1519 308.553,83.3185 305.5,83.5C 304.833,83.5 304.5,83.1667 304.5,82.5C 308.596,81.8094 312.596,80.8094 316.5,79.5C 317.071,82.4769 318.071,85.3103 319.5,88C 310.927,94.0557 301.927,94.7224 292.5,90C 290.959,88.6288 289.625,87.1288 288.5,85.5 Z"/></g>
<g><path style="opacity:1" fill="#ea1b24" d="M 3.5,86.5 C 6.22949,87.5304 8.89616,87.5304 11.5,86.5C 11.7174,89.4206 11.0507,92.0872 9.5,94.5C 8.73544,94.0766 7.90211,93.7432 7,93.5C 5.40287,94.8847 3.56954,95.5514 1.5,95.5C 1.71481,93.8212 1.04814,92.8212 -0.5,92.5C -0.5,92.1667 -0.5,91.8333 -0.5,91.5C 0.593015,89.6508 1.92635,87.9842 3.5,86.5 Z"/></g>
<g><path style="opacity:1" fill="#d52225" d="M 50.5,96.5 C 50.8333,95.8333 51.1667,95.1667 51.5,94.5C 52.552,94.6495 53.552,94.4828 54.5,94C 46.9048,92.6439 39.2382,92.1439 31.5,92.5C 31.5,91.8333 31.5,91.1667 31.5,90.5C 35.8187,91.2488 40.152,91.4155 44.5,91C 53.0258,89.8764 61.3591,88.0431 69.5,85.5C 69.67,86.8221 69.3366,87.9887 68.5,89C 62.6235,91.7708 56.6235,94.2708 50.5,96.5 Z"/></g>
<g><path style="opacity:1" fill="#e81d25" d="M 13.5,83.5 C 13.1568,85.4832 13.8235,86.8166 15.5,87.5C 15.045,89.3666 14.3784,91.1999 13.5,93C 13.528,94.0698 13.8614,94.9032 14.5,95.5C 14.5,96.1667 14.5,96.8333 14.5,97.5C 12.8174,98.6607 10.984,99.6607 9,100.5C 7.21075,99.5909 5.37742,99.4242 3.5,100C 2.3157,101.145 2.3157,102.312 3.5,103.5C 1.93819,103.267 0.60486,102.6 -0.5,101.5C -0.5,101.167 -0.5,100.833 -0.5,100.5C 1.37099,100.141 2.87099,99.1412 4,97.5C 4.33333,97.8333 4.66667,98.1667 5,98.5C 7.14736,97.8875 9.31403,97.2208 11.5,96.5C 11.1445,95.4777 10.4778,94.811 9.5,94.5C 11.0507,92.0872 11.7174,89.4206 11.5,86.5C 11.2852,84.8212 11.9519,83.8212 13.5,83.5 Z"/></g>
<g><path style="opacity:1" fill="#eb1920" d="M 24.5,91.5 C 26.1667,91.5 27.8333,91.5 29.5,91.5C 29.3539,96.1366 30.0206,96.4699 31.5,92.5C 39.2382,92.1439 46.9048,92.6439 54.5,94C 53.552,94.4828 52.552,94.6495 51.5,94.5C 49.9139,95.4132 48.4139,95.4132 47,94.5C 46.3333,95.1667 45.6667,95.8333 45,96.5C 42.9039,93.9858 40.4039,93.3192 37.5,94.5C 38.4724,96.6365 40.1391,97.8032 42.5,98C 40.6447,98.4221 38.8114,98.9221 37,99.5C 35.9701,99.8361 35.4701,100.503 35.5,101.5C 28.8891,102.927 22.2224,103.927 15.5,104.5C 18.5293,103.324 21.1959,101.657 23.5,99.5C 26.1411,100.263 28.8078,100.43 31.5,100C 28.4522,98.8379 25.7855,97.3379 23.5,95.5C 24.3764,95.6309 25.0431,95.2975 25.5,94.5C 24.8728,93.5832 24.5394,92.5832 24.5,91.5 Z"/></g>
<g><path style="opacity:1" fill="#ec1a1f" d="M -0.5,92.5 C 1.04814,92.8212 1.71481,93.8212 1.5,95.5C 3.56954,95.5514 5.40287,94.8847 7,93.5C 7.90211,93.7432 8.73544,94.0766 9.5,94.5C 10.4778,94.811 11.1445,95.4777 11.5,96.5C 9.31403,97.2208 7.14736,97.8875 5,98.5C 4.66667,98.1667 4.33333,97.8333 4,97.5C 2.87099,99.1412 1.37099,100.141 -0.5,100.5C -0.5,97.8333 -0.5,95.1667 -0.5,92.5 Z"/></g>
<g><path style="opacity:1" fill="#ec1b26" d="M 23.5,95.5 C 25.7855,97.3379 28.4522,98.8379 31.5,100C 28.8078,100.43 26.1411,100.263 23.5,99.5C 20.8127,99.6641 18.146,99.4974 15.5,99C 14.944,98.6174 14.6107,98.1174 14.5,97.5C 14.5,96.8333 14.5,96.1667 14.5,95.5C 17.6757,95.108 20.6757,95.108 23.5,95.5 Z"/></g>
<g><path style="opacity:1" fill="#df1d25" d="M 51.5,94.5 C 51.1667,95.1667 50.8333,95.8333 50.5,96.5C 45.8348,98.9225 40.8348,100.589 35.5,101.5C 35.4701,100.503 35.9701,99.8361 37,99.5C 38.8114,98.9221 40.6447,98.4221 42.5,98C 40.1391,97.8032 38.4724,96.6365 37.5,94.5C 40.4039,93.3192 42.9039,93.9858 45,96.5C 45.6667,95.8333 46.3333,95.1667 47,94.5C 48.4139,95.4132 49.9139,95.4132 51.5,94.5 Z"/></g>
<g><path style="opacity:1" fill="#ec1921" d="M 14.5,97.5 C 14.6107,98.1174 14.944,98.6174 15.5,99C 18.146,99.4974 20.8127,99.6641 23.5,99.5C 21.1959,101.657 18.5293,103.324 15.5,104.5C 12.1667,104.5 8.83333,104.5 5.5,104.5C 4.50838,104.672 3.84171,104.338 3.5,103.5C 2.3157,102.312 2.3157,101.145 3.5,100C 5.37742,99.4242 7.21075,99.5909 9,100.5C 10.984,99.6607 12.8174,98.6607 14.5,97.5 Z"/></g>
<g><path style="opacity:0.02" fill="#c72a31" d="M 35.5,101.5 C 28.4142,104.477 20.9142,106.143 13,106.5C 10.2918,106.133 7.79179,105.466 5.5,104.5C 8.83333,104.5 12.1667,104.5 15.5,104.5C 22.2224,103.927 28.8891,102.927 35.5,101.5 Z"/></g>
</svg>
