<?xml version="1.0" encoding="UTF-8"?>
<!DOCTYPE svg PUBLIC "-//W3C//DTD SVG 1.1//EN" "http://www.w3.org/Graphics/SVG/1.1/DTD/svg11.dtd">
<svg xmlns="http://www.w3.org/2000/svg" version="1.1" width="477px" height="668px" style="shape-rendering:geometricPrecision; text-rendering:geometricPrecision; image-rendering:optimizeQuality; fill-rule:evenodd; clip-rule:evenodd" xmlns:xlink="http://www.w3.org/1999/xlink">
<g><path style="opacity:1" fill="#fef5fa" d="M 1.5,-0.5 C 159.833,-0.5 318.167,-0.5 476.5,-0.5C 476.5,222.167 476.5,444.833 476.5,667.5C 476.167,667.5 475.833,667.5 475.5,667.5C 475.5,630.167 475.5,592.833 475.5,555.5C 419.5,555.5 363.5,555.5 307.5,555.5C 305.141,550.631 301.807,546.465 297.5,543C 290.107,537.635 282.107,533.302 273.5,530C 247.521,521.371 220.855,516.538 193.5,515.5C 193.5,507.5 193.5,499.5 193.5,491.5C 264.335,491.833 335.002,491.499 405.5,490.5C 412.983,481.51 420.317,472.343 427.5,463C 420.704,454.034 413.704,445.201 406.5,436.5C 335.17,435.5 263.836,435.167 192.5,435.5C 192.5,435.167 192.5,434.833 192.5,434.5C 193.489,429.025 193.822,423.358 193.5,417.5C 264.503,417.833 335.503,417.5 406.5,416.5C 413.882,407.786 420.882,398.786 427.5,389.5C 420.31,380.811 413.31,371.977 406.5,363C 335.501,362.5 264.501,362.333 193.5,362.5C 193.5,356.5 193.5,350.5 193.5,344.5C 264.503,344.833 335.503,344.5 406.5,343.5C 413.704,334.799 420.704,325.966 427.5,317C 420.704,308.034 413.704,299.201 406.5,290.5C 335.503,289.5 264.503,289.167 193.5,289.5C 193.5,283.5 193.5,277.5 193.5,271.5C 264.503,271.833 335.503,271.5 406.5,270.5C 413.882,261.786 420.882,252.786 427.5,243.5C 420.31,234.811 413.31,225.977 406.5,217C 335.501,216.5 264.501,216.333 193.5,216.5C 193.5,210.5 193.5,204.5 193.5,198.5C 264.167,198.667 334.834,198.5 405.5,198C 413.403,189.266 420.737,180.1 427.5,170.5C 420.31,161.811 413.31,152.977 406.5,144C 335.501,143.5 264.501,143.333 193.5,143.5C 193.5,136.833 193.5,130.167 193.5,123.5C 199.607,119.608 205.94,115.941 212.5,112.5C 213.666,88.1735 213.833,63.8402 213,39.5C 204,44.5 195,49.5 186,54.5C 185.5,65.8284 185.333,77.1618 185.5,88.5C 183.833,88.5 182.167,88.5 180.5,88.5C 180.667,77.1618 180.5,65.8284 180,54.5C 171.292,49.6319 162.458,44.9653 153.5,40.5C 152.167,64.5 152.167,88.5 153.5,112.5C 160.194,116.179 166.86,119.846 173.5,123.5C 173.5,129.833 173.5,136.167 173.5,142.5C 173.5,142.833 173.5,143.167 173.5,143.5C 167.833,143.5 162.167,143.5 156.5,143.5C 156.5,161.833 156.5,180.167 156.5,198.5C 162.167,198.5 167.833,198.5 173.5,198.5C 173.5,198.833 173.5,199.167 173.5,199.5C 168.156,199.334 162.823,199.501 157.5,200C 162.53,203.842 167.53,207.675 172.5,211.5C 172.5,212.833 172.5,214.167 172.5,215.5C 166.833,215.5 161.167,215.5 155.5,215.5C 155.333,234.503 155.5,253.503 156,272.5C 156.383,273.056 156.883,273.389 157.5,273.5C 162.722,277.271 167.722,281.271 172.5,285.5C 172.5,286.5 172.5,287.5 172.5,288.5C 166.833,288.5 161.167,288.5 155.5,288.5C 155.333,307.503 155.5,326.503 156,345.5C 156.383,346.056 156.883,346.389 157.5,346.5C 162.833,350.5 168.167,354.5 173.5,358.5C 173.5,359.833 173.5,361.167 173.5,362.5C 167.833,362.5 162.167,362.5 156.5,362.5C 156.5,380.833 156.5,399.167 156.5,417.5C 162.167,417.5 167.833,417.5 173.5,417.5C 173.5,417.833 173.5,418.167 173.5,418.5C 168.156,418.334 162.823,418.501 157.5,419C 162.995,423 168.329,427.166 173.5,431.5C 173.5,432.833 173.5,434.167 173.5,435.5C 167.833,435.5 162.167,435.5 156.5,435.5C 156.5,453.833 156.5,472.167 156.5,490.5C 162.167,490.5 167.833,490.5 173.5,490.5C 173.5,490.833 173.5,491.167 173.5,491.5C 168.156,491.334 162.823,491.501 157.5,492C 162.682,496.417 168.016,500.583 173.5,504.5C 173.5,508.167 173.5,511.833 173.5,515.5C 147.503,515.776 122.17,519.943 97.5,528C 84.4731,532.381 72.9731,539.214 63,548.5C 61.4758,550.898 59.9758,553.231 58.5,555.5C 39.5,555.5 20.5,555.5 1.5,555.5C 1.5,370.167 1.5,184.833 1.5,-0.5 Z"/></g>
<g><path style="opacity:1" fill="#e1e4e9" d="M -0.5,-0.5 C 0.166667,-0.5 0.833333,-0.5 1.5,-0.5C 1.5,184.833 1.5,370.167 1.5,555.5C 1.5,592.833 1.5,630.167 1.5,667.5C 0.833333,667.5 0.166667,667.5 -0.5,667.5C -0.5,444.833 -0.5,222.167 -0.5,-0.5 Z"/></g>
<g><path style="opacity:1" fill="#4c4b4c" d="M 83.5,27.5 C 84.5676,28.4345 85.901,28.7678 87.5,28.5C 87.5,26.1667 87.5,23.8333 87.5,21.5C 89.3878,23.9878 90.0545,26.9878 89.5,30.5C 84.8333,30.5 80.1667,30.5 75.5,30.5C 75.5,27.5 75.5,24.5 75.5,21.5C 76.5,21.5 77.5,21.5 78.5,21.5C 78.5,23.5 78.5,25.5 78.5,27.5C 79.5,27.5 80.5,27.5 81.5,27.5C 82.1667,20.8333 82.8333,20.8333 83.5,27.5 Z"/></g>
<g><path style="opacity:1" fill="#989496" d="M 87.5,21.5 C 87.5,23.8333 87.5,26.1667 87.5,28.5C 85.901,28.7678 84.5676,28.4345 83.5,27.5C 84.5,27.5 85.5,27.5 86.5,27.5C 86.2053,25.2646 86.5386,23.2646 87.5,21.5 Z"/></g>
<g><path style="opacity:1" fill="#4f4f4f" d="M 75.5,33.5 C 79.7724,35.0911 84.1058,36.5911 88.5,38C 89.9255,39.7141 89.5922,41.0475 87.5,42C 84,43.1667 80.5,44.3333 77,45.5C 75.1739,44.9896 75.0072,44.1562 76.5,43C 79.5,42 82.5,41 85.5,40C 82.5394,38.7353 79.5394,37.5686 76.5,36.5C 75.6143,35.675 75.281,34.675 75.5,33.5 Z"/></g>
<g><path style="opacity:1" fill="#f1c4a8" d="M 180.5,88.5 C 180.832,101.184 180.499,113.851 179.5,126.5C 177.473,125.487 175.473,124.487 173.5,123.5C 166.86,119.846 160.194,116.179 153.5,112.5C 152.167,88.5 152.167,64.5 153.5,40.5C 162.458,44.9653 171.292,49.6319 180,54.5C 180.5,65.8284 180.667,77.1618 180.5,88.5 Z"/></g>
<g><path style="opacity:1" fill="#f0c3a8" d="M 193.5,123.5 C 193.167,123.5 192.833,123.5 192.5,123.5C 190.527,124.487 188.527,125.487 186.5,126.5C 185.501,113.851 185.168,101.184 185.5,88.5C 185.333,77.1618 185.5,65.8284 186,54.5C 195,49.5 204,44.5 213,39.5C 213.833,63.8402 213.666,88.1735 212.5,112.5C 205.94,115.941 199.607,119.608 193.5,123.5 Z"/></g>
<g><path style="opacity:1" fill="#434343" d="M 77.5,48.5 C 77.5,50.8333 77.5,53.1667 77.5,55.5C 79.099,55.7678 80.4324,55.4345 81.5,54.5C 82.1667,47.8333 82.8333,47.8333 83.5,54.5C 84.5676,55.4345 85.901,55.7678 87.5,55.5C 87.5,53.1667 87.5,50.8333 87.5,48.5C 89.3878,50.9878 90.0545,53.9878 89.5,57.5C 84.8333,57.5 80.1667,57.5 75.5,57.5C 74.9455,53.9878 75.6122,50.9878 77.5,48.5 Z"/></g>
<g><path style="opacity:1" fill="#9d999b" d="M 77.5,48.5 C 78.4614,50.2646 78.7947,52.2646 78.5,54.5C 79.5,54.5 80.5,54.5 81.5,54.5C 80.4324,55.4345 79.099,55.7678 77.5,55.5C 77.5,53.1667 77.5,50.8333 77.5,48.5 Z"/></g>
<g><path style="opacity:1" fill="#b3aeb1" d="M 87.5,48.5 C 87.5,50.8333 87.5,53.1667 87.5,55.5C 85.901,55.7678 84.5676,55.4345 83.5,54.5C 84.5,54.5 85.5,54.5 86.5,54.5C 86.2053,52.2646 86.5386,50.2646 87.5,48.5 Z"/></g>
<g><path style="opacity:1" fill="#424242" d="M 75.5,62.5 C 80.2137,62.1734 84.8804,62.5067 89.5,63.5C 87.1667,63.8333 84.8333,64.1667 82.5,64.5C 79.7305,64.4714 77.3972,63.8048 75.5,62.5 Z"/></g>
<g><path style="opacity:1" fill="#7b797a" d="M 89.5,69.5 C 84.706,68.9031 80.3727,69.5698 76.5,71.5C 75.596,70.791 75.2627,69.791 75.5,68.5C 80.3633,68.1805 85.03,68.5139 89.5,69.5 Z"/></g>
<g><path style="opacity:1" fill="#454545" d="M 89.5,69.5 C 88.0821,71.3079 86.0821,71.9746 83.5,71.5C 83.5,73.5 83.5,75.5 83.5,77.5C 85.5,77.5 87.5,77.5 89.5,77.5C 89.5,78.5 89.5,79.5 89.5,80.5C 84.8333,80.5 80.1667,80.5 75.5,80.5C 75.5,79.5 75.5,78.5 75.5,77.5C 77.5,77.5 79.5,77.5 81.5,77.5C 81.5,75.5 81.5,73.5 81.5,71.5C 79.8333,71.5 78.1667,71.5 76.5,71.5C 80.3727,69.5698 84.706,68.9031 89.5,69.5 Z"/></g>
<g><path style="opacity:1" fill="#4d4c4d" d="M 77.5,84.5 C 78.675,84.281 79.675,84.6143 80.5,85.5C 79.2887,86.8745 78.2887,88.3745 77.5,90C 77.6448,90.772 77.9781,91.4387 78.5,92C 81.1667,92.6667 83.8333,92.6667 86.5,92C 87.0219,91.4387 87.3552,90.772 87.5,90C 86.7113,88.3745 85.7113,86.8745 84.5,85.5C 86.2592,84.246 87.7592,84.5794 89,86.5C 89.8209,94.3318 86.3209,97.1651 78.5,95C 74.9351,91.7842 74.6017,88.2842 77.5,84.5 Z"/></g>
<g><path style="opacity:1" fill="#424141" d="M 180.5,88.5 C 182.167,88.5 183.833,88.5 185.5,88.5C 185.168,101.184 185.501,113.851 186.5,126.5C 188.527,125.487 190.527,124.487 192.5,123.5C 192.5,129.833 192.5,136.167 192.5,142.5C 186.167,142.5 179.833,142.5 173.5,142.5C 173.5,136.167 173.5,129.833 173.5,123.5C 175.473,124.487 177.473,125.487 179.5,126.5C 180.499,113.851 180.832,101.184 180.5,88.5 Z"/></g>
<g><path style="opacity:1" fill="#545353" d="M 86.5,98.5 C 87.5,98.5 88.5,98.5 89.5,98.5C 89.5,99.5 89.5,100.5 89.5,101.5C 88.5,101.5 87.5,101.5 86.5,101.5C 86.1351,104.746 87.1351,107.412 89.5,109.5C 89,109.833 88.5,110.167 88,110.5C 83.8347,109.056 79.6681,107.722 75.5,106.5C 75.5,105.167 75.5,103.833 75.5,102.5C 79.5368,101.935 83.2034,100.601 86.5,98.5 Z"/></g>
<g><path style="opacity:1" fill="#e2dade" d="M 79.5,103.5 C 80.9778,103.238 82.3112,103.571 83.5,104.5C 82.8333,104.833 82.1667,105.167 81.5,105.5C 80.2867,105.253 79.62,104.586 79.5,103.5 Z"/></g>
<g><path style="opacity:1" fill="#4e4e4e" d="M 78.5,118.5 C 88.0756,117.379 91.0756,121.045 87.5,129.5C 79.232,132.702 75.3987,130.035 76,121.5C 77.045,120.627 77.8783,119.627 78.5,118.5 Z"/></g>
<g><path style="opacity:1" fill="#f4ebf0" d="M 79.5,121.5 C 81.5273,121.338 83.5273,121.505 85.5,122C 87.2112,123.133 87.7112,124.633 87,126.5C 84.2628,127.61 81.4294,127.777 78.5,127C 77.2427,124.924 77.576,123.09 79.5,121.5 Z"/></g>
<g><path style="opacity:1" fill="#535253" d="M 75.5,133.5 C 76.5,133.5 77.5,133.5 78.5,133.5C 78.5,134.833 78.5,136.167 78.5,137.5C 82.1667,137.5 85.8333,137.5 89.5,137.5C 89.5,138.5 89.5,139.5 89.5,140.5C 85.8333,140.5 82.1667,140.5 78.5,140.5C 78.5,141.833 78.5,143.167 78.5,144.5C 77.5,144.5 76.5,144.5 75.5,144.5C 75.5,140.833 75.5,137.167 75.5,133.5 Z"/></g>
<g><path style="opacity:1" fill="#8d8579" d="M 192.5,123.5 C 192.833,123.5 193.167,123.5 193.5,123.5C 193.5,130.167 193.5,136.833 193.5,143.5C 186.833,143.5 180.167,143.5 173.5,143.5C 173.5,143.167 173.5,142.833 173.5,142.5C 179.833,142.5 186.167,142.5 192.5,142.5C 192.5,136.167 192.5,129.833 192.5,123.5 Z"/></g>
<g><path style="opacity:1" fill="#f6e1a7" d="M 173.5,143.5 C 180.167,143.5 186.833,143.5 193.5,143.5C 264.501,143.333 335.501,143.5 406.5,144C 413.31,152.977 420.31,161.811 427.5,170.5C 420.737,180.1 413.403,189.266 405.5,198C 334.834,198.5 264.167,198.667 193.5,198.5C 193.167,198.5 192.833,198.5 192.5,198.5C 186.167,198.5 179.833,198.5 173.5,198.5C 167.833,198.5 162.167,198.5 156.5,198.5C 156.5,180.167 156.5,161.833 156.5,143.5C 162.167,143.5 167.833,143.5 173.5,143.5 Z"/></g>
<g><path style="opacity:1" fill="#4d4c4c" d="M 75.5,151.5 C 79.1817,151.335 82.8484,151.501 86.5,152C 90.0095,155.048 90.3428,158.381 87.5,162C 83.4589,162.827 79.4589,162.66 75.5,161.5C 78.7848,160.676 82.1182,160.176 85.5,160C 87.6576,158.688 87.9909,157.022 86.5,155C 82.8484,154.501 79.1817,154.335 75.5,154.5C 75.5,153.5 75.5,152.5 75.5,151.5 Z"/></g>
<g><path style="opacity:1" fill="#fdfdfc" d="M 387.5,155.5 C 395.855,153.741 402.688,156.075 408,162.5C 412.402,179.429 405.902,187.262 388.5,186C 379.752,181.455 376.585,174.288 379,164.5C 381.362,160.973 384.196,157.973 387.5,155.5 Z"/></g>
<g><path style="opacity:1" fill="#55524c" d="M 174.5,165.5 C 176.176,166.183 176.843,167.517 176.5,169.5C 177.833,169.5 179.167,169.5 180.5,169.5C 180.238,168.022 180.571,166.689 181.5,165.5C 182.833,168.833 182.833,172.167 181.5,175.5C 180.571,174.311 180.238,172.978 180.5,171.5C 179.167,171.5 177.833,171.5 176.5,171.5C 176.762,172.978 176.429,174.311 175.5,175.5C 174.513,172.232 174.18,168.898 174.5,165.5 Z"/></g>
<g><path style="opacity:1" fill="#52504a" d="M 213.5,165.5 C 215.604,165.201 217.604,165.534 219.5,166.5C 217.997,167.052 216.331,167.052 214.5,166.5C 214.5,167.5 214.5,168.5 214.5,169.5C 217.278,169.022 219.278,170.022 220.5,172.5C 217.744,176.281 214.744,176.448 211.5,173C 213.811,173.155 216.144,173.155 218.5,173C 216.781,171.943 214.947,171.11 213,170.5C 212.36,168.735 212.527,167.068 213.5,165.5 Z"/></g>
<g><path style="opacity:1" fill="#a39778" d="M 229.5,165.5 C 230.568,164.566 231.901,164.232 233.5,164.5C 233.815,168.371 233.482,172.038 232.5,175.5C 232.5,172.167 232.5,168.833 232.5,165.5C 231.5,165.5 230.5,165.5 229.5,165.5 Z"/></g>
<g><path style="opacity:1" fill="#4d4b47" d="M 245.5,165.5 C 248.119,165.232 250.619,165.565 253,166.5C 252.798,169.228 252.964,171.895 253.5,174.5C 251.117,175.462 250.117,174.462 250.5,171.5C 249.5,171.5 248.5,171.5 247.5,171.5C 247.762,172.978 247.429,174.311 246.5,175.5C 245.513,172.232 245.18,168.898 245.5,165.5 Z"/></g>
<g><path style="opacity:1" fill="#615d53" d="M 254.5,166.5 C 256.966,165.366 259.633,165.199 262.5,166C 260.656,168.804 259.989,171.97 260.5,175.5C 259.5,175.5 258.5,175.5 257.5,175.5C 257.5,172.5 257.5,169.5 257.5,166.5C 256.5,166.5 255.5,166.5 254.5,166.5 Z"/></g>
<g><path style="opacity:1" fill="#4d4c47" d="M 292.5,164.5 C 293.765,165.514 294.431,167.014 294.5,169C 295.021,171.341 295.021,173.508 294.5,175.5C 293.914,175.291 293.414,174.957 293,174.5C 292.502,171.183 292.335,167.85 292.5,164.5 Z"/></g>
<g><path style="opacity:1" fill="#4e4e4e" d="M 78.5,166.5 C 88.0756,165.379 91.0756,169.045 87.5,177.5C 79.232,180.702 75.3987,178.035 76,169.5C 77.045,168.627 77.8783,167.627 78.5,166.5 Z"/></g>
<g><path style="opacity:1" fill="#4d4d4d" d="M 397.5,166.5 C 398.765,167.514 399.431,169.014 399.5,171C 399.167,172.5 398.833,174 398.5,175.5C 397.285,172.38 396.951,169.38 397.5,166.5 Z"/></g>
<g><path style="opacity:1" fill="#e1ce9b" d="M 247.5,166.5 C 249.346,166.222 250.68,166.889 251.5,168.5C 250.311,169.429 248.978,169.762 247.5,169.5C 247.5,168.5 247.5,167.5 247.5,166.5 Z"/></g>
<g><path style="opacity:1" fill="#4f4d48" d="M 186.5,171.5 C 186.344,172.498 186.844,173.498 188,174.5C 189.269,173.095 189.769,171.429 189.5,169.5C 188.209,169.263 187.209,169.596 186.5,170.5C 185.957,170.44 185.624,170.107 185.5,169.5C 187.396,168.534 189.396,168.201 191.5,168.5C 191.5,170.833 191.5,173.167 191.5,175.5C 189.473,175.662 187.473,175.495 185.5,175C 184.2,173.421 184.534,172.255 186.5,171.5 Z"/></g>
<g><path style="opacity:1" fill="#52504a" d="M 229.5,165.5 C 230.5,165.5 231.5,165.5 232.5,165.5C 232.5,168.833 232.5,172.167 232.5,175.5C 232.167,175.5 231.833,175.5 231.5,175.5C 231.663,173.143 231.497,170.81 231,168.5C 230.283,169.044 229.783,169.711 229.5,170.5C 227.828,176.905 226.328,176.572 225,169.5C 224.808,171.577 224.308,173.577 223.5,175.5C 222.513,172.232 222.18,168.898 222.5,165.5C 223.675,165.281 224.675,165.614 225.5,166.5C 227.299,171.595 228.632,171.262 229.5,165.5 Z"/></g>
<g><path style="opacity:1" fill="#867e67" d="M 231.5,175.5 C 230.833,173.833 230.167,172.167 229.5,170.5C 229.783,169.711 230.283,169.044 231,168.5C 231.497,170.81 231.663,173.143 231.5,175.5 Z"/></g>
<g><path style="opacity:1" fill="#54514b" d="M 237.5,165.5 C 238.822,165.33 239.989,165.663 241,166.5C 242.523,169.491 243.023,172.491 242.5,175.5C 240.167,172.833 237.833,172.833 235.5,175.5C 235.167,175.167 234.833,174.833 234.5,174.5C 235.705,171.55 236.705,168.55 237.5,165.5 Z"/></g>
<g><path style="opacity:1" fill="#4f4d48" d="M 297.5,168.5 C 299.288,168.215 300.955,168.548 302.5,169.5C 301.418,169.749 300.085,169.915 298.5,170C 299.891,171.02 301.391,171.853 303,172.5C 303.617,173.449 303.451,174.282 302.5,175C 300.741,175.798 299.074,175.631 297.5,174.5C 298.833,174.167 300.167,173.833 301.5,173.5C 298.658,172.996 297.325,171.329 297.5,168.5 Z"/></g>
<g><path style="opacity:1" fill="#5a5a5a" d="M 389.5,166.5 C 391.144,166.286 392.644,166.62 394,167.5C 394.769,170.099 394.602,172.599 393.5,175C 388.504,175.664 386.67,173.498 388,168.5C 388.717,167.956 389.217,167.289 389.5,166.5 Z"/></g>
<g><path style="opacity:1" fill="#e7e7e7" d="M 390.5,167.5 C 392.308,168.918 392.975,170.918 392.5,173.5C 391.5,173.5 390.5,173.5 389.5,173.5C 389.325,171.379 389.659,169.379 390.5,167.5 Z"/></g>
<g><path style="opacity:1" fill="#f4ebf0" d="M 79.5,169.5 C 81.5273,169.338 83.5273,169.505 85.5,170C 87.2112,171.133 87.7112,172.633 87,174.5C 84.2628,175.61 81.4294,175.777 78.5,175C 77.2427,172.924 77.576,171.09 79.5,169.5 Z"/></g>
<g><path style="opacity:1" fill="#53514b" d="M 276.5,168.5 C 282.158,167.679 283.825,169.846 281.5,175C 276.262,175.594 274.595,173.427 276.5,168.5 Z"/></g>
<g><path style="opacity:1" fill="#4c4a47" d="M 285.5,168.5 C 287.167,168.5 288.833,168.5 290.5,168.5C 290.5,170.833 290.5,173.167 290.5,175.5C 288.5,175.5 286.5,175.5 284.5,175.5C 284.232,173.901 284.566,172.568 285.5,171.5C 287.651,175.281 288.651,174.614 288.5,169.5C 287.209,169.737 286.209,169.404 285.5,168.5 Z"/></g>
<g><path style="opacity:1" fill="#ac9f7d" d="M 186.5,171.5 C 186.5,171.167 186.5,170.833 186.5,170.5C 187.209,169.596 188.209,169.263 189.5,169.5C 189.769,171.429 189.269,173.095 188,174.5C 186.844,173.498 186.344,172.498 186.5,171.5 Z"/></g>
<g><path style="opacity:1" fill="#5e5a51" d="M 201.5,168.5 C 205.241,167.599 207.241,168.932 207.5,172.5C 201.676,172.347 201.343,173.013 206.5,174.5C 200.74,176.213 199.074,174.213 201.5,168.5 Z"/></g>
<g><path style="opacity:1" fill="#c4b58b" d="M 238.5,167.5 C 240.476,168.427 240.809,169.76 239.5,171.5C 238.571,170.311 238.238,168.978 238.5,167.5 Z"/></g>
<g><path style="opacity:1" fill="#e3d09c" d="M 278.5,169.5 C 280.176,170.183 280.843,171.517 280.5,173.5C 279.5,173.5 278.5,173.5 277.5,173.5C 277.433,172.041 277.766,170.708 278.5,169.5 Z"/></g>
<g><path style="opacity:1" fill="#a39778" d="M 285.5,168.5 C 286.209,169.404 287.209,169.737 288.5,169.5C 288.651,174.614 287.651,175.281 285.5,171.5C 284.375,170.348 284.375,169.348 285.5,168.5 Z"/></g>
<g><path style="opacity:1" fill="#4e4d4e" d="M 122.5,171.5 C 123.497,171.47 124.164,171.97 124.5,173C 123.833,174.333 123.167,175.667 122.5,177C 122.613,178.28 123.28,179.113 124.5,179.5C 125.76,176.945 127.094,174.445 128.5,172C 133.992,171.514 135.825,174.014 134,179.5C 133.331,182.267 132.164,182.767 130.5,181C 132.013,179.121 132.679,176.954 132.5,174.5C 131.178,174.33 130.011,174.663 129,175.5C 128.703,182.529 126.036,183.862 121,179.5C 120.109,176.502 120.609,173.836 122.5,171.5 Z"/></g>
<g><path style="opacity:1" fill="#504d49" d="M 192.5,169.5 C 192.897,168.475 193.563,168.308 194.5,169C 195.191,170.067 195.691,171.234 196,172.5C 196.29,170.956 196.956,169.623 198,168.5C 197.394,177.295 195.56,177.628 192.5,169.5 Z"/></g>
<g><path style="opacity:1" fill="#5c5950" d="M 267.5,168.5 C 269.857,168.337 272.19,168.503 274.5,169C 273.726,171.44 272.06,172.773 269.5,173C 270.833,173.333 272.167,173.667 273.5,174C 274.833,175 274.833,176 273.5,177C 270.947,177.851 268.614,177.518 266.5,176C 267.435,173.619 267.768,171.119 267.5,168.5 Z"/></g>
<g><path style="opacity:1" fill="#efdaa3" d="M 269.5,169.5 C 271.337,169.639 271.67,170.306 270.5,171.5C 269.702,171.043 269.369,170.376 269.5,169.5 Z"/></g>
<g><path style="opacity:1" fill="#535353" d="M 75.5,181.5 C 77.6089,182.391 79.6089,183.558 81.5,185C 84.146,185.497 86.8127,185.664 89.5,185.5C 89.5,186.5 89.5,187.5 89.5,188.5C 84.3302,188.334 79.8302,190.001 76,193.5C 75.3333,192.5 75.3333,191.5 76,190.5C 77.586,189.624 79.086,188.624 80.5,187.5C 77.9463,186.101 76.2796,184.101 75.5,181.5 Z"/></g>
<g><path style="opacity:1" fill="#474747" d="M 134.5,194.5 C 130.167,194.5 125.833,194.5 121.5,194.5C 121.5,192.167 121.5,189.833 121.5,187.5C 123.177,184.223 125.51,183.723 128.5,186C 129.423,188.041 129.756,190.208 129.5,192.5C 131.781,192.077 133.448,192.744 134.5,194.5 Z"/></g>
<g><path style="opacity:1" fill="#ebe2e7" d="M 123.5,187.5 C 126.91,187.384 128.244,189.05 127.5,192.5C 125.833,192.5 124.167,192.5 122.5,192.5C 122.366,190.708 122.699,189.042 123.5,187.5 Z"/></g>
<g><path style="opacity:1" fill="#4f4e4f" d="M 100.5,188.5 C 101.497,188.47 102.164,188.97 102.5,190C 101.833,191.333 101.167,192.667 100.5,194C 100.613,195.28 101.28,196.113 102.5,196.5C 103.555,193.822 104.888,191.322 106.5,189C 108.701,188.175 110.534,188.675 112,190.5C 112.667,192.833 112.667,195.167 112,197.5C 110.815,199.559 109.648,199.726 108.5,198C 110.013,196.121 110.679,193.954 110.5,191.5C 109.178,191.33 108.011,191.663 107,192.5C 107.369,197.466 105.202,199.633 100.5,199C 97.8987,195.504 97.8987,192.004 100.5,188.5 Z"/></g>
<g><path style="opacity:1" fill="#757374" d="M 121.5,187.5 C 121.5,189.833 121.5,192.167 121.5,194.5C 125.833,194.5 130.167,194.5 134.5,194.5C 130.03,195.486 125.363,195.819 120.5,195.5C 120.194,192.615 120.527,189.948 121.5,187.5 Z"/></g>
<g><path style="opacity:1" fill="#474747" d="M 120.5,199.5 C 122.06,201.156 123.06,203.156 123.5,205.5C 124.5,205.5 125.5,205.5 126.5,205.5C 127.167,197.5 127.833,197.5 128.5,205.5C 129.5,205.5 130.5,205.5 131.5,205.5C 131.94,203.156 132.94,201.156 134.5,199.5C 134.5,202.5 134.5,205.5 134.5,208.5C 129.833,208.5 125.167,208.5 120.5,208.5C 120.5,205.5 120.5,202.5 120.5,199.5 Z"/></g>
<g><path style="opacity:1" fill="#9c989a" d="M 120.5,199.5 C 121.209,198.596 122.209,198.263 123.5,198.5C 123.5,200.833 123.5,203.167 123.5,205.5C 123.06,203.156 122.06,201.156 120.5,199.5 Z"/></g>
<g><path style="opacity:1" fill="#b0aaae" d="M 134.5,199.5 C 132.94,201.156 131.94,203.156 131.5,205.5C 131.5,203.167 131.5,200.833 131.5,198.5C 132.791,198.263 133.791,198.596 134.5,199.5 Z"/></g>
<g><path style="opacity:1" fill="#dfca95" d="M 173.5,199.5 C 173.5,203.5 173.5,207.5 173.5,211.5C 173.167,211.5 172.833,211.5 172.5,211.5C 167.53,207.675 162.53,203.842 157.5,200C 162.823,199.501 168.156,199.334 173.5,199.5 Z"/></g>
<g><path style="opacity:1" fill="#404040" d="M 173.5,198.5 C 179.833,198.5 186.167,198.5 192.5,198.5C 192.5,204.167 192.5,209.833 192.5,215.5C 186.167,215.5 179.833,215.5 173.5,215.5C 173.5,214.167 173.5,212.833 173.5,211.5C 173.5,207.5 173.5,203.5 173.5,199.5C 173.5,199.167 173.5,198.833 173.5,198.5 Z"/></g>
<g><path style="opacity:1" fill="#4c4b4b" d="M 83.5,200.5 C 89.1558,200.867 90.9891,203.867 89,209.5C 88.0347,211.26 86.868,211.594 85.5,210.5C 88.0531,208.038 88.0531,205.705 85.5,203.5C 84.2398,206.055 82.9064,208.555 81.5,211C 80.1667,211.667 78.8333,211.667 77.5,211C 74.531,207.376 74.8643,204.21 78.5,201.5C 78.8333,201.833 79.1667,202.167 79.5,202.5C 76.9814,204.641 76.9814,206.641 79.5,208.5C 80.9563,205.942 82.2896,203.275 83.5,200.5 Z"/></g>
<g><path style="opacity:1" fill="#3f403f" d="M 112.5,210.5 C 107.706,211.097 103.373,210.43 99.5,208.5C 103.167,208.5 106.833,208.5 110.5,208.5C 110.201,206.396 110.534,204.396 111.5,202.5C 112.48,205.086 112.813,207.753 112.5,210.5 Z"/></g>
<g><path style="opacity:1" fill="#767475" d="M 99.5,208.5 C 103.373,210.43 107.706,211.097 112.5,210.5C 108.03,211.486 103.363,211.819 98.5,211.5C 98.2627,210.209 98.596,209.209 99.5,208.5 Z"/></g>
<g><path style="opacity:1" fill="#7a787a" d="M 120.5,211.5 C 120.833,211.5 121.167,211.5 121.5,211.5C 121.335,214.85 121.502,218.183 122,221.5C 122.49,220.207 122.657,218.873 122.5,217.5C 126.5,217.5 130.5,217.5 134.5,217.5C 131.038,218.482 127.371,218.815 123.5,218.5C 123.5,219.833 123.5,221.167 123.5,222.5C 122.5,222.5 121.5,222.5 120.5,222.5C 120.5,218.833 120.5,215.167 120.5,211.5 Z"/></g>
<g><path style="opacity:1" fill="#3f403f" d="M 121.5,211.5 C 122.434,212.568 122.768,213.901 122.5,215.5C 126.5,215.5 130.5,215.5 134.5,215.5C 134.5,216.167 134.5,216.833 134.5,217.5C 130.5,217.5 126.5,217.5 122.5,217.5C 122.657,218.873 122.49,220.207 122,221.5C 121.502,218.183 121.335,214.85 121.5,211.5 Z"/></g>
<g><path style="opacity:1" fill="#4d4d4d" d="M 77.5,214.5 C 82.8333,213.833 85.1667,216.167 84.5,221.5C 86.1667,221.5 87.8333,221.5 89.5,221.5C 89.5,222.5 89.5,223.5 89.5,224.5C 84.8333,224.5 80.1667,224.5 75.5,224.5C 75.1524,220.915 75.819,217.582 77.5,214.5 Z"/></g>
<g><path style="opacity:1" fill="#afaaad" d="M 120.5,211.5 C 121.209,210.596 122.209,210.263 123.5,210.5C 123.5,211.833 123.5,213.167 123.5,214.5C 127.371,214.185 131.038,214.518 134.5,215.5C 130.5,215.5 126.5,215.5 122.5,215.5C 122.768,213.901 122.434,212.568 121.5,211.5C 121.167,211.5 120.833,211.5 120.5,211.5 Z"/></g>
<g><path style="opacity:1" fill="#515051" d="M 110.5,214.5 C 112.048,214.821 112.715,215.821 112.5,217.5C 111.5,217.5 110.5,217.5 109.5,217.5C 109.182,221.386 110.016,224.719 112,227.5C 107.121,225.976 102.621,223.81 98.5,221C 98.6448,220.228 98.9781,219.561 99.5,219C 103.307,217.572 106.974,216.072 110.5,214.5 Z"/></g>
<g><path style="opacity:1" fill="#8d7b7c" d="M 192.5,198.5 C 192.833,198.5 193.167,198.5 193.5,198.5C 193.5,204.5 193.5,210.5 193.5,216.5C 186.833,216.5 180.167,216.5 173.5,216.5C 173.5,216.167 173.5,215.833 173.5,215.5C 179.833,215.5 186.167,215.5 192.5,215.5C 192.5,209.833 192.5,204.167 192.5,198.5 Z"/></g>
<g><path style="opacity:1" fill="#f6dde0" d="M 172.5,211.5 C 172.833,211.5 173.167,211.5 173.5,211.5C 173.5,212.833 173.5,214.167 173.5,215.5C 173.5,215.833 173.5,216.167 173.5,216.5C 167.833,216.5 162.167,216.5 156.5,216.5C 156.5,234.833 156.5,253.167 156.5,271.5C 162.167,271.5 167.833,271.5 173.5,271.5C 173.5,271.833 173.5,272.167 173.5,272.5C 167.974,272.179 162.64,272.512 157.5,273.5C 156.883,273.389 156.383,273.056 156,272.5C 155.5,253.503 155.333,234.503 155.5,215.5C 161.167,215.5 166.833,215.5 172.5,215.5C 172.5,214.167 172.5,212.833 172.5,211.5 Z"/></g>
<g><path style="opacity:1" fill="#eeb0b0" d="M 173.5,216.5 C 180.167,216.5 186.833,216.5 193.5,216.5C 264.501,216.333 335.501,216.5 406.5,217C 413.31,225.977 420.31,234.811 427.5,243.5C 420.882,252.786 413.882,261.786 406.5,270.5C 335.503,271.5 264.503,271.833 193.5,271.5C 193.167,271.5 192.833,271.5 192.5,271.5C 186.167,271.5 179.833,271.5 173.5,271.5C 167.833,271.5 162.167,271.5 156.5,271.5C 156.5,253.167 156.5,234.833 156.5,216.5C 162.167,216.5 167.833,216.5 173.5,216.5 Z"/></g>
<g><path style="opacity:1" fill="#f8f0f4" d="M 82.5,221.5 C 81.1667,221.5 79.8333,221.5 78.5,221.5C 78.5,220.5 78.5,219.5 78.5,218.5C 79.5676,217.566 80.901,217.232 82.5,217.5C 82.5,218.833 82.5,220.167 82.5,221.5 Z"/></g>
<g><path style="opacity:1" fill="#e6dee2" d="M 103.5,219.5 C 104.5,219.5 105.5,219.5 106.5,219.5C 106.719,220.675 106.386,221.675 105.5,222.5C 104.205,221.902 102.872,221.402 101.5,221C 102.416,220.722 103.082,220.222 103.5,219.5 Z"/></g>
<g><path style="opacity:1" fill="#989496" d="M 78.5,218.5 C 78.5,219.5 78.5,220.5 78.5,221.5C 79.8333,221.5 81.1667,221.5 82.5,221.5C 81.0813,222.451 79.4147,222.784 77.5,222.5C 77.2322,220.901 77.5655,219.568 78.5,218.5 Z"/></g>
<g><path style="opacity:1" fill="#4f4e4f" d="M 122.5,224.5 C 123.497,224.47 124.164,224.97 124.5,226C 123.833,227.333 123.167,228.667 122.5,230C 122.613,231.28 123.28,232.113 124.5,232.5C 125.555,229.822 126.888,227.322 128.5,225C 130.701,224.175 132.534,224.675 134,226.5C 134.667,228.833 134.667,231.167 134,233.5C 132.815,235.559 131.648,235.726 130.5,234C 132.013,232.121 132.679,229.954 132.5,227.5C 131.178,227.33 130.011,227.663 129,228.5C 129.369,233.466 127.202,235.633 122.5,235C 119.899,231.504 119.899,228.004 122.5,224.5 Z"/></g>
<g><path style="opacity:1" fill="#414141" d="M 89.5,228.5 C 89.5,231.167 89.5,233.833 89.5,236.5C 84.3814,237.103 79.7147,236.436 75.5,234.5C 79.7147,236.436 84.3814,237.103 89.5,236.5C 89.5,233.833 89.5,231.167 89.5,228.5 Z"/></g>
<g><path style="opacity:1" fill="#fdfcfc" d="M 387.5,228.5 C 396.964,226.368 404.131,229.368 409,237.5C 410.548,256.29 402.381,262.79 384.5,257C 378.939,251.636 377.105,245.136 379,237.5C 381.362,233.973 384.196,230.973 387.5,228.5 Z"/></g>
<g><path style="opacity:1" fill="#4e4e4e" d="M 101.5,229.5 C 111.076,228.379 114.076,232.045 110.5,240.5C 102.232,243.702 98.3987,241.035 99,232.5C 100.045,231.627 100.878,230.627 101.5,229.5 Z"/></g>
<g><path style="opacity:1" fill="#f4ebf0" d="M 102.5,232.5 C 104.527,232.338 106.527,232.505 108.5,233C 110.211,234.133 110.711,235.633 110,237.5C 107.263,238.61 104.429,238.777 101.5,238C 100.243,235.924 100.576,234.09 102.5,232.5 Z"/></g>
<g><path style="opacity:1" fill="#959193" d="M 89.5,228.5 C 87.6921,229.918 87.0254,231.918 87.5,234.5C 83.5,234.5 79.5,234.5 75.5,234.5C 78.9619,233.518 82.6286,233.185 86.5,233.5C 86.5,231.5 86.5,229.5 86.5,227.5C 87.791,227.263 88.791,227.596 89.5,228.5 Z"/></g>
<g><path style="opacity:1" fill="#464444" d="M 173.5,239.5 C 177.967,238.138 179.633,238.138 178.5,239.5C 177.833,251.5 177.167,251.5 176.5,239.5C 175.5,239.5 174.5,239.5 173.5,239.5 Z"/></g>
<g><path style="opacity:1" fill="#4c4848" d="M 191.5,237.5 C 193.164,238.949 193.998,240.949 194,243.5C 196.494,240.68 197.327,240.847 196.5,244C 199.711,248.546 199.044,249.38 194.5,246.5C 193.833,247.167 193.167,247.833 192.5,248.5C 191.511,244.893 191.177,241.226 191.5,237.5 Z"/></g>
<g><path style="opacity:1" fill="#434343" d="M 77.5,240.5 C 77.5,242.833 77.5,245.167 77.5,247.5C 79.099,247.768 80.4324,247.434 81.5,246.5C 82.1667,239.833 82.8333,239.833 83.5,246.5C 84.5676,247.434 85.901,247.768 87.5,247.5C 87.5,245.167 87.5,242.833 87.5,240.5C 89.3878,242.988 90.0545,245.988 89.5,249.5C 84.8333,249.5 80.1667,249.5 75.5,249.5C 74.9455,245.988 75.6122,242.988 77.5,240.5 Z"/></g>
<g><path style="opacity:1" fill="#9d999b" d="M 77.5,240.5 C 78.4614,242.265 78.7947,244.265 78.5,246.5C 79.5,246.5 80.5,246.5 81.5,246.5C 80.4324,247.434 79.099,247.768 77.5,247.5C 77.5,245.167 77.5,242.833 77.5,240.5 Z"/></g>
<g><path style="opacity:1" fill="#b3aeb1" d="M 87.5,240.5 C 87.5,242.833 87.5,245.167 87.5,247.5C 85.901,247.768 84.5676,247.434 83.5,246.5C 84.5,246.5 85.5,246.5 86.5,246.5C 86.2053,244.265 86.5386,242.265 87.5,240.5 Z"/></g>
<g><path style="opacity:1" fill="#554d4d" d="M 228.5,238.5 C 230.026,239.105 231.026,240.271 231.5,242C 230.167,244 230.167,246 231.5,248C 230.552,248.483 229.552,248.649 228.5,248.5C 228.917,245.921 228.25,243.754 226.5,242C 227.823,241.184 228.489,240.017 228.5,238.5 Z"/></g>
<g><path style="opacity:1" fill="#4e4949" d="M 183.5,241.5 C 185.5,241.5 187.5,241.5 189.5,241.5C 189.5,243.833 189.5,246.167 189.5,248.5C 187.473,248.662 185.473,248.495 183.5,248C 182.179,246.455 182.512,245.289 184.5,244.5C 184.296,245.529 184.796,246.529 186,247.5C 187.269,246.095 187.769,244.429 187.5,242.5C 186.178,242.33 185.011,242.663 184,243.5C 183.536,242.906 183.369,242.239 183.5,241.5 Z"/></g>
<g><path style="opacity:1" fill="#524b4b" d="M 210.5,241.5 C 212.833,241.5 215.167,241.5 217.5,241.5C 217.37,249.965 216.37,250.299 214.5,242.5C 213.534,244.396 213.201,246.396 213.5,248.5C 212.5,248.5 211.5,248.5 210.5,248.5C 210.5,246.167 210.5,243.833 210.5,241.5 Z"/></g>
<g><path style="opacity:1" fill="#4e4949" d="M 233.5,238.5 C 234.777,239.694 235.444,241.36 235.5,243.5C 235.167,245.167 234.833,246.833 234.5,248.5C 233.513,245.232 233.18,241.898 233.5,238.5 Z"/></g>
<g><path style="opacity:1" fill="#564e4e" d="M 238.5,241.5 C 240.429,241.231 242.095,241.731 243.5,243C 242.451,243.492 241.451,243.326 240.5,242.5C 239.167,243.833 239.167,245.167 240.5,246.5C 242.936,245.109 243.602,245.609 242.5,248C 237.57,248.427 236.237,246.26 238.5,241.5 Z"/></g>
<g><path style="opacity:1" fill="#595050" d="M 245.5,241.5 C 249.241,240.599 251.241,241.932 251.5,245.5C 250.022,245.238 248.689,245.571 247.5,246.5C 248.391,247.59 249.391,247.59 250.5,246.5C 251.696,246.846 251.696,247.346 250.5,248C 245.279,248.61 243.612,246.443 245.5,241.5 Z"/></g>
<g><path style="opacity:1" fill="#5d5352" d="M 200.5,241.5 C 204.241,240.599 206.241,241.932 206.5,245.5C 200.676,245.347 200.343,246.013 205.5,247.5C 199.74,249.213 198.074,247.213 200.5,241.5 Z"/></g>
<g><path style="opacity:1" fill="#555555" d="M 387.5,239.5 C 393.067,238.753 394.9,241.087 393,246.5C 391.084,249.033 389.084,249.033 387,246.5C 386.444,244.115 386.61,241.782 387.5,239.5 Z"/></g>
<g><path style="opacity:1" fill="#f4f4f4" d="M 389.5,240.5 C 391.28,241.99 391.946,243.99 391.5,246.5C 390.5,246.5 389.5,246.5 388.5,246.5C 388.325,244.379 388.659,242.379 389.5,240.5 Z"/></g>
<g><path style="opacity:1" fill="#504f50" d="M 120.5,243.5 C 123.09,244.128 125.423,245.295 127.5,247C 129.81,247.497 132.143,247.663 134.5,247.5C 134.5,248.5 134.5,249.5 134.5,250.5C 132.143,250.337 129.81,250.503 127.5,251C 125.664,252.419 123.664,253.586 121.5,254.5C 120.479,253.998 120.312,253.332 121,252.5C 122.41,251.213 123.91,250.046 125.5,249C 124.335,247.916 123.002,247.083 121.5,246.5C 120.614,245.675 120.281,244.675 120.5,243.5 Z"/></g>
<g><path style="opacity:1" fill="#4d4d4d" d="M 101.5,245.5 C 102.497,245.47 103.164,245.97 103.5,247C 99.2549,252.799 100.922,255.133 108.5,254C 111.105,252.069 111.105,250.236 108.5,248.5C 107.833,249.5 107.167,250.5 106.5,251.5C 105.534,249.604 105.201,247.604 105.5,245.5C 107.924,245.192 110.257,245.526 112.5,246.5C 112.379,249.002 112.212,251.668 112,254.5C 107.199,258.749 102.866,258.416 99,253.5C 98.0182,250.225 98.8515,247.559 101.5,245.5 Z"/></g>
<g><path style="opacity:1" fill="#5a5a5a" d="M 395.5,239.5 C 402.535,239.771 403.202,241.937 397.5,246C 398.938,246.219 400.271,246.719 401.5,247.5C 399.257,248.474 396.924,248.808 394.5,248.5C 394.351,247.448 394.517,246.448 395,245.5C 396.771,244.696 398.271,243.529 399.5,242C 398.181,240.372 396.848,240.539 395.5,242.5C 394.438,241.575 394.438,240.575 395.5,239.5 Z"/></g>
<g><path style="opacity:1" fill="#584f4f" d="M 220.5,241.5 C 226.148,241.311 227.482,243.478 224.5,248C 219.57,248.427 218.237,246.26 220.5,241.5 Z"/></g>
<g><path style="opacity:1" fill="#eaaeae" d="M 221.5,242.5 C 222.586,242.62 223.253,243.287 223.5,244.5C 223.167,245.167 222.833,245.833 222.5,246.5C 221.571,245.311 221.238,243.978 221.5,242.5 Z"/></g>
<g><path style="opacity:1" fill="#7b797a" d="M 89.5,254.5 C 84.706,253.903 80.3727,254.57 76.5,256.5C 75.596,255.791 75.2627,254.791 75.5,253.5C 80.3633,253.181 85.03,253.514 89.5,254.5 Z"/></g>
<g><path style="opacity:1" fill="#454545" d="M 89.5,254.5 C 88.0821,256.308 86.0821,256.975 83.5,256.5C 83.5,258.5 83.5,260.5 83.5,262.5C 85.5,262.5 87.5,262.5 89.5,262.5C 89.5,263.5 89.5,264.5 89.5,265.5C 84.8333,265.5 80.1667,265.5 75.5,265.5C 75.5,264.5 75.5,263.5 75.5,262.5C 77.5,262.5 79.5,262.5 81.5,262.5C 81.5,260.5 81.5,258.5 81.5,256.5C 79.8333,256.5 78.1667,256.5 76.5,256.5C 80.3727,254.57 84.706,253.903 89.5,254.5 Z"/></g>
<g><path style="opacity:1" fill="#4f4e4f" d="M 122.5,257.5 C 123.497,257.47 124.164,257.97 124.5,259C 123.833,260.333 123.167,261.667 122.5,263C 122.613,264.28 123.28,265.113 124.5,265.5C 125.555,262.822 126.888,260.322 128.5,258C 130.701,257.175 132.534,257.675 134,259.5C 134.667,261.833 134.667,264.167 134,266.5C 132.815,268.559 131.648,268.726 130.5,267C 132.013,265.121 132.679,262.954 132.5,260.5C 131.178,260.33 130.011,260.663 129,261.5C 129.369,266.466 127.202,268.633 122.5,268C 119.899,264.504 119.899,261.004 122.5,257.5 Z"/></g>
<g><path style="opacity:1" fill="#484848" d="M 112.5,275.5 C 108.167,275.5 103.833,275.5 99.5,275.5C 99.5,272.833 99.5,270.167 99.5,267.5C 99.9623,266.12 100.962,265.453 102.5,265.5C 105.618,268.084 108.785,268.084 112,265.5C 112.167,266 112.333,266.5 112.5,267C 111.303,268.52 109.803,269.687 108,270.5C 107.517,271.448 107.351,272.448 107.5,273.5C 109.781,273.077 111.448,273.744 112.5,275.5 Z"/></g>
<g><path style="opacity:1" fill="#dfd8dc" d="M 101.5,268.5 C 104.91,268.384 106.244,270.05 105.5,273.5C 103.833,273.5 102.167,273.5 100.5,273.5C 100.366,271.708 100.699,270.042 101.5,268.5 Z"/></g>
<g><path style="opacity:1" fill="#545353" d="M 131.5,271.5 C 132.5,271.5 133.5,271.5 134.5,271.5C 134.5,272.5 134.5,273.5 134.5,274.5C 133.5,274.5 132.5,274.5 131.5,274.5C 131.135,277.746 132.135,280.412 134.5,282.5C 134,282.833 133.5,283.167 133,283.5C 128.835,282.056 124.668,280.722 120.5,279.5C 120.5,278.167 120.5,276.833 120.5,275.5C 124.537,274.935 128.203,273.601 131.5,271.5 Z"/></g>
<g><path style="opacity:1" fill="#ce9393" d="M 157.5,273.5 C 162.64,272.512 167.974,272.179 173.5,272.5C 173.5,276.833 173.5,281.167 173.5,285.5C 173.167,285.5 172.833,285.5 172.5,285.5C 167.722,281.271 162.722,277.271 157.5,273.5 Z"/></g>
<g><path style="opacity:1" fill="#424242" d="M 173.5,271.5 C 179.833,271.5 186.167,271.5 192.5,271.5C 192.5,277.5 192.5,283.5 192.5,289.5C 186.167,289.5 179.833,289.5 173.5,289.5C 173.5,288.167 173.5,286.833 173.5,285.5C 173.5,281.167 173.5,276.833 173.5,272.5C 173.5,272.167 173.5,271.833 173.5,271.5 Z"/></g>
<g><path style="opacity:1" fill="#515051" d="M 88.5,273.5 C 89.0967,273.735 89.4301,274.235 89.5,275C 85.5,278.333 85.5,281.667 89.5,285C 89.1667,285.5 88.8333,286 88.5,286.5C 84.3563,284.731 80.1896,283.064 76,281.5C 75.3162,280.216 75.4829,279.049 76.5,278C 80.7152,276.766 84.7152,275.266 88.5,273.5 Z"/></g>
<g><path style="opacity:1" fill="#757374" d="M 99.5,267.5 C 99.5,270.167 99.5,272.833 99.5,275.5C 103.833,275.5 108.167,275.5 112.5,275.5C 108.03,276.486 103.363,276.819 98.5,276.5C 98.19,273.287 98.5233,270.287 99.5,267.5 Z"/></g>
<g><path style="opacity:1" fill="#e2dade" d="M 124.5,276.5 C 125.978,276.238 127.311,276.571 128.5,277.5C 127.833,277.833 127.167,278.167 126.5,278.5C 125.287,278.253 124.62,277.586 124.5,276.5 Z"/></g>
<g><path style="opacity:1" fill="#e3dbdf" d="M 80.5,278.5 C 81.5,278.5 82.5,278.5 83.5,278.5C 83.5,279.5 83.5,280.5 83.5,281.5C 80.5065,281.854 79.5065,280.854 80.5,278.5 Z"/></g>
<g><path style="opacity:1" fill="#4d4c4c" d="M 98.5,279.5 C 102.182,279.335 105.848,279.501 109.5,280C 113.01,283.048 113.343,286.381 110.5,290C 106.459,290.827 102.459,290.66 98.5,289.5C 101.785,288.676 105.118,288.176 108.5,288C 110.658,286.688 110.991,285.022 109.5,283C 105.848,282.501 102.182,282.335 98.5,282.5C 98.5,281.5 98.5,280.5 98.5,279.5 Z"/></g>
<g><path style="opacity:1" fill="#747273" d="M 123.5,293.5 C 122.691,291.708 122.191,289.708 122,287.5C 121.503,290.146 121.336,292.813 121.5,295.5C 125.833,295.5 130.167,295.5 134.5,295.5C 130.03,296.486 125.363,296.819 120.5,296.5C 120.5,293.167 120.5,289.833 120.5,286.5C 121.5,286.5 122.5,286.5 123.5,286.5C 123.5,288.833 123.5,291.167 123.5,293.5 Z"/></g>
<g><path style="opacity:1" fill="#414141" d="M 134.5,295.5 C 130.167,295.5 125.833,295.5 121.5,295.5C 121.336,292.813 121.503,290.146 122,287.5C 122.191,289.708 122.691,291.708 123.5,293.5C 124.5,293.5 125.5,293.5 126.5,293.5C 127.167,285.5 127.833,285.5 128.5,293.5C 129.833,293.5 131.167,293.5 132.5,293.5C 132.192,291.076 132.526,288.743 133.5,286.5C 134.484,289.428 134.817,292.428 134.5,295.5 Z"/></g>
<g><path style="opacity:1" fill="#515050" d="M 78.5,288.5 C 79.4972,288.47 80.1639,288.97 80.5,290C 79.7113,291.626 78.7113,293.126 77.5,294.5C 79.8479,297.618 82.8479,298.285 86.5,296.5C 87.7771,294.37 87.2771,292.704 85,291.5C 84.2506,290.365 84.4173,289.365 85.5,288.5C 89.1699,290.474 90.3366,293.474 89,297.5C 86.0052,300.265 82.5052,301.098 78.5,300C 74.5419,296.092 74.5419,292.259 78.5,288.5 Z"/></g>
<g><path style="opacity:1" fill="#e6dfeb" d="M 172.5,285.5 C 172.833,285.5 173.167,285.5 173.5,285.5C 173.5,286.833 173.5,288.167 173.5,289.5C 167.833,289.5 162.167,289.5 156.5,289.5C 156.5,307.833 156.5,326.167 156.5,344.5C 162.167,344.5 167.833,344.5 173.5,344.5C 173.5,344.833 173.5,345.167 173.5,345.5C 167.974,345.179 162.64,345.512 157.5,346.5C 156.883,346.389 156.383,346.056 156,345.5C 155.5,326.503 155.333,307.503 155.5,288.5C 161.167,288.5 166.833,288.5 172.5,288.5C 172.5,287.5 172.5,286.5 172.5,285.5 Z"/></g>
<g><path style="opacity:1" fill="#b4b1cd" d="M 192.5,271.5 C 192.833,271.5 193.167,271.5 193.5,271.5C 193.5,277.5 193.5,283.5 193.5,289.5C 264.503,289.167 335.503,289.5 406.5,290.5C 413.704,299.201 420.704,308.034 427.5,317C 420.704,325.966 413.704,334.799 406.5,343.5C 335.503,344.5 264.503,344.833 193.5,344.5C 193.5,350.5 193.5,356.5 193.5,362.5C 193.167,362.5 192.833,362.5 192.5,362.5C 192.5,356.5 192.5,350.5 192.5,344.5C 186.167,344.5 179.833,344.5 173.5,344.5C 167.833,344.5 162.167,344.5 156.5,344.5C 156.5,326.167 156.5,307.833 156.5,289.5C 162.167,289.5 167.833,289.5 173.5,289.5C 179.833,289.5 186.167,289.5 192.5,289.5C 192.5,283.5 192.5,277.5 192.5,271.5 Z"/></g>
<g><path style="opacity:1" fill="#4e4e4e" d="M 101.5,294.5 C 111.076,293.379 114.076,297.045 110.5,305.5C 102.232,308.702 98.3987,306.035 99,297.5C 100.045,296.627 100.878,295.627 101.5,294.5 Z"/></g>
<g><path style="opacity:1" fill="#f4ebf0" d="M 102.5,297.5 C 104.527,297.338 106.527,297.505 108.5,298C 110.211,299.133 110.711,300.633 110,302.5C 107.263,303.61 104.429,303.777 101.5,303C 100.243,300.924 100.576,299.09 102.5,297.5 Z"/></g>
<g><path style="opacity:1" fill="#fcfcfc" d="M 388.5,301.5 C 406.832,300.986 412.999,309.319 407,326.5C 400.402,333.043 392.902,334.209 384.5,330C 378.051,323.364 376.885,315.864 381,307.5C 383.114,304.879 385.614,302.879 388.5,301.5 Z"/></g>
<g><path style="opacity:1" fill="#424242" d="M 75.5,304.5 C 80.2137,304.173 84.8804,304.507 89.5,305.5C 87.1667,305.833 84.8333,306.167 82.5,306.5C 79.7305,306.471 77.3972,305.805 75.5,304.5 Z"/></g>
<g><path style="opacity:1" fill="#4d4d4d" d="M 122.5,305.5 C 122.5,307.833 122.5,310.167 122.5,312.5C 123.978,312.762 125.311,312.429 126.5,311.5C 126.376,310.893 126.043,310.56 125.5,310.5C 126.026,304.357 128.86,303.024 134,306.5C 135.072,310.109 134.239,313.109 131.5,315.5C 131.167,315 130.833,314.5 130.5,314C 132.029,312.418 132.529,310.585 132,308.5C 130.667,307.167 129.333,307.167 128,308.5C 127.82,310.488 127.986,312.488 128.5,314.5C 125.833,314.5 123.167,314.5 120.5,314.5C 119.945,310.988 120.612,307.988 122.5,305.5 Z"/></g>
<g><path style="opacity:1" fill="#a19c9f" d="M 122.5,305.5 C 123.165,307.369 123.831,309.369 124.5,311.5C 125.107,311.376 125.44,311.043 125.5,310.5C 126.043,310.56 126.376,310.893 126.5,311.5C 125.311,312.429 123.978,312.762 122.5,312.5C 122.5,310.167 122.5,307.833 122.5,305.5 Z"/></g>
<g><path style="opacity:1" fill="#535353" d="M 98.5,309.5 C 100.609,310.391 102.609,311.558 104.5,313C 107.146,313.497 109.813,313.664 112.5,313.5C 112.5,314.5 112.5,315.5 112.5,316.5C 107.33,316.334 102.83,318.001 99,321.5C 98.3333,320.5 98.3333,319.5 99,318.5C 100.586,317.624 102.086,316.624 103.5,315.5C 100.946,314.101 99.2796,312.101 98.5,309.5 Z"/></g>
<g><path style="opacity:1" fill="#484848" d="M 89.5,320.5 C 85.1667,320.5 80.8333,320.5 76.5,320.5C 76.5,317.833 76.5,315.167 76.5,312.5C 76.9623,311.12 77.9623,310.453 79.5,310.5C 82.6185,313.084 85.7851,313.084 89,310.5C 89.1667,311 89.3333,311.5 89.5,312C 88.303,313.52 86.803,314.687 85,315.5C 84.5172,316.448 84.3505,317.448 84.5,318.5C 86.7812,318.077 88.4479,318.744 89.5,320.5 Z"/></g>
<g><path style="opacity:1" fill="#48484a" d="M 184.5,311.5 C 185.765,312.514 186.431,314.014 186.5,316C 187.021,318.341 187.021,320.508 186.5,322.5C 185.914,322.291 185.414,321.957 185,321.5C 184.502,318.183 184.335,314.85 184.5,311.5 Z"/></g>
<g><path style="opacity:1" fill="#48484a" d="M 211.5,311.5 C 213.171,314.608 214.171,318.108 214.5,322C 213.552,322.483 212.552,322.649 211.5,322.5C 211.5,318.833 211.5,315.167 211.5,311.5 Z"/></g>
<g><path style="opacity:1" fill="#777684" d="M 233.5,322.5 C 233.665,319.15 233.498,315.817 233,312.5C 232.768,313.737 232.268,314.737 231.5,315.5C 231.5,314.167 231.5,312.833 231.5,311.5C 232.5,311.5 233.5,311.5 234.5,311.5C 234.815,315.371 234.482,319.038 233.5,322.5 Z"/></g>
<g><path style="opacity:1" fill="#4e4e51" d="M 244.5,312.5 C 245.873,312.343 247.207,312.51 248.5,313C 247.713,315.879 246.713,319.046 245.5,322.5C 244.036,319.113 243.702,315.78 244.5,312.5 Z"/></g>
<g><path style="opacity:1" fill="#63626b" d="M 331.5,311.5 C 332.5,311.5 333.5,311.5 334.5,311.5C 334.211,315.106 334.544,318.606 335.5,322C 334.216,322.684 333.049,322.517 332,321.5C 331.502,318.183 331.335,314.85 331.5,311.5 Z"/></g>
<g><path style="opacity:1" fill="#dfd8dc" d="M 78.5,313.5 C 81.9103,313.384 83.2436,315.05 82.5,318.5C 80.8333,318.5 79.1667,318.5 77.5,318.5C 77.366,316.708 77.6993,315.042 78.5,313.5 Z"/></g>
<g><path style="opacity:1" fill="#4b4b4d" d="M 175.5,312.5 C 177.527,312.338 179.527,312.505 181.5,313C 182.711,313.893 182.711,314.726 181.5,315.5C 180.38,314.167 179.047,313.667 177.5,314C 176.577,316.041 176.244,318.208 176.5,320.5C 178.492,320.672 180.158,320.005 181.5,318.5C 182.998,321.133 182.165,322.466 179,322.5C 177.289,322.561 175.956,321.894 175,320.5C 174.278,317.739 174.445,315.073 175.5,312.5 Z"/></g>
<g><path style="opacity:1" fill="#48484a" d="M 205.5,315.5 C 207.199,315.34 208.866,315.506 210.5,316C 209.584,316.374 208.75,316.874 208,317.5C 207.798,319.256 207.298,320.922 206.5,322.5C 205.526,320.257 205.192,317.924 205.5,315.5 Z"/></g>
<g><path style="opacity:1" fill="#4e4d51" d="M 233.5,322.5 C 232.833,322.167 232.167,321.833 231.5,321.5C 228.78,322.842 227.114,321.842 226.5,318.5C 227.053,315.239 228.72,314.239 231.5,315.5C 232.268,314.737 232.768,313.737 233,312.5C 233.498,315.817 233.665,319.15 233.5,322.5 Z"/></g>
<g><path style="opacity:1" fill="#5a5960" d="M 249.5,312.5 C 250.777,313.694 251.444,315.36 251.5,317.5C 251.167,319.167 250.833,320.833 250.5,322.5C 249.513,319.232 249.18,315.898 249.5,312.5 Z"/></g>
<g><path style="opacity:1" fill="#444445" d="M 253.5,315.5 C 259.885,314.214 261.885,316.547 259.5,322.5C 258.04,314.721 256.373,314.721 254.5,322.5C 253.526,320.257 253.192,317.924 253.5,315.5 Z"/></g>
<g><path style="opacity:1" fill="#4b4b4d" d="M 289.5,315.5 C 291.256,316.552 291.923,318.219 291.5,320.5C 292.5,320.5 293.5,320.5 294.5,320.5C 294.215,318.712 294.548,317.045 295.5,315.5C 296.474,317.743 296.808,320.076 296.5,322.5C 290.5,323.833 288.167,321.5 289.5,315.5 Z"/></g>
<g><path style="opacity:1" fill="#676670" d="M 297.5,314.5 C 299.167,314.5 300.833,314.5 302.5,314.5C 302.5,315.5 302.5,316.5 302.5,317.5C 301.5,317.5 300.5,317.5 299.5,317.5C 299.785,319.288 299.452,320.955 298.5,322.5C 297.52,319.914 297.187,317.247 297.5,314.5 Z"/></g>
<g><path style="opacity:1" fill="#4b4b4e" d="M 337.5,315.5 C 339.288,315.215 340.955,315.548 342.5,316.5C 341.418,316.749 340.085,316.915 338.5,317C 339.563,318.188 340.897,318.688 342.5,318.5C 342.5,319.833 342.5,321.167 342.5,322.5C 340.25,322.819 338.25,322.319 336.5,321C 337.951,321.263 339.284,321.096 340.5,320.5C 339.167,319.5 337.833,318.5 336.5,317.5C 336.863,316.817 337.196,316.15 337.5,315.5 Z"/></g>
<g><path style="opacity:1" fill="#515054" d="M 189.5,315.5 C 193.241,314.599 195.241,315.932 195.5,319.5C 194.022,319.238 192.689,319.571 191.5,320.5C 192.391,321.59 193.391,321.59 194.5,320.5C 195.696,320.846 195.696,321.346 194.5,322C 189.279,322.61 187.612,320.443 189.5,315.5 Z"/></g>
<g><path style="opacity:1" fill="#515155" d="M 236.5,315.5 C 240.241,314.599 242.241,315.932 242.5,319.5C 235.866,319.677 235.866,320.177 242.5,321C 236.905,323.241 234.905,321.408 236.5,315.5 Z"/></g>
<g><path style="opacity:1" fill="#515054" d="M 262.5,315.5 C 266.241,314.599 268.241,315.932 268.5,319.5C 267.022,319.238 265.689,319.571 264.5,320.5C 265.391,321.59 266.391,321.59 267.5,320.5C 268.696,320.846 268.696,321.346 267.5,322C 262.279,322.61 260.612,320.443 262.5,315.5 Z"/></g>
<g><path style="opacity:1" fill="#49494b" d="M 316.5,315.5 C 322.158,314.679 323.825,316.846 321.5,322C 316.262,322.594 314.595,320.427 316.5,315.5 Z"/></g>
<g><path style="opacity:1" fill="#4b4b4d" d="M 216.5,315.5 C 217.79,316.058 218.623,317.058 219,318.5C 219.833,317.5 220.667,316.5 221.5,315.5C 222.057,318.975 220.89,321.975 218,324.5C 216.437,323.898 216.604,323.065 218.5,322C 217.331,319.993 216.665,317.827 216.5,315.5 Z"/></g>
<g><path style="opacity:1" fill="#a29fb8" d="M 231.5,321.5 C 228.044,320.464 227.71,318.797 230.5,316.5C 231.452,318.045 231.785,319.712 231.5,321.5 Z"/></g>
<g><path style="opacity:1" fill="#adaac5" d="M 318.5,316.5 C 320.176,317.183 320.843,318.517 320.5,320.5C 319.5,320.5 318.5,320.5 317.5,320.5C 317.433,319.041 317.766,317.708 318.5,316.5 Z"/></g>
<g><path style="opacity:1" fill="#626169" d="M 324.5,315.5 C 330.235,314.821 331.902,317.155 329.5,322.5C 327.722,322.431 325.889,322.097 324,321.5C 323.493,320.004 323.993,318.837 325.5,318C 323.381,317.658 323.047,316.825 324.5,315.5 Z"/></g>
<g><path style="opacity:1" fill="#58575d" d="M 197.5,315.5 C 199.5,315.5 201.5,315.5 203.5,315.5C 203.5,317.833 203.5,320.167 203.5,322.5C 201.5,322.5 199.5,322.5 197.5,322.5C 198.082,320.002 198.082,317.669 197.5,315.5 Z"/></g>
<g><path style="opacity:1" fill="#49494b" d="M 273.5,315.5 C 274.859,316.007 275.859,317.007 276.5,318.5C 277.167,317.5 277.833,316.5 278.5,315.5C 278.833,316 279.167,316.5 279.5,317C 278.528,319.111 277.695,321.278 277,323.5C 275.951,324.517 274.784,324.684 273.5,324C 274.428,323.612 275.095,322.945 275.5,322C 274.391,319.953 273.724,317.787 273.5,315.5 Z"/></g>
<g><path style="opacity:1" fill="#565656" d="M 395.5,312.5 C 397.467,312.261 399.301,312.594 401,313.5C 400.986,315.992 400.819,318.492 400.5,321C 398.559,321.743 396.726,321.576 395,320.5C 394.312,319.668 394.479,319.002 395.5,318.5C 396.891,319.645 398.224,319.645 399.5,318.5C 396.833,317.167 396.833,315.833 399.5,314.5C 397.956,313.378 396.623,313.711 395.5,315.5C 394.438,314.575 394.438,313.575 395.5,312.5 Z"/></g>
<g><path style="opacity:1" fill="#757374" d="M 76.5,312.5 C 76.5,315.167 76.5,317.833 76.5,320.5C 80.8333,320.5 85.1667,320.5 89.5,320.5C 85.03,321.486 80.3633,321.819 75.5,321.5C 75.19,318.287 75.5233,315.287 76.5,312.5 Z"/></g>
<g><path style="opacity:1" fill="#535257" d="M 282.5,315.5 C 288.555,314.942 289.888,317.109 286.5,322C 281.57,322.427 280.237,320.26 282.5,315.5 Z"/></g>
<g><path style="opacity:1" fill="#b2afcb" d="M 283.5,316.5 C 284.586,316.62 285.253,317.287 285.5,318.5C 285.167,319.167 284.833,319.833 284.5,320.5C 283.571,319.311 283.238,317.978 283.5,316.5 Z"/></g>
<g><path style="opacity:1" fill="#545459" d="M 308.5,314.5 C 315.901,314.947 316.234,316.78 309.5,320C 310.833,320.333 312.167,320.667 313.5,321C 314.833,322 314.833,323 313.5,324C 311.098,324.814 308.765,324.647 306.5,323.5C 307.169,320.47 307.835,317.47 308.5,314.5 Z"/></g>
<g><path style="opacity:1" fill="#afacc7" d="M 309.5,316.5 C 311.337,316.639 311.67,317.306 310.5,318.5C 309.702,318.043 309.369,317.376 309.5,316.5 Z"/></g>
<g><path style="opacity:1" fill="#515151" d="M 387.5,312.5 C 392.659,312.136 394.492,314.47 393,319.5C 390.916,322.033 388.916,322.033 387,319.5C 386.297,317.071 386.463,314.738 387.5,312.5 Z"/></g>
<g><path style="opacity:1" fill="#ececec" d="M 388.5,313.5 C 389.496,313.414 390.329,313.748 391,314.5C 391.82,316.728 391.487,318.728 390,320.5C 388.648,318.406 388.148,316.073 388.5,313.5 Z"/></g>
<g><path style="opacity:1" fill="#4a494a" d="M 77.5,324.5 C 77.5,326.833 77.5,329.167 77.5,331.5C 79.099,331.768 80.4324,331.434 81.5,330.5C 82.1667,323.833 82.8333,323.833 83.5,330.5C 85.5,330.5 87.5,330.5 89.5,330.5C 89.5,331.5 89.5,332.5 89.5,333.5C 84.8333,333.5 80.1667,333.5 75.5,333.5C 74.9455,329.988 75.6122,326.988 77.5,324.5 Z"/></g>
<g><path style="opacity:1" fill="#464646" d="M 127.5,328.5 C 128.289,328.217 128.956,327.717 129.5,327C 126.518,326.502 123.518,326.335 120.5,326.5C 122.397,325.195 124.731,324.529 127.5,324.5C 129.833,324.833 132.167,325.167 134.5,325.5C 131.671,328.159 128.671,330.659 125.5,333C 128.553,333.179 131.553,333.679 134.5,334.5C 129.88,335.493 125.214,335.827 120.5,335.5C 121.767,332.233 124.1,329.9 127.5,328.5 Z"/></g>
<g><path style="opacity:1" fill="#b6b0b4" d="M 120.5,326.5 C 123.518,326.335 126.518,326.502 129.5,327C 128.956,327.717 128.289,328.217 127.5,328.5C 125.167,327.833 122.833,327.167 120.5,326.5 Z"/></g>
<g><path style="opacity:1" fill="#8c898b" d="M 77.5,324.5 C 78.4614,326.265 78.7947,328.265 78.5,330.5C 79.5,330.5 80.5,330.5 81.5,330.5C 80.4324,331.434 79.099,331.768 77.5,331.5C 77.5,329.167 77.5,326.833 77.5,324.5 Z"/></g>
<g><path style="opacity:1" fill="#505050" d="M 86.5,337.5 C 89.9571,337.667 90.2904,338.667 87.5,340.5C 86.5344,342.396 86.2011,344.396 86.5,346.5C 87.5,346.5 88.5,346.5 89.5,346.5C 89.719,347.675 89.3857,348.675 88.5,349.5C 84.1969,348.122 80.0302,346.456 76,344.5C 75.2506,343.365 75.4173,342.365 76.5,341.5C 80.0128,340.336 83.3462,339.002 86.5,337.5 Z"/></g>
<g><path style="opacity:1" fill="#545354" d="M 120.5,339.5 C 125.167,339.5 129.833,339.5 134.5,339.5C 134.5,340.5 134.5,341.5 134.5,342.5C 129.833,342.5 125.167,342.5 120.5,342.5C 120.5,341.5 120.5,340.5 120.5,339.5 Z"/></g>
<g><path style="opacity:1" fill="#e5dee2" d="M 81.5,341.5 C 83.0481,341.821 83.7148,342.821 83.5,344.5C 79.7498,344.496 79.0831,343.496 81.5,341.5 Z"/></g>
<g><path style="opacity:1" fill="#9490af" d="M 157.5,346.5 C 162.64,345.512 167.974,345.179 173.5,345.5C 173.5,349.833 173.5,354.167 173.5,358.5C 168.167,354.5 162.833,350.5 157.5,346.5 Z"/></g>
<g><path style="opacity:1" fill="#444444" d="M 173.5,344.5 C 179.833,344.5 186.167,344.5 192.5,344.5C 192.5,350.5 192.5,356.5 192.5,362.5C 186.167,362.5 179.833,362.5 173.5,362.5C 173.5,361.167 173.5,359.833 173.5,358.5C 173.5,354.167 173.5,349.833 173.5,345.5C 173.5,345.167 173.5,344.833 173.5,344.5 Z"/></g>
<g><path style="opacity:1" fill="#4c4b4c" d="M 83.5,363.5 C 84.5676,364.434 85.901,364.768 87.5,364.5C 87.5,362.167 87.5,359.833 87.5,357.5C 89.3878,359.988 90.0545,362.988 89.5,366.5C 84.8333,366.5 80.1667,366.5 75.5,366.5C 75.5,363.5 75.5,360.5 75.5,357.5C 76.5,357.5 77.5,357.5 78.5,357.5C 78.5,359.5 78.5,361.5 78.5,363.5C 79.5,363.5 80.5,363.5 81.5,363.5C 82.1667,356.833 82.8333,356.833 83.5,363.5 Z"/></g>
<g><path style="opacity:1" fill="#b1cec3" d="M 173.5,362.5 C 179.833,362.5 186.167,362.5 192.5,362.5C 192.833,362.5 193.167,362.5 193.5,362.5C 264.501,362.333 335.501,362.5 406.5,363C 413.31,371.977 420.31,380.811 427.5,389.5C 420.882,398.786 413.882,407.786 406.5,416.5C 335.503,417.5 264.503,417.833 193.5,417.5C 193.822,423.358 193.489,429.025 192.5,434.5C 192.5,428.833 192.5,423.167 192.5,417.5C 186.167,417.5 179.833,417.5 173.5,417.5C 167.833,417.5 162.167,417.5 156.5,417.5C 156.5,399.167 156.5,380.833 156.5,362.5C 162.167,362.5 167.833,362.5 173.5,362.5 Z"/></g>
<g><path style="opacity:1" fill="#989496" d="M 87.5,357.5 C 87.5,359.833 87.5,362.167 87.5,364.5C 85.901,364.768 84.5676,364.434 83.5,363.5C 84.5,363.5 85.5,363.5 86.5,363.5C 86.2053,361.265 86.5386,359.265 87.5,357.5 Z"/></g>
<g><path style="opacity:1" fill="#414141" d="M 89.5,370.5 C 89.5,373.167 89.5,375.833 89.5,378.5C 84.3814,379.103 79.7147,378.436 75.5,376.5C 79.7147,378.436 84.3814,379.103 89.5,378.5C 89.5,375.833 89.5,373.167 89.5,370.5 Z"/></g>
<g><path style="opacity:1" fill="#fcfcfc" d="M 387.5,374.5 C 395.855,372.741 402.688,375.075 408,381.5C 412.402,398.429 405.902,406.262 388.5,405C 379.752,400.455 376.585,393.288 379,383.5C 381.362,379.973 384.196,376.973 387.5,374.5 Z"/></g>
<g><path style="opacity:1" fill="#959193" d="M 89.5,370.5 C 87.6921,371.918 87.0254,373.918 87.5,376.5C 83.5,376.5 79.5,376.5 75.5,376.5C 78.9619,375.518 82.6286,375.185 86.5,375.5C 86.5,373.5 86.5,371.5 86.5,369.5C 87.791,369.263 88.791,369.596 89.5,370.5 Z"/></g>
<g><path style="opacity:1" fill="#4d4c4d" d="M 75.5,381.5 C 79.2795,383.562 82.9461,385.896 86.5,388.5C 87.1667,386.5 87.8333,384.5 88.5,382.5C 89.487,385.768 89.8204,389.102 89.5,392.5C 85.4507,391.307 81.784,389.307 78.5,386.5C 77.8333,388.5 77.1667,390.5 76.5,392.5C 75.5108,388.893 75.1774,385.226 75.5,381.5 Z"/></g>
<g><path style="opacity:1" fill="#494c4b" d="M 195.5,383.5 C 197.164,384.949 197.998,386.949 198,389.5C 200.494,386.68 201.327,386.847 200.5,390C 203.267,395.116 202.6,395.616 198.5,391.5C 197.833,392.5 197.167,393.5 196.5,394.5C 195.511,390.893 195.177,387.226 195.5,383.5 Z"/></g>
<g><path style="opacity:1" fill="#454646" d="M 237.5,392.5 C 237.611,393.117 237.944,393.617 238.5,394C 237.251,394.74 236.251,394.573 235.5,393.5C 235.335,390.482 235.502,387.482 236,384.5C 236.183,387.365 236.683,390.031 237.5,392.5 Z"/></g>
<g><path style="opacity:1" fill="#798882" d="M 237.5,392.5 C 236.683,390.031 236.183,387.365 236,384.5C 235.502,387.482 235.335,390.482 235.5,393.5C 234.521,390.375 234.187,387.042 234.5,383.5C 235.5,383.5 236.5,383.5 237.5,383.5C 237.5,386.5 237.5,389.5 237.5,392.5 Z"/></g>
<g><path style="opacity:1" fill="#4b4b4b" d="M 396.5,389.5 C 396.712,387.616 397.712,386.283 399.5,385.5C 400.221,387.686 400.887,389.853 401.5,392C 400.953,392.925 400.287,393.758 399.5,394.5C 397.999,393.248 396.332,392.248 394.5,391.5C 394.855,390.478 395.522,389.811 396.5,389.5 Z"/></g>
<g><path style="opacity:1" fill="#494c4b" d="M 215.5,387.5 C 217.5,387.5 219.5,387.5 221.5,387.5C 221.5,389.833 221.5,392.167 221.5,394.5C 219.473,394.662 217.473,394.495 215.5,394C 214.179,392.455 214.512,391.289 216.5,390.5C 216.296,391.529 216.796,392.529 218,393.5C 219.269,392.095 219.769,390.429 219.5,388.5C 218.178,388.33 217.011,388.663 216,389.5C 215.536,388.906 215.369,388.239 215.5,387.5 Z"/></g>
<g><path style="opacity:1" fill="#444545" d="M 226.5,387.5 C 232.662,386.156 234.662,388.322 232.5,394C 231.216,394.684 230.049,394.517 229,393.5C 228.751,394.624 228.251,395.624 227.5,396.5C 226.516,393.572 226.183,390.572 226.5,387.5 Z"/></g>
<g><path style="opacity:1" fill="#5c6360" d="M 241.5,386.5 C 246.317,387.237 247.65,389.904 245.5,394.5C 243.979,394.12 242.313,393.954 240.5,394C 239.663,392.989 239.33,391.822 239.5,390.5C 241.103,390.688 242.437,390.188 243.5,389C 242.049,389.263 240.716,389.096 239.5,388.5C 240.243,387.818 240.909,387.151 241.5,386.5 Z"/></g>
<g><path style="opacity:1" fill="#4c4f4d" d="M 247.5,387.5 C 249.833,387.5 252.167,387.5 254.5,387.5C 254.37,395.965 253.37,396.299 251.5,388.5C 250.534,390.396 250.201,392.396 250.5,394.5C 249.5,394.5 248.5,394.5 247.5,394.5C 247.5,392.167 247.5,389.833 247.5,387.5 Z"/></g>
<g><path style="opacity:1" fill="#515553" d="M 204.5,387.5 C 208.241,386.599 210.241,387.932 210.5,391.5C 203.866,391.677 203.866,392.177 210.5,393C 204.905,395.241 202.905,393.408 204.5,387.5 Z"/></g>
<g><path style="opacity:1" fill="#a7c1b7" d="M 228.5,388.5 C 229.5,388.5 230.5,388.5 231.5,388.5C 231.5,389.833 231.5,391.167 231.5,392.5C 230.5,392.5 229.5,392.5 228.5,392.5C 228.5,391.167 228.5,389.833 228.5,388.5 Z"/></g>
<g><path style="opacity:1" fill="#484a49" d="M 174.5,384.5 C 175.822,384.33 176.989,384.663 178,385.5C 179.754,391.951 180.92,391.618 181.5,384.5C 182.833,384.5 184.167,384.5 185.5,384.5C 185.82,387.898 185.487,391.232 184.5,394.5C 183.686,392.234 183.186,389.9 183,387.5C 182.115,390 180.948,392.333 179.5,394.5C 178.667,392.5 177.833,390.5 177,388.5C 176.808,390.577 176.308,392.577 175.5,394.5C 174.513,391.232 174.18,387.898 174.5,384.5 Z"/></g>
<g><path style="opacity:1" fill="#aeaeae" d="M 396.5,389.5 C 398.54,388.525 398.873,389.192 397.5,391.5C 396.702,391.043 396.369,390.376 396.5,389.5 Z"/></g>
<g><path style="opacity:1" fill="#575d5b" d="M 187.5,387.5 C 189.5,387.5 191.5,387.5 193.5,387.5C 193.5,389.833 193.5,392.167 193.5,394.5C 191.5,394.5 189.5,394.5 187.5,394.5C 188.082,392.002 188.082,389.669 187.5,387.5 Z"/></g>
<g><path style="opacity:1" fill="#515151" d="M 387.5,385.5 C 392.659,385.136 394.492,387.47 393,392.5C 390.916,395.033 388.916,395.033 387,392.5C 386.297,390.071 386.463,387.738 387.5,385.5 Z"/></g>
<g><path style="opacity:1" fill="#ececec" d="M 388.5,386.5 C 389.496,386.414 390.329,386.748 391,387.5C 391.82,389.728 391.487,391.728 390,393.5C 388.648,391.406 388.148,389.073 388.5,386.5 Z"/></g>
<g><path style="opacity:1" fill="#515051" d="M 75.5,395.5 C 79.3991,397.386 83.0657,399.719 86.5,402.5C 87.1667,400.167 87.8333,397.833 88.5,395.5C 89.8333,399.167 89.8333,402.833 88.5,406.5C 85.2489,404.625 82.0823,402.625 79,400.5C 78.5045,402.473 78.3379,404.473 78.5,406.5C 77.5,406.5 76.5,406.5 75.5,406.5C 75.5,402.833 75.5,399.167 75.5,395.5 Z"/></g>
<g><path style="opacity:1" fill="#424242" d="M 75.5,410.5 C 80.2137,410.173 84.8804,410.507 89.5,411.5C 87.1667,411.833 84.8333,412.167 82.5,412.5C 79.7305,412.471 77.3972,411.805 75.5,410.5 Z"/></g>
<g><path style="opacity:1" fill="#4f4e4f" d="M 77.5,416.5 C 78.4972,416.47 79.1639,416.97 79.5,418C 78.8333,419.333 78.1667,420.667 77.5,422C 77.6135,423.28 78.2801,424.113 79.5,424.5C 80.5548,421.822 81.8882,419.322 83.5,417C 85.7008,416.175 87.5341,416.675 89,418.5C 89.6667,420.833 89.6667,423.167 89,425.5C 87.8145,427.559 86.6479,427.726 85.5,426C 87.0128,424.121 87.6795,421.954 87.5,419.5C 86.1779,419.33 85.0113,419.663 84,420.5C 84.3691,425.466 82.2024,427.633 77.5,427C 74.8987,423.504 74.8987,420.004 77.5,416.5 Z"/></g>
<g><path style="opacity:1" fill="#91aea3" d="M 173.5,418.5 C 173.5,422.833 173.5,427.167 173.5,431.5C 168.329,427.166 162.995,423 157.5,419C 162.823,418.501 168.156,418.334 173.5,418.5 Z"/></g>
<g><path style="opacity:1" fill="#424242" d="M 173.5,417.5 C 179.833,417.5 186.167,417.5 192.5,417.5C 192.5,423.167 192.5,428.833 192.5,434.5C 192.5,434.833 192.5,435.167 192.5,435.5C 186.167,435.5 179.833,435.5 173.5,435.5C 173.5,434.167 173.5,432.833 173.5,431.5C 173.5,427.167 173.5,422.833 173.5,418.5C 173.5,418.167 173.5,417.833 173.5,417.5 Z"/></g>
<g><path style="opacity:1" fill="#dccab8" d="M 173.5,435.5 C 179.833,435.5 186.167,435.5 192.5,435.5C 263.836,435.167 335.17,435.5 406.5,436.5C 413.704,445.201 420.704,454.034 427.5,463C 420.317,472.343 412.983,481.51 405.5,490.5C 334.5,490.5 263.5,490.5 192.5,490.5C 186.167,490.5 179.833,490.5 173.5,490.5C 167.833,490.5 162.167,490.5 156.5,490.5C 156.5,472.167 156.5,453.833 156.5,435.5C 162.167,435.5 167.833,435.5 173.5,435.5 Z"/></g>
<g><path style="opacity:1" fill="#525152" d="M 75.5,440.5 C 79.8266,441.551 84.16,442.718 88.5,444C 88.9574,444.414 89.2907,444.914 89.5,445.5C 86.8845,446.762 84.2179,447.928 81.5,449C 84.2179,450.072 86.8845,451.238 89.5,452.5C 85.2166,454.93 80.55,456.597 75.5,457.5C 75.5,456.5 75.5,455.5 75.5,454.5C 84.7963,453.19 84.7963,451.857 75.5,450.5C 75.5,449.5 75.5,448.5 75.5,447.5C 83.8587,446.386 84.1921,444.886 76.5,443C 75.7476,442.329 75.4142,441.496 75.5,440.5 Z"/></g>
<g><path style="opacity:1" fill="#fcfbfb" d="M 388.5,447.5 C 406.832,446.986 412.999,455.319 407,472.5C 400.402,479.043 392.902,480.209 384.5,476C 378.939,470.636 377.105,464.136 379,456.5C 381.406,452.592 384.572,449.592 388.5,447.5 Z"/></g>
<g><path style="opacity:1" fill="#464544" d="M 173.5,459.5 C 177.967,458.138 179.633,458.138 178.5,459.5C 177.833,471.5 177.167,471.5 176.5,459.5C 175.5,459.5 174.5,459.5 173.5,459.5 Z"/></g>
<g><path style="opacity:1" fill="#4a4947" d="M 191.5,457.5 C 193.164,458.949 193.998,460.949 194,463.5C 196.825,460.662 197.658,460.996 196.5,464.5C 196.529,466.029 197.196,467.196 198.5,468C 196.953,468.333 195.62,467.833 194.5,466.5C 193.833,467.167 193.167,467.833 192.5,468.5C 191.511,464.893 191.177,461.226 191.5,457.5 Z"/></g>
<g><path style="opacity:1" fill="#474645" d="M 227.5,458.5 C 229.026,459.105 230.026,460.271 230.5,462C 229.68,464.333 229.347,466.5 229.5,468.5C 227.95,466.667 226.95,464.501 226.5,462C 227.337,460.989 227.67,459.822 227.5,458.5 Z"/></g>
<g><path style="opacity:1" fill="#4b4b4b" d="M 78.5,460.5 C 86.3209,458.833 89.8209,461.833 89,469.5C 85.2685,473.05 81.2685,473.383 77,470.5C 74.7292,466.697 75.2292,463.363 78.5,460.5 Z"/></g>
<g><path style="opacity:1" fill="#4d4b4a" d="M 183.5,461.5 C 185.5,461.5 187.5,461.5 189.5,461.5C 189.5,463.833 189.5,466.167 189.5,468.5C 187.473,468.662 185.473,468.495 183.5,468C 182.179,466.455 182.512,465.289 184.5,464.5C 184.296,465.529 184.796,466.529 186,467.5C 187.269,466.095 187.769,464.429 187.5,462.5C 186.178,462.33 185.011,462.663 184,463.5C 183.536,462.906 183.369,462.239 183.5,461.5 Z"/></g>
<g><path style="opacity:1" fill="#4c4a49" d="M 211.5,462.5 C 217.206,460.552 218.873,462.552 216.5,468.5C 215.817,468.137 215.15,467.804 214.5,467.5C 215.301,465.958 215.634,464.292 215.5,462.5C 214.167,462.5 212.833,462.5 211.5,462.5 Z"/></g>
<g><path style="opacity:1" fill="#8a8179" d="M 232.5,457.5 C 233.675,457.281 234.675,457.614 235.5,458.5C 235.18,461.715 235.18,465.048 235.5,468.5C 234.5,468.5 233.5,468.5 232.5,468.5C 232.5,464.833 232.5,461.167 232.5,457.5 Z"/></g>
<g><path style="opacity:1" fill="#504e4c" d="M 244.5,461.5 C 246.833,461.5 249.167,461.5 251.5,461.5C 251.37,469.965 250.37,470.299 248.5,462.5C 247.534,464.396 247.201,466.396 247.5,468.5C 246.5,468.5 245.5,468.5 244.5,468.5C 244.5,466.167 244.5,463.833 244.5,461.5 Z"/></g>
<g><path style="opacity:1" fill="#5a5754" d="M 220.5,460.5 C 222.346,460.222 223.68,460.889 224.5,462.5C 223.726,463.711 222.893,463.711 222,462.5C 220.812,463.563 220.312,464.897 220.5,466.5C 222.331,465.948 223.997,465.948 225.5,466.5C 223.878,468.623 221.878,468.956 219.5,467.5C 218.073,464.884 218.406,462.551 220.5,460.5 Z"/></g>
<g><path style="opacity:1" fill="#514f4d" d="M 237.5,461.5 C 243.158,460.679 244.825,462.846 242.5,468C 237.126,468.762 235.459,466.595 237.5,461.5 Z"/></g>
<g><path style="opacity:1" fill="#f0e7ec" d="M 79.5,463.5 C 81.8568,463.337 84.1902,463.503 86.5,464C 87.5536,465.388 87.7203,466.888 87,468.5C 84.1993,469.795 81.3659,469.795 78.5,468.5C 77.3162,466.533 77.6495,464.866 79.5,463.5 Z"/></g>
<g><path style="opacity:1" fill="#5a5754" d="M 200.5,461.5 C 204.241,460.599 206.241,461.932 206.5,465.5C 200.676,465.347 200.343,466.013 205.5,467.5C 199.74,469.213 198.074,467.213 200.5,461.5 Z"/></g>
<g><path style="opacity:1" fill="#d0bfaf" d="M 239.5,462.5 C 241.176,463.183 241.843,464.517 241.5,466.5C 240.5,466.5 239.5,466.5 238.5,466.5C 238.433,465.041 238.766,463.708 239.5,462.5 Z"/></g>
<g><path style="opacity:1" fill="#484746" d="M 211.5,464.5 C 213.648,464.389 213.981,465.056 212.5,466.5C 212.957,467.298 213.624,467.631 214.5,467.5C 211.248,468.915 210.248,467.915 211.5,464.5 Z"/></g>
<g><path style="opacity:1" fill="#92897f" d="M 211.5,462.5 C 212.833,462.5 214.167,462.5 215.5,462.5C 215.634,464.292 215.301,465.958 214.5,467.5C 213.624,467.631 212.957,467.298 212.5,466.5C 213.981,465.056 213.648,464.389 211.5,464.5C 210.494,463.604 210.494,462.938 211.5,462.5 Z"/></g>
<g><path style="opacity:1" fill="#5a5a5a" d="M 395.5,458.5 C 402.626,458.363 402.959,459.03 396.5,460.5C 401.048,460.858 402.382,463.024 400.5,467C 398.833,467.667 397.167,467.667 395.5,467C 394.289,466.107 394.289,465.274 395.5,464.5C 396.891,465.645 398.224,465.645 399.5,464.5C 398.311,463.571 396.978,463.238 395.5,463.5C 395.5,461.833 395.5,460.167 395.5,458.5 Z"/></g>
<g><path style="opacity:1" fill="#515151" d="M 387.5,458.5 C 392.659,458.136 394.492,460.47 393,465.5C 390.916,468.033 388.916,468.033 387,465.5C 386.297,463.071 386.463,460.738 387.5,458.5 Z"/></g>
<g><path style="opacity:1" fill="#ececec" d="M 388.5,459.5 C 389.496,459.414 390.329,459.748 391,460.5C 391.82,462.728 391.487,464.728 390,466.5C 388.648,464.406 388.148,462.073 388.5,459.5 Z"/></g>
<g><path style="opacity:1" fill="#414141" d="M 89.5,478.5 C 87.5,478.5 85.5,478.5 83.5,478.5C 83.5,480.833 83.5,483.167 83.5,485.5C 85.5,485.5 87.5,485.5 89.5,485.5C 87.6028,486.805 85.2695,487.471 82.5,487.5C 79.7305,487.471 77.3972,486.805 75.5,485.5C 77.5,485.5 79.5,485.5 81.5,485.5C 81.5,483.167 81.5,480.833 81.5,478.5C 79.5,478.5 77.5,478.5 75.5,478.5C 77.3972,477.195 79.7305,476.529 82.5,476.5C 85.2695,476.529 87.6028,477.195 89.5,478.5 Z"/></g>
<g><path style="opacity:1" fill="#b4afb2" d="M 75.5,478.5 C 77.5,478.5 79.5,478.5 81.5,478.5C 81.5,480.833 81.5,483.167 81.5,485.5C 79.5,485.5 77.5,485.5 75.5,485.5C 76.9187,484.549 78.5853,484.216 80.5,484.5C 80.5,482.833 80.5,481.167 80.5,479.5C 78.5853,479.784 76.9187,479.451 75.5,478.5 Z"/></g>
<g><path style="opacity:1" fill="#c9c2c6" d="M 89.5,478.5 C 88.0813,479.451 86.4147,479.784 84.5,479.5C 84.5,481.167 84.5,482.833 84.5,484.5C 86.4147,484.216 88.0813,484.549 89.5,485.5C 87.5,485.5 85.5,485.5 83.5,485.5C 83.5,483.167 83.5,480.833 83.5,478.5C 85.5,478.5 87.5,478.5 89.5,478.5 Z"/></g>
<g><path style="opacity:1" fill="#f5e9e8" d="M 192.5,490.5 C 263.5,490.5 334.5,490.5 405.5,490.5C 335.002,491.499 264.335,491.833 193.5,491.5C 193.5,499.5 193.5,507.5 193.5,515.5C 193.167,515.5 192.833,515.5 192.5,515.5C 192.5,507.167 192.5,498.833 192.5,490.5 Z"/></g>
<g><path style="opacity:1" fill="#c5b29e" d="M 173.5,491.5 C 173.5,495.833 173.5,500.167 173.5,504.5C 168.016,500.583 162.682,496.417 157.5,492C 162.823,491.501 168.156,491.334 173.5,491.5 Z"/></g>
<g><path style="opacity:1" fill="#414141" d="M 173.5,490.5 C 179.833,490.5 186.167,490.5 192.5,490.5C 192.5,498.833 192.5,507.167 192.5,515.5C 192.5,517.833 192.5,520.167 192.5,522.5C 192.5,525.167 192.5,527.833 192.5,530.5C 192.396,532.703 191.73,534.703 190.5,536.5C 186.13,539.193 184.297,543.193 185,548.5C 183.667,549.833 182.333,549.833 181,548.5C 181.422,543.614 179.922,539.614 176.5,536.5C 174.615,534.947 173.615,532.947 173.5,530.5C 173.5,527.833 173.5,525.167 173.5,522.5C 173.5,520.167 173.5,517.833 173.5,515.5C 173.5,511.833 173.5,508.167 173.5,504.5C 173.5,500.167 173.5,495.833 173.5,491.5C 173.5,491.167 173.5,490.833 173.5,490.5 Z"/></g>
<g><path style="opacity:1" fill="#b2cfc4" d="M 173.5,515.5 C 173.5,517.833 173.5,520.167 173.5,522.5C 153.274,522.974 133.608,526.474 114.5,533C 104.242,536.866 95.7418,543.033 89,551.5C 86.0904,560.441 88.2571,567.941 95.5,574C 110.523,584.455 127.189,590.788 145.5,593C 182.271,598.775 218.271,595.775 253.5,584C 262.376,580.785 269.876,575.618 276,568.5C 279.272,562.139 279.272,555.806 276,549.5C 267.483,540.656 257.316,534.49 245.5,531C 228.121,526.286 210.454,523.453 192.5,522.5C 192.5,520.167 192.5,517.833 192.5,515.5C 192.833,515.5 193.167,515.5 193.5,515.5C 220.855,516.538 247.521,521.371 273.5,530C 282.107,533.302 290.107,537.635 297.5,543C 301.807,546.465 305.141,550.631 307.5,555.5C 309.714,560.007 310.047,564.673 308.5,569.5C 305.584,575.939 301.251,581.439 295.5,586C 274.431,598.246 251.764,605.912 227.5,609C 190.255,613.453 153.255,612.12 116.5,605C 99.5586,601.245 83.892,594.578 69.5,585C 63.6326,580.666 59.6326,575.166 57.5,568.5C 57.2941,564.102 57.6274,559.768 58.5,555.5C 59.9758,553.231 61.4758,550.898 63,548.5C 72.9731,539.214 84.4731,532.381 97.5,528C 122.17,519.943 147.503,515.776 173.5,515.5 Z"/></g>
<g><path style="opacity:1" fill="#fdfefe" d="M 173.5,522.5 C 173.5,525.167 173.5,527.833 173.5,530.5C 156.421,529.956 140.421,533.789 125.5,542C 114.384,551.332 115.051,559.999 127.5,568C 144.793,575.966 162.96,579.466 182,578.5C 202.482,579.503 221.982,575.67 240.5,567C 252.5,558.667 252.5,550.333 240.5,542C 225.414,534.429 209.414,530.596 192.5,530.5C 192.5,527.833 192.5,525.167 192.5,522.5C 210.454,523.453 228.121,526.286 245.5,531C 257.316,534.49 267.483,540.656 276,549.5C 279.272,555.806 279.272,562.139 276,568.5C 269.876,575.618 262.376,580.785 253.5,584C 218.271,595.775 182.271,598.775 145.5,593C 127.189,590.788 110.523,584.455 95.5,574C 88.2571,567.941 86.0904,560.441 89,551.5C 95.7418,543.033 104.242,536.866 114.5,533C 133.608,526.474 153.274,522.974 173.5,522.5 Z"/></g>
<g><path style="opacity:1" fill="#b3cfc4" d="M 173.5,530.5 C 173.615,532.947 174.615,534.947 176.5,536.5C 165.318,536.081 155.485,539.415 147,546.5C 146.333,548.833 146.333,551.167 147,553.5C 150.968,556.902 155.468,559.402 160.5,561C 174.1,563.83 187.766,564.163 201.5,562C 206.739,560.587 211.739,558.587 216.5,556C 222.036,551.162 221.703,546.829 215.5,543C 207.657,538.884 199.323,536.718 190.5,536.5C 191.73,534.703 192.396,532.703 192.5,530.5C 209.414,530.596 225.414,534.429 240.5,542C 252.5,550.333 252.5,558.667 240.5,567C 221.982,575.67 202.482,579.503 182,578.5C 162.96,579.466 144.793,575.966 127.5,568C 115.051,559.999 114.384,551.332 125.5,542C 140.421,533.789 156.421,529.956 173.5,530.5 Z"/></g>
<g><path style="opacity:1" fill="#fdfefd" d="M 176.5,536.5 C 179.922,539.614 181.422,543.614 181,548.5C 182.333,549.833 183.667,549.833 185,548.5C 184.297,543.193 186.13,539.193 190.5,536.5C 199.323,536.718 207.657,538.884 215.5,543C 221.703,546.829 222.036,551.162 216.5,556C 211.739,558.587 206.739,560.587 201.5,562C 187.766,564.163 174.1,563.83 160.5,561C 155.468,559.402 150.968,556.902 147,553.5C 146.333,551.167 146.333,548.833 147,546.5C 155.485,539.415 165.318,536.081 176.5,536.5 Z"/></g>
<g><path style="opacity:1" fill="#404040" d="M 1.5,555.5 C 20.5,555.5 39.5,555.5 58.5,555.5C 57.6274,559.768 57.2941,564.102 57.5,568.5C 55.3737,580.295 59.0403,589.795 68.5,597C 88.9871,609.942 111.32,617.942 135.5,621C 176.873,625.935 217.873,623.935 258.5,615C 272.155,611.452 284.822,605.785 296.5,598C 306.425,590.984 310.425,581.484 308.5,569.5C 310.047,564.673 309.714,560.007 307.5,555.5C 363.5,555.5 419.5,555.5 475.5,555.5C 475.5,592.833 475.5,630.167 475.5,667.5C 317.5,667.5 159.5,667.5 1.5,667.5C 1.5,630.167 1.5,592.833 1.5,555.5 Z"/></g>
<g><path style="opacity:1" fill="#8fada2" d="M 57.5,568.5 C 59.6326,575.166 63.6326,580.666 69.5,585C 83.892,594.578 99.5586,601.245 116.5,605C 153.255,612.12 190.255,613.453 227.5,609C 251.764,605.912 274.431,598.246 295.5,586C 301.251,581.439 305.584,575.939 308.5,569.5C 310.425,581.484 306.425,590.984 296.5,598C 284.822,605.785 272.155,611.452 258.5,615C 217.873,623.935 176.873,625.935 135.5,621C 111.32,617.942 88.9871,609.942 68.5,597C 59.0403,589.795 55.3737,580.295 57.5,568.5 Z"/></g>
<g><path style="opacity:1" fill="#e0e0e0" d="M 376.5,609.5 C 377.21,611.893 377.877,614.393 378.5,617C 378.167,617.167 377.833,617.333 377.5,617.5C 376.52,614.914 376.187,612.247 376.5,609.5 Z"/></g>
<g><path style="opacity:1" fill="#c4c4c4" d="M 368.5,613.5 C 367.737,612.732 366.737,612.232 365.5,612C 368.833,611.333 372.167,611.333 375.5,612C 374.743,613.512 373.743,614.846 372.5,616C 373.5,616.333 374.5,616.667 375.5,617C 369.522,618.337 368.855,617.003 373.5,613C 371.735,612.36 370.068,612.527 368.5,613.5 Z"/></g>
<g><path style="opacity:1" fill="#9a9a9a" d="M 362.5,611.5 C 363.693,611.97 364.36,612.97 364.5,614.5C 364.167,615.5 363.833,616.5 363.5,617.5C 362.534,615.604 362.201,613.604 362.5,611.5 Z"/></g>
<g><path style="opacity:1" fill="#999999" d="M 386.5,611.5 C 390.068,611.759 391.401,613.759 390.5,617.5C 388.833,617.5 387.167,617.5 385.5,617.5C 386.243,615.304 386.576,613.304 386.5,611.5 Z"/></g>
<g><path style="opacity:1" fill="#cbcbcb" d="M 393.5,609.5 C 394.239,609.369 394.906,609.536 395.5,610C 395.064,612.178 394.564,614.678 394,617.5C 393.879,615.273 393.046,613.44 391.5,612C 392.756,611.583 393.423,610.75 393.5,609.5 Z"/></g>
<g><path style="opacity:1" fill="#aaaaaa" d="M 396.5,611.5 C 397.873,611.343 399.207,611.51 400.5,612C 399.08,613.53 398.08,615.363 397.5,617.5C 396.534,615.604 396.201,613.604 396.5,611.5 Z"/></g>
<g><path style="opacity:1" fill="#bababa" d="M 407.5,612.5 C 406.005,612.415 405.005,613.081 404.5,614.5C 405.638,616.36 406.971,617.027 408.5,616.5C 404.506,618.349 403.006,617.015 404,612.5C 405.292,611.209 406.458,611.209 407.5,612.5 Z"/></g>
<g><path style="opacity:1" fill="#c4c4c4" d="M 419.5,616.5 C 418.402,615.399 418.235,614.066 419,612.5C 420.049,611.483 421.216,611.316 422.5,612C 420.137,612.589 419.137,614.089 419.5,616.5 Z"/></g>
<g><path style="opacity:1" fill="#c7c7c7" d="M 428.5,612.5 C 426.088,612.694 425.088,614.027 425.5,616.5C 424.402,615.399 424.235,614.066 425,612.5C 426.292,611.209 427.458,611.209 428.5,612.5 Z"/></g>
<g><path style="opacity:1" fill="#646464" d="M 428.5,612.5 C 428.5,613.833 428.5,615.167 428.5,616.5C 427.5,617.833 426.5,617.833 425.5,616.5C 425.088,614.027 426.088,612.694 428.5,612.5 Z"/></g>
<g><path style="opacity:1" fill="#5e5e5e" d="M 414.5,612.5 C 413.839,613.718 413.172,615.051 412.5,616.5C 411.12,614.023 410.12,614.023 409.5,616.5C 409.167,616.5 408.833,616.5 408.5,616.5C 406.971,617.027 405.638,616.36 404.5,614.5C 405.005,613.081 406.005,612.415 407.5,612.5C 410.005,611.583 412.338,611.583 414.5,612.5 Z"/></g>
<g><path style="opacity:1" fill="#b2b2b2" d="M 428.5,616.5 C 428.5,615.167 428.5,613.833 428.5,612.5C 429.117,612.611 429.617,612.944 430,613.5C 432.47,611.513 435.303,611.013 438.5,612C 439.76,613.814 439.76,615.647 438.5,617.5C 437.517,610.972 436.35,610.972 435,617.5C 434.115,610.922 432.948,610.922 431.5,617.5C 430.787,615.565 429.787,615.232 428.5,616.5 Z"/></g>
<g><path style="opacity:1" fill="#cbcbcb" d="M 330.5,613.5 C 331.209,612.596 332.209,612.263 333.5,612.5C 333.351,613.552 333.517,614.552 334,615.5C 335.008,610.459 335.508,610.792 335.5,616.5C 333.5,616.5 331.5,616.5 329.5,616.5C 329.263,615.209 329.596,614.209 330.5,613.5 Z"/></g>
<g><path style="opacity:1" fill="#474747" d="M 330.5,613.5 C 332.337,613.639 332.67,614.306 331.5,615.5C 330.702,615.043 330.369,614.376 330.5,613.5 Z"/></g>
<g><path style="opacity:1" fill="#cbcbcb" d="M 339.5,615.5 C 339.607,617.379 339.107,617.712 338,616.5C 337.212,614.835 336.878,613.169 337,611.5C 337.934,612.858 338.768,614.192 339.5,615.5 Z"/></g>
<g><path style="opacity:1" fill="#a2a2a2" d="M 357.5,611.5 C 359.103,611.312 360.437,611.812 361.5,613C 360.833,613.333 360.167,613.667 359.5,614C 360.973,614.71 361.64,615.876 361.5,617.5C 357.107,617.543 356.774,617.043 360.5,616C 357.418,615.479 356.418,613.979 357.5,611.5 Z"/></g>
<g><path style="opacity:1" fill="#9c9c9c" d="M 380.5,611.5 C 384.068,611.759 385.401,613.759 384.5,617.5C 379.74,617.799 378.406,615.799 380.5,611.5 Z"/></g>
<g><path style="opacity:1" fill="#c0c0c0" d="M 339.5,615.5 C 339.672,611.029 340.506,610.696 342,614.5C 342.915,613.672 343.581,612.672 344,611.5C 344.442,613.684 343.942,615.684 342.5,617.5C 341.735,616.388 340.735,615.721 339.5,615.5 Z"/></g>
<g><path style="opacity:1" fill="#c6c6c6" d="M 350.5,615.5 C 351.232,614.192 352.066,612.858 353,611.5C 353.154,613.705 352.488,615.705 351,617.5C 350.536,616.906 350.369,616.239 350.5,615.5 Z"/></g>
<g><path style="opacity:1" fill="#bbbbbb" d="M 350.5,615.5 C 349.265,615.721 348.265,616.388 347.5,617.5C 346.058,615.684 345.558,613.684 346,611.5C 347.347,615.375 348.514,615.375 349.5,611.5C 350.429,612.689 350.762,614.022 350.5,615.5 Z"/></g>
<g><path style="opacity:1" fill="#cbcbcb" d="M 368.5,613.5 C 368.586,614.496 368.252,615.329 367.5,616C 368.167,616.333 368.833,616.667 369.5,617C 364.537,617.388 364.204,616.221 368.5,613.5 Z"/></g>
<g><path style="opacity:1" fill="#c6c6c6" d="M 414.5,612.5 C 414.5,614.167 414.5,615.833 414.5,617.5C 412.585,617.784 410.919,617.451 409.5,616.5C 410.12,614.023 411.12,614.023 412.5,616.5C 413.172,615.051 413.839,613.718 414.5,612.5 Z"/></g>
<g><path style="opacity:1" fill="#a4a4a4" d="M 419.5,616.5 C 421.109,616.094 422.443,616.094 423.5,616.5C 422.042,617.782 420.708,617.782 419.5,616.5 Z"/></g>
</svg>
