<?xml version="1.0" encoding="UTF-8"?>
<!DOCTYPE svg PUBLIC "-//W3C//DTD SVG 1.1//EN" "http://www.w3.org/Graphics/SVG/1.1/DTD/svg11.dtd">
<svg xmlns="http://www.w3.org/2000/svg" version="1.1" width="200px" height="200px" style="shape-rendering:geometricPrecision; text-rendering:geometricPrecision; image-rendering:optimizeQuality; fill-rule:evenodd; clip-rule:evenodd" xmlns:xlink="http://www.w3.org/1999/xlink">
<g><path style="opacity:0.851" fill="#4c4568" d="M 57.5,75.5 C 56.7375,76.2679 55.7375,76.7679 54.5,77C 55.6956,77.6543 55.6956,78.1543 54.5,78.5C 52.1433,77.1287 49.81,75.7954 47.5,74.5C 46.3279,74.9186 45.3279,75.5853 44.5,76.5C 44.1667,75.8333 43.8333,75.1667 43.5,74.5C 42.135,75.8069 40.8016,75.8069 39.5,74.5C 38.8333,74.5 38.5,74.8333 38.5,75.5C 37.8333,75.5 37.5,75.8333 37.5,76.5C 37.1667,76.5 36.8333,76.5 36.5,76.5C 36.1667,75.1667 35.8333,75.1667 35.5,76.5C 35.1667,76.5 34.8333,76.5 34.5,76.5C 32.7761,76.4607 32.4427,76.794 33.5,77.5C 32.0813,78.4511 30.4147,78.7845 28.5,78.5C 28.5,79.5 28.5,80.5 28.5,81.5C 26.2478,82.3331 24.0811,82.3331 22,81.5C 21.5,82 21,82.5 20.5,83C 20.5,84.3333 20.5,85.6667 20.5,87C 22.9369,88.1542 25.4369,88.6542 28,88.5C 29.2692,87.0953 29.7692,85.4286 29.5,83.5C 30.4614,85.2646 30.7947,87.2646 30.5,89.5C 35.3633,89.1805 40.03,89.5139 44.5,90.5C 40.1161,90.1744 35.7828,90.5078 31.5,91.5C 32.6888,92.4287 34.0222,92.762 35.5,92.5C 29.5,93.1667 23.5,93.8333 17.5,94.5C 16.8333,94.5 16.1667,94.5 15.5,94.5C 14.5041,94.4142 13.6708,94.7476 13,95.5C 12.7922,97.859 12.6256,100.026 12.5,102C 14.1918,103.307 15.5251,104.807 16.5,106.5C 15.1667,106.833 15.1667,107.167 16.5,107.5C 16.5569,108.609 16.8902,109.609 17.5,110.5C 17.5654,110.938 17.3988,111.272 17,111.5C 15.8873,110.695 14.7206,110.028 13.5,109.5C 13.0844,107.248 11.751,105.748 9.5,105C 10.0453,101.115 10.5453,96.9483 11,92.5C 13.4838,92.3432 15.9838,92.1765 18.5,92C 15.971,90.938 13.3043,90.1047 10.5,89.5C 10.8076,88.6919 11.3076,88.0253 12,87.5C 14.4848,88.6037 16.6515,88.1037 18.5,86C 17.3595,85.2588 17.3595,84.4255 18.5,83.5C 16.087,83.246 13.7537,83.246 11.5,83.5C 13.4271,81.8981 15.5938,80.5647 18,79.5C 18.1705,77.2852 18.8372,75.2852 20,73.5C 21.113,74.7604 21.2797,75.927 20.5,77C 22.7749,77.405 24.7749,76.905 26.5,75.5C 28.5558,73.7599 29.8891,71.4265 30.5,68.5C 31.439,70.0534 32.6057,71.3867 34,72.5C 38.3333,69.8333 42.6667,69.8333 47,72.5C 48.7618,72.0556 48.5951,71.5556 46.5,71C 47.6526,69.117 49.3193,68.2837 51.5,68.5C 51.4209,72.4907 53.4209,74.824 57.5,75.5 Z M 21.5,90.5 C 22.675,90.281 23.675,90.6143 24.5,91.5C 23.277,92.6139 21.9437,92.7805 20.5,92C 21.056,91.6174 21.3893,91.1174 21.5,90.5 Z M 26.5,90.5 C 27.7562,90.4614 28.7562,90.9614 29.5,92C 28.1667,92.6667 26.8333,92.6667 25.5,92C 26.056,91.6174 26.3893,91.1174 26.5,90.5 Z"/></g>
<g><path style="opacity:0.004" fill="#000000" d="M 26.5,75.5 C 25.8333,74.1667 25.8333,74.1667 26.5,75.5 Z"/></g>
<g><path style="opacity:0.831" fill="#534b75" d="M 93.5,84.5 C 92.7387,85.3909 91.7387,86.0576 90.5,86.5C 83.5706,85.0739 76.5706,84.5739 69.5,85C 68.7476,85.6708 68.4142,86.5041 68.5,87.5C 68.5,90.1667 68.5,92.8333 68.5,95.5C 68.1667,95.5 67.8333,95.5 67.5,95.5C 65.1903,96.1638 62.6903,96.4971 60,96.5C 46.0058,94.6697 31.8392,94.003 17.5,94.5C 23.5,93.8333 29.5,93.1667 35.5,92.5C 40.607,92.8345 44.9403,92.5012 48.5,91.5C 50.3131,88.0708 50.8131,84.4041 50,80.5C 46.1429,78.1524 41.9762,76.8191 37.5,76.5C 37.5,75.8333 37.8333,75.5 38.5,75.5C 39.1667,75.5 39.5,75.1667 39.5,74.5C 40.8016,75.8069 42.135,75.8069 43.5,74.5C 43.8333,75.1667 44.1667,75.8333 44.5,76.5C 45.3279,75.5853 46.3279,74.9186 47.5,74.5C 49.81,75.7954 52.1433,77.1287 54.5,78.5C 55.6956,78.1543 55.6956,77.6543 54.5,77C 55.7375,76.7679 56.7375,76.2679 57.5,75.5C 57.9175,74.7784 58.5842,74.2784 59.5,74C 58.6919,73.6924 58.0253,73.1924 57.5,72.5C 58.64,68.3393 60.64,67.6726 63.5,70.5C 61.9958,73.9977 62.8291,77.331 66,80.5C 68.1363,79.97 69.9696,80.8033 71.5,83C 78.8516,83.3637 86.1849,83.8637 93.5,84.5 Z M 51.5,82.5 C 53.5271,83.1247 55.3605,83.1247 57,82.5C 58.9365,85.2984 58.1031,86.9651 54.5,87.5C 53.5,87.1667 52.5,86.8333 51.5,86.5C 52.3629,85.2736 52.3629,83.9403 51.5,82.5 Z M 63.5,84.5 C 64.8471,85.1712 66.0138,85.1712 67,84.5C 67.49,85.7932 67.6567,87.1266 67.5,88.5C 65.567,88.2714 63.9003,87.4381 62.5,86C 63.056,85.6174 63.3893,85.1174 63.5,84.5 Z M 67.5,95.5 C 62.8215,95.6658 58.1548,95.4992 53.5,95C 50.7056,93.964 50.2056,92.464 52,90.5C 53.9743,90.6256 56.141,90.7922 58.5,91C 59.0253,91.6924 59.6919,92.1924 60.5,92.5C 62.5098,90.8287 64.8431,90.162 67.5,90.5C 67.5,92.1667 67.5,93.8333 67.5,95.5 Z"/></g>
<g><path style="opacity:1" fill="#333170" d="M 161.5,95.5 C 157.765,93.2754 154.432,90.442 151.5,87C 150.255,86.2086 148.922,85.7086 147.5,85.5C 142.387,85.5782 138.054,83.9116 134.5,80.5C 132.803,80.8988 131.137,81.3988 129.5,82C 131.396,83.7239 133.062,85.5572 134.5,87.5C 133.833,87.5 133.167,87.5 132.5,87.5C 129.529,86.1734 126.529,84.8401 123.5,83.5C 121.187,84.5005 119.187,85.8338 117.5,87.5C 116.167,87.8333 116.167,88.1667 117.5,88.5C 115.562,90.1628 113.228,90.8294 110.5,90.5C 110.953,89.5416 111.619,88.7083 112.5,88C 111.167,87 111.167,86 112.5,85C 117.393,83.5179 122.393,82.6846 127.5,82.5C 127.421,81.0695 127.754,79.7362 128.5,78.5C 127,78.1667 125.5,77.8333 124,77.5C 119.855,79.5617 115.355,80.7283 110.5,81C 108.03,82.0214 105.696,83.1881 103.5,84.5C 101.076,85.0305 98.743,85.8638 96.5,87C 87.122,87.1239 77.7886,87.2906 68.5,87.5C 68.4142,86.5041 68.7476,85.6708 69.5,85C 76.5706,84.5739 83.5706,85.0739 90.5,86.5C 91.7387,86.0576 92.7387,85.3909 93.5,84.5C 102.03,81.2647 110.697,78.098 119.5,75C 122.5,74.3333 125.5,74.3333 128.5,75C 136.469,78.65 144.469,82.3167 152.5,86C 155.704,89.0359 158.704,92.2026 161.5,95.5 Z M 132.5,87.5 C 127.723,88.4884 122.723,88.4884 117.5,87.5C 119.187,85.8338 121.187,84.5005 123.5,83.5C 126.529,84.8401 129.529,86.1734 132.5,87.5 Z"/></g>
<g><path style="opacity:1" fill="#2b2a82" d="M 110.5,90.5 C 109.443,91.206 109.776,91.5393 111.5,91.5C 111.5,91.8333 111.5,92.1667 111.5,92.5C 110.5,92.5 109.5,92.5 108.5,92.5C 108.5,91.5 108.5,90.5 108.5,89.5C 106.234,89.8588 104.401,89.1922 103,87.5C 102.667,87.8333 102.333,88.1667 102,88.5C 101.7,86.9343 102.2,85.601 103.5,84.5C 105.696,83.1881 108.03,82.0214 110.5,81C 115.355,80.7283 119.855,79.5617 124,77.5C 125.5,77.8333 127,78.1667 128.5,78.5C 127.754,79.7362 127.421,81.0695 127.5,82.5C 122.393,82.6846 117.393,83.5179 112.5,85C 111.167,86 111.167,87 112.5,88C 111.619,88.7083 110.953,89.5416 110.5,90.5 Z"/></g>
<g><path style="opacity:1" fill="#2a2982" d="M 147.5,85.5 C 149.428,87.5864 151.428,89.7531 153.5,92C 152.833,92.6667 152.167,93.3333 151.5,94C 148.167,94.6667 144.833,94.6667 141.5,94C 142.711,93.1072 142.711,92.2739 141.5,91.5C 139.423,89.9182 137.09,88.9182 134.5,88.5C 134.5,88.1667 134.5,87.8333 134.5,87.5C 133.062,85.5572 131.396,83.7239 129.5,82C 131.137,81.3988 132.803,80.8988 134.5,80.5C 138.054,83.9116 142.387,85.5782 147.5,85.5 Z"/></g>
<g><path style="opacity:0.926" fill="#3e3a81" d="M 34.5,76.5 C 34.8333,76.5 35.1667,76.5 35.5,76.5C 35.8333,76.5 36.1667,76.5 36.5,76.5C 36.8333,76.5 37.1667,76.5 37.5,76.5C 41.9762,76.8191 46.1429,78.1524 50,80.5C 50.8131,84.4041 50.3131,88.0708 48.5,91.5C 47.2921,90.7659 45.9587,90.4326 44.5,90.5C 40.03,89.5139 35.3633,89.1805 30.5,89.5C 30.7947,87.2646 30.4614,85.2646 29.5,83.5C 29.1667,82.8333 28.8333,82.1667 28.5,81.5C 28.5,80.5 28.5,79.5 28.5,78.5C 30.4147,78.7845 32.0813,78.4511 33.5,77.5C 34.1667,77.5 34.5,77.1667 34.5,76.5 Z"/></g>
<g><path style="opacity:1" fill="#2e2b79" d="M 103.5,84.5 C 102.2,85.601 101.7,86.9343 102,88.5C 102.333,88.1667 102.667,87.8333 103,87.5C 104.401,89.1922 106.234,89.8588 108.5,89.5C 108.5,90.5 108.5,91.5 108.5,92.5C 109.5,92.5 110.5,92.5 111.5,92.5C 108.452,94.1187 105.119,95.1187 101.5,95.5C 100.662,95.8417 100.328,96.5084 100.5,97.5C 97.5176,99.0775 94.8509,98.7442 92.5,96.5C 91.391,96.4431 90.391,96.1098 89.5,95.5C 88.0536,94.3871 86.3869,94.2204 84.5,95C 83.6266,96.045 82.6266,96.8783 81.5,97.5C 80.5,97.8333 79.8333,98.5 79.5,99.5C 74.523,96.971 74.6896,94.3044 80,91.5C 84.6552,92.2193 89.1552,91.386 93.5,89C 91,88.8333 88.5,88.6667 86,88.5C 83.05,88.5676 80.3834,89.2343 78,90.5C 75.8938,88.709 73.3938,88.0423 70.5,88.5C 70.8016,91.0593 70.4682,93.3926 69.5,95.5C 69.1667,95.5 68.8333,95.5 68.5,95.5C 68.5,92.8333 68.5,90.1667 68.5,87.5C 77.7886,87.2906 87.122,87.1239 96.5,87C 98.743,85.8638 101.076,85.0305 103.5,84.5 Z"/></g>
<g><path style="opacity:1" fill="#2a2886" d="M 79.5,99.5 C 79.5,101.5 79.5,103.5 79.5,105.5C 74.2882,104.471 69.2882,104.471 64.5,105.5C 62.4211,102.894 60.4211,102.894 58.5,105.5C 57.0267,104.929 55.36,104.929 53.5,105.5C 53.33,104.178 53.6634,103.011 54.5,102C 59.1063,100.839 63.773,99.8387 68.5,99C 69.3366,97.9887 69.67,96.8221 69.5,95.5C 70.4682,93.3926 70.8016,91.0593 70.5,88.5C 73.3938,88.0423 75.8938,88.709 78,90.5C 80.3834,89.2343 83.05,88.5676 86,88.5C 88.5,88.6667 91,88.8333 93.5,89C 89.1552,91.386 84.6552,92.2193 80,91.5C 74.6896,94.3044 74.523,96.971 79.5,99.5 Z"/></g>
<g><path style="opacity:0.857" fill="#414168" d="M 117.5,87.5 C 122.723,88.4884 127.723,88.4884 132.5,87.5C 133.167,87.5 133.833,87.5 134.5,87.5C 134.5,87.8333 134.5,88.1667 134.5,88.5C 136.474,89.9059 138.474,91.4059 140.5,93C 139.833,93.3333 139.167,93.6667 138.5,94C 139.416,94.2784 140.082,94.7784 140.5,95.5C 140.167,95.5 139.833,95.5 139.5,95.5C 138.833,95.5 138.167,95.5 137.5,95.5C 126.167,95.5 114.833,95.5 103.5,95.5C 102.833,95.5 102.167,95.5 101.5,95.5C 105.119,95.1187 108.452,94.1187 111.5,92.5C 146.167,92.1667 146.167,91.8333 111.5,91.5C 109.776,91.5393 109.443,91.206 110.5,90.5C 113.228,90.8294 115.562,90.1628 117.5,88.5C 117.5,88.1667 117.5,87.8333 117.5,87.5 Z"/></g>
<g><path style="opacity:0.896" fill="#2d2d6e" d="M 147.5,85.5 C 148.922,85.7086 150.255,86.2086 151.5,87C 154.432,90.442 157.765,93.2754 161.5,95.5C 161.5,96.5 161.5,97.5 161.5,98.5C 159.833,98.5 158.167,98.5 156.5,98.5C 156.167,98.5 155.833,98.5 155.5,98.5C 155.167,98.5 154.833,98.5 154.5,98.5C 152.183,97.4655 151.183,98.4655 151.5,101.5C 150.5,100.833 149.5,100.167 148.5,99.5C 148.167,99.5 147.833,99.5 147.5,99.5C 147.5,98.8333 147.167,98.5 146.5,98.5C 146.167,98.5 145.833,98.5 145.5,98.5C 145.158,97.6618 144.492,97.3284 143.5,97.5C 143.167,96.1667 142.833,96.1667 142.5,97.5C 141.833,96.8333 141.167,96.1667 140.5,95.5C 140.082,94.7784 139.416,94.2784 138.5,94C 139.167,93.6667 139.833,93.3333 140.5,93C 138.474,91.4059 136.474,89.9059 134.5,88.5C 137.09,88.9182 139.423,89.9182 141.5,91.5C 142.711,92.2739 142.711,93.1072 141.5,94C 144.833,94.6667 148.167,94.6667 151.5,94C 152.167,93.3333 152.833,92.6667 153.5,92C 151.428,89.7531 149.428,87.5864 147.5,85.5 Z"/></g>
<g><path style="opacity:1" fill="#292987" d="M 47.5,103.5 C 47.0831,104.124 46.4164,104.457 45.5,104.5C 40.6082,102.867 35.6082,101.867 30.5,101.5C 27.3945,102.733 24.3945,102.567 21.5,101C 19.9632,99.8904 19.2965,98.3904 19.5,96.5C 23.9252,95.8101 27.7585,96.8101 31,99.5C 34.2025,98.6903 37.3692,97.6903 40.5,96.5C 42.3703,97.8662 44.3703,99.0328 46.5,100C 47.3366,101.011 47.67,102.178 47.5,103.5 Z"/></g>
<g><path style="opacity:1" fill="#2c297e" d="M 17.5,94.5 C 31.8392,94.003 46.0058,94.6697 60,96.5C 62.6903,96.4971 65.1903,96.1638 67.5,95.5C 67.8333,95.5 68.1667,95.5 68.5,95.5C 68.8333,95.5 69.1667,95.5 69.5,95.5C 69.67,96.8221 69.3366,97.9887 68.5,99C 63.773,99.8387 59.1063,100.839 54.5,102C 53.6634,103.011 53.33,104.178 53.5,105.5C 55.36,104.929 57.0267,104.929 58.5,105.5C 56.6365,106.793 54.6365,106.793 52.5,105.5C 51.6162,101.532 49.9495,100.865 47.5,103.5C 47.67,102.178 47.3366,101.011 46.5,100C 44.3703,99.0328 42.3703,97.8662 40.5,96.5C 37.3692,97.6903 34.2025,98.6903 31,99.5C 27.7585,96.8101 23.9252,95.8101 19.5,96.5C 19.2965,98.3904 19.9632,99.8904 21.5,101C 24.3945,102.567 27.3945,102.733 30.5,101.5C 30.6107,102.117 30.944,102.617 31.5,103C 26.6666,103.883 22,103.383 17.5,101.5C 16.1783,99.1354 16.1783,96.8021 17.5,94.5 Z"/></g>
<g><path style="opacity:0.573" fill="#4d4b60" d="M 101.5,95.5 C 102.167,95.5 102.833,95.5 103.5,95.5C 114.833,96.8333 126.167,96.8333 137.5,95.5C 138.167,95.5 138.833,95.5 139.5,95.5C 139.833,96.8333 140.167,96.8333 140.5,95.5C 141.167,96.1667 141.833,96.8333 142.5,97.5C 142.833,97.5 143.167,97.5 143.5,97.5C 143.842,98.3382 144.508,98.6716 145.5,98.5C 145.833,99.8333 146.167,99.8333 146.5,98.5C 147.167,98.5 147.5,98.8333 147.5,99.5C 147.833,100.833 148.167,100.833 148.5,99.5C 149.5,100.167 150.5,100.833 151.5,101.5C 151.183,98.4655 152.183,97.4655 154.5,98.5C 154.833,99.8333 155.167,99.8333 155.5,98.5C 155.833,98.5 156.167,98.5 156.5,98.5C 156.5,98.8333 156.5,99.1667 156.5,99.5C 157.006,101.105 157.673,101.439 158.5,100.5C 159.492,100.328 160.158,100.662 160.5,101.5C 159.833,101.5 159.5,101.833 159.5,102.5C 154.304,103.585 154.304,104.419 159.5,105C 160.381,105.708 161.047,106.542 161.5,107.5C 158.833,107.833 158.833,108.167 161.5,108.5C 161.842,109.338 162.508,109.672 163.5,109.5C 164.167,110.833 164.833,110.833 165.5,109.5C 166.404,110.209 166.737,111.209 166.5,112.5C 164.064,112.683 161.897,112.016 160,110.5C 159.667,110.833 159.333,111.167 159,111.5C 157.595,110.269 156.429,108.936 155.5,107.5C 155.158,106.662 154.492,106.328 153.5,106.5C 149.829,103.788 145.496,101.288 140.5,99C 128.819,98.1675 117.152,98.3341 105.5,99.5C 103.899,100.204 102.565,101.371 101.5,103C 100.551,103.617 99.7175,103.451 99,102.5C 96.5876,104.792 94.0876,106.126 91.5,106.5C 90.8333,106.833 90.1667,107.167 89.5,107.5C 87.7163,108.72 86.0496,108.72 84.5,107.5C 85.5573,106.794 85.2239,106.461 83.5,106.5C 83.5,105.167 83.5,103.833 83.5,102.5C 86.7832,100.876 89.7832,98.8761 92.5,96.5C 94.8509,98.7442 97.5176,99.0775 100.5,97.5C 100.328,96.5084 100.662,95.8417 101.5,95.5 Z M 86.5,105.5 C 86.7828,104.711 87.2828,104.044 88,103.5C 88.5281,104.816 88.0281,105.483 86.5,105.5 Z"/></g>
<g><path style="opacity:0.008" fill="#7e7f7e" d="M 138.5,99.5 C 139.833,100.167 139.833,100.167 138.5,99.5 Z"/></g>
<g><path style="opacity:1" fill="#2b2a7a" d="M 15.5,94.5 C 16.1667,94.5 16.8333,94.5 17.5,94.5C 16.1783,96.8021 16.1783,99.1354 17.5,101.5C 22,103.383 26.6666,103.883 31.5,103C 30.944,102.617 30.6107,102.117 30.5,101.5C 35.6082,101.867 40.6082,102.867 45.5,104.5C 46.4164,104.457 47.0831,104.124 47.5,103.5C 49.9495,100.865 51.6162,101.532 52.5,105.5C 54.6365,106.793 56.6365,106.793 58.5,105.5C 60.4211,102.894 62.4211,102.894 64.5,105.5C 69.2882,104.471 74.2882,104.471 79.5,105.5C 79.5,103.5 79.5,101.5 79.5,99.5C 79.8333,98.5 80.5,97.8333 81.5,97.5C 81.2317,100.119 81.565,102.619 82.5,105C 80.9221,106.094 79.2554,106.928 77.5,107.5C 67.7026,106.601 57.7026,106.601 47.5,107.5C 37.6118,105.639 27.9451,104.306 18.5,103.5C 17.3527,103.182 16.5194,102.516 16,101.5C 15.5034,99.1902 15.3367,96.8568 15.5,94.5 Z"/></g>
<g><path style="opacity:0.869" fill="#3b356d" d="M 15.5,94.5 C 15.3367,96.8568 15.5034,99.1902 16,101.5C 16.5194,102.516 17.3527,103.182 18.5,103.5C 27.9451,104.306 37.6118,105.639 47.5,107.5C 48.5664,109.701 49.233,112.035 49.5,114.5C 47.9724,113.198 46.9724,111.531 46.5,109.5C 43.7615,110.035 41.9282,109.035 41,106.5C 37.5894,107.293 34.0894,107.793 30.5,108C 31.566,109.159 31.2327,109.992 29.5,110.5C 28.3951,109.4 27.0618,108.733 25.5,108.5C 23.3926,107.532 21.0593,107.198 18.5,107.5C 18.1667,107.5 17.8333,107.5 17.5,107.5C 17.5,106.833 17.1667,106.5 16.5,106.5C 15.5251,104.807 14.1918,103.307 12.5,102C 12.6256,100.026 12.7922,97.859 13,95.5C 13.6708,94.7476 14.5041,94.4142 15.5,94.5 Z"/></g>
<g><path style="opacity:0.008" fill="#7e7f7e" d="M 91.5,106.5 C 92.8333,107.167 92.8333,107.167 91.5,106.5 Z"/></g>
<g><path style="opacity:0.004" fill="#000000" d="M 110.5,106.5 C 111.833,107.167 111.833,107.167 110.5,106.5 Z"/></g>
<g><path style="opacity:0.008" fill="#7e7f7e" d="M 153.5,106.5 C 152.833,107.167 152.833,107.167 153.5,106.5 Z"/></g>
<g><path style="opacity:0.027" fill="#48496d" d="M 155.5,107.5 C 154.833,108.167 154.833,108.167 155.5,107.5 Z"/></g>
<g><path style="opacity:0.016" fill="#3f403f" d="M 12.5,109.5 C 11.8333,108.167 11.8333,108.167 12.5,109.5 Z"/></g>
<g><path style="opacity:0.008" fill="#000000" d="M 12.5,109.5 C 12.8333,109.5 13.1667,109.5 13.5,109.5C 13.3147,110.17 12.9813,110.17 12.5,109.5 Z"/></g>
<g><path style="opacity:0.95" fill="#3c3966" d="M 110.5,107.5 C 114.233,108.821 118.066,108.821 122,107.5C 122.667,108.167 123.333,108.833 124,109.5C 128.079,108.371 132.245,108.204 136.5,109C 139.074,110.289 139.741,112.122 138.5,114.5C 137.566,113.432 137.232,112.099 137.5,110.5C 132.795,109.099 128.129,109.266 123.5,111C 124.056,111.383 124.389,111.883 124.5,112.5C 122.914,113.413 121.414,113.413 120,112.5C 119.667,115.167 119.333,117.833 119,120.5C 118.439,121.022 117.772,121.355 117,121.5C 115.85,120.576 114.85,120.576 114,121.5C 112.739,118.914 112.572,116.414 113.5,114C 112,111.833 110.833,112 110,114.5C 109.692,113.692 109.192,113.025 108.5,112.5C 107.51,114.291 107.51,116.457 108.5,119C 108.37,120.059 107.87,120.892 107,121.5C 102.358,120.014 97.8582,120.348 93.5,122.5C 92.209,122.737 91.209,122.404 90.5,121.5C 92.0269,121.573 93.0269,120.906 93.5,119.5C 94.8333,116.5 94.8333,113.5 93.5,110.5C 93.6107,109.883 93.944,109.383 94.5,109C 98.8874,108.774 103.221,108.274 107.5,107.5C 108.192,108.025 108.692,108.692 109,109.5C 109.278,108.584 109.778,107.918 110.5,107.5 Z"/></g>
<g><path style="opacity:0.82" fill="#322f67" d="M 178.5,103.5 C 178.317,105.936 178.984,108.103 180.5,110C 178.567,110.251 176.734,110.751 175,111.5C 172.731,111.096 170.231,110.929 167.5,111C 168.598,111.77 168.598,112.603 167.5,113.5C 166.833,113.5 166.5,113.167 166.5,112.5C 166.737,111.209 166.404,110.209 165.5,109.5C 164.833,109.5 164.167,109.5 163.5,109.5C 163.158,108.662 162.492,108.328 161.5,108.5C 161.5,108.167 161.5,107.833 161.5,107.5C 161.047,106.542 160.381,105.708 159.5,105C 154.304,104.419 154.304,103.585 159.5,102.5C 161.224,102.539 161.557,102.206 160.5,101.5C 160.158,100.662 159.492,100.328 158.5,100.5C 158.158,99.6618 157.492,99.3284 156.5,99.5C 156.5,99.1667 156.5,98.8333 156.5,98.5C 158.167,98.5 159.833,98.5 161.5,98.5C 161.5,97.5 161.5,96.5 161.5,95.5C 163.129,96.6253 164.629,97.9586 166,99.5C 168.895,95.6591 172.395,92.6591 176.5,90.5C 176.714,92.1439 176.38,93.6439 175.5,95C 176.798,97.7269 177.798,100.56 178.5,103.5 Z"/></g>
<g><path style="opacity:1" fill="#2a2884" d="M 170.5,99.5 C 172.39,99.2965 173.89,99.9632 175,101.5C 175.333,101.167 175.667,100.833 176,100.5C 176.687,102.568 176.52,104.568 175.5,106.5C 171.555,107.491 167.555,107.824 163.5,107.5C 163.714,105.856 163.38,104.356 162.5,103C 165.501,102.262 168.168,101.096 170.5,99.5 Z"/></g>
<g><path style="opacity:0.429" fill="#474577" d="M 89.5,95.5 C 87.029,94.9637 84.8623,95.9637 83,98.5C 82.4209,99.9285 82.5876,101.262 83.5,102.5C 83.5,103.833 83.5,105.167 83.5,106.5C 83.5,107.167 83.8333,107.5 84.5,107.5C 86.0496,108.72 87.7163,108.72 89.5,107.5C 90.9264,108.341 92.2597,109.341 93.5,110.5C 93.7373,111.791 93.404,112.791 92.5,113.5C 92.4606,112.417 92.1272,111.417 91.5,110.5C 87.8249,109.944 84.3249,108.944 81,107.5C 78.4298,110.822 78.2631,114.155 80.5,117.5C 84.122,118.659 87.7887,118.825 91.5,118C 92.3366,116.989 92.67,115.822 92.5,114.5C 93.4511,115.919 93.7845,117.585 93.5,119.5C 92.391,119.557 91.391,119.89 90.5,120.5C 86.547,120.898 82.8803,121.231 79.5,121.5C 79.7373,120.209 79.404,119.209 78.5,118.5C 78.1667,114.5 77.8333,114.5 77.5,118.5C 76.2905,118.932 75.2905,119.599 74.5,120.5C 73.8333,120.5 73.5,120.833 73.5,121.5C 71.0599,121.373 68.3932,121.04 65.5,120.5C 64.8333,120.5 64.1667,120.5 63.5,120.5C 62.8783,119.373 62.045,118.373 61,117.5C 60.2798,119.056 59.1132,120.056 57.5,120.5C 54.0263,120.231 50.3597,120.231 46.5,120.5C 46.5,119.833 46.1667,119.5 45.5,119.5C 45.5,118.833 45.1667,118.5 44.5,118.5C 47.0711,116.422 47.0711,114.256 44.5,112C 45.3805,111.292 46.0472,110.458 46.5,109.5C 46.9724,111.531 47.9724,113.198 49.5,114.5C 50.1926,118.17 52.1926,119.17 55.5,117.5C 56.8333,116.167 56.8333,114.833 55.5,113.5C 56.5457,110.954 58.3791,109.287 61,108.5C 61.7648,108.57 62.2648,108.903 62.5,109.5C 60.3141,109.511 59.4808,110.511 60,112.5C 60.7083,111.619 61.5416,110.953 62.5,110.5C 63.6448,111.793 63.3115,112.959 61.5,114C 62.3686,116.579 64.0352,118.412 66.5,119.5C 67.5984,118.385 68.7651,118.385 70,119.5C 77.1108,117.676 78.2775,114.676 73.5,110.5C 73.8763,108.197 74.8763,107.863 76.5,109.5C 76.3284,108.508 76.6618,107.842 77.5,107.5C 79.2554,106.928 80.9221,106.094 82.5,105C 81.565,102.619 81.2317,100.119 81.5,97.5C 82.6266,96.8783 83.6266,96.045 84.5,95C 86.3869,94.2204 88.0536,94.3871 89.5,95.5 Z M 69.5,112.5 C 72.2296,113.991 72.063,115.325 69,116.5C 67.07,114.923 67.2367,113.59 69.5,112.5 Z M 62.5,109.5 C 62.5,109.833 62.5,110.167 62.5,110.5C 61.5416,110.953 60.7083,111.619 60,112.5C 59.4808,110.511 60.3141,109.511 62.5,109.5 Z M 77.5,118.5 C 77.8333,119.833 78.1667,119.833 78.5,118.5C 79.404,119.209 79.7373,120.209 79.5,121.5C 77.7085,121.634 76.0418,121.301 74.5,120.5C 75.2905,119.599 76.2905,118.932 77.5,118.5 Z"/></g>
<g><path style="opacity:0.408" fill="#423e56" d="M 178.5,103.5 C 179.219,105.091 180.219,106.591 181.5,108C 184.715,108.274 187.381,109.607 189.5,112C 186.294,113.843 182.794,114.676 179,114.5C 175.027,113.863 171.194,113.529 167.5,113.5C 168.598,112.603 168.598,111.77 167.5,111C 170.231,110.929 172.731,111.096 175,111.5C 176.734,110.751 178.567,110.251 180.5,110C 178.984,108.103 178.317,105.936 178.5,103.5 Z"/></g>
<g><path style="opacity:1" fill="#35347e" d="M 95.5,109.5 C 99.3751,109.085 103.042,109.585 106.5,111C 104.1,111.186 101.766,111.686 99.5,112.5C 101.078,113.298 102.744,113.798 104.5,114C 103.594,115.699 103.261,117.533 103.5,119.5C 100.833,119.5 98.1667,119.5 95.5,119.5C 95.5,116.167 95.5,112.833 95.5,109.5 Z"/></g>
<g><path style="opacity:0.557" fill="#484357" d="M 16.5,107.5 C 16.8333,107.5 17.1667,107.5 17.5,107.5C 17.8333,107.5 18.1667,107.5 18.5,107.5C 20.6074,108.468 22.9407,108.802 25.5,108.5C 27.0618,108.733 28.3951,109.4 29.5,110.5C 27.2293,113.764 27.396,117.097 30,120.5C 30.6708,121.252 31.5041,121.586 32.5,121.5C 33.853,122.526 34.853,123.859 35.5,125.5C 35.5,125.833 35.5,126.167 35.5,126.5C 35.5,127.167 35.5,127.833 35.5,128.5C 35.5,128.833 35.5,129.167 35.5,129.5C 32.9179,129.975 30.9179,129.308 29.5,127.5C 30.2297,125.955 31.563,125.122 33.5,125C 30.6807,124.932 28.514,123.766 27,121.5C 25.3335,122.34 25.1669,121.84 26.5,120C 25.9341,119.005 25.2674,118.172 24.5,117.5C 24.67,116.178 24.3366,115.011 23.5,114C 25.0074,113.163 25.5074,111.996 25,110.5C 22.7116,110.737 20.2116,110.737 17.5,110.5C 16.8902,109.609 16.5569,108.609 16.5,107.5 Z"/></g>
<g><path style="opacity:1" fill="#3b3980" d="M 77.5,107.5 C 76.6618,107.842 76.3284,108.508 76.5,109.5C 74.8763,107.863 73.8763,108.197 73.5,110.5C 78.2775,114.676 77.1108,117.676 70,119.5C 68.7651,118.385 67.5984,118.385 66.5,119.5C 64.0352,118.412 62.3686,116.579 61.5,114C 63.3115,112.959 63.6448,111.793 62.5,110.5C 62.5,110.167 62.5,109.833 62.5,109.5C 62.2648,108.903 61.7648,108.57 61,108.5C 58.3791,109.287 56.5457,110.954 55.5,113.5C 56.8333,114.833 56.8333,116.167 55.5,117.5C 52.1926,119.17 50.1926,118.17 49.5,114.5C 49.233,112.035 48.5664,109.701 47.5,107.5C 57.7026,106.601 67.7026,106.601 77.5,107.5 Z M 69.5,112.5 C 67.2367,113.59 67.07,114.923 69,116.5C 72.063,115.325 72.2296,113.991 69.5,112.5 Z M 62.5,109.5 C 62.5,109.833 62.5,110.167 62.5,110.5C 61.5416,110.953 60.7083,111.619 60,112.5C 59.4808,110.511 60.3141,109.511 62.5,109.5 Z"/></g>
<g><path style="opacity:1" fill="#3b387b" d="M 151.5,111.5 C 152.535,113.205 152.535,114.872 151.5,116.5C 148.145,117.089 144.978,118.089 142,119.5C 140.97,119.164 140.47,118.497 140.5,117.5C 141.511,111.068 145.178,108.068 151.5,108.5C 151.5,109.5 151.5,110.5 151.5,111.5 Z"/></g>
<g><path style="opacity:1" fill="#3a367a" d="M 138.5,114.5 C 139.506,115.396 139.506,116.062 138.5,116.5C 136.352,116.389 136.019,117.056 137.5,118.5C 135.709,119.17 134.042,119.837 132.5,120.5C 124.51,123.171 121.843,120.504 124.5,112.5C 124.389,111.883 124.056,111.383 123.5,111C 128.129,109.266 132.795,109.099 137.5,110.5C 137.232,112.099 137.566,113.432 138.5,114.5 Z"/></g>
<g><path style="opacity:1" fill="#39397e" d="M 92.5,113.5 C 92.5,113.833 92.5,114.167 92.5,114.5C 92.67,115.822 92.3366,116.989 91.5,118C 87.7887,118.825 84.122,118.659 80.5,117.5C 78.2631,114.155 78.4298,110.822 81,107.5C 84.3249,108.944 87.8249,109.944 91.5,110.5C 92.1272,111.417 92.4606,112.417 92.5,113.5 Z"/></g>
<g><path style="opacity:0.027" fill="#1b1a31" d="M 24.5,117.5 C 24.631,118.239 24.4643,118.906 24,119.5C 23.3083,118.563 23.475,117.897 24.5,117.5 Z"/></g>
<g><path style="opacity:0.098" fill="#3e3b62" d="M 151.5,111.5 C 152.376,111.369 153.043,111.702 153.5,112.5C 159.302,121.595 157.302,123.929 147.5,119.5C 145.971,119.529 144.804,120.196 144,121.5C 139.907,121.752 136.073,121.418 132.5,120.5C 134.042,119.837 135.709,119.17 137.5,118.5C 136.019,117.056 136.352,116.389 138.5,116.5C 138.842,117.338 139.508,117.672 140.5,117.5C 140.47,118.497 140.97,119.164 142,119.5C 144.978,118.089 148.145,117.089 151.5,116.5C 152.535,114.872 152.535,113.205 151.5,111.5 Z"/></g>
<g><path style="opacity:0.629" fill="#555364" d="M 44.5,118.5 C 45.1667,118.5 45.5,118.833 45.5,119.5C 45.4607,121.224 45.794,121.557 46.5,120.5C 50.3597,120.231 54.0263,120.231 57.5,120.5C 57.5,121.167 57.8333,121.5 58.5,121.5C 58.0919,122.643 57.4252,123.643 56.5,124.5C 54.3569,123.246 52.3569,123.246 50.5,124.5C 50.1667,124.5 49.8333,124.5 49.5,124.5C 49.1667,124.5 48.8333,124.5 48.5,124.5C 47.209,124.263 46.209,124.596 45.5,125.5C 47.5597,127.154 50.0597,128.154 53,128.5C 54.0386,127.756 54.5386,126.756 54.5,125.5C 55.7794,127.123 57.1128,128.79 58.5,130.5C 59.5272,129.209 60.5272,129.209 61.5,130.5C 61.8333,131.833 62.1667,131.833 62.5,130.5C 63.3382,130.842 63.6716,131.508 63.5,132.5C 60.309,131.319 57.4757,131.319 55,132.5C 53.3333,131.833 51.6667,131.167 50,130.5C 49.0471,132.373 47.8804,132.706 46.5,131.5C 44.8984,129.926 42.8984,129.259 40.5,129.5C 40.5,128.833 40.1667,128.5 39.5,128.5C 38.3478,127.375 37.3478,127.375 36.5,128.5C 36.1667,128.5 35.8333,128.5 35.5,128.5C 35.5,127.833 35.5,127.167 35.5,126.5C 38.1667,126.167 38.1667,125.833 35.5,125.5C 34.853,123.859 33.853,122.526 32.5,121.5C 35.5453,121.296 38.3787,121.296 41,121.5C 42.7286,121.026 43.8953,120.026 44.5,118.5 Z M 42.5,124.5 C 44.337,124.639 44.6704,125.306 43.5,126.5C 42.7025,126.043 42.3691,125.376 42.5,124.5 Z"/></g>
<g><path style="opacity:0.008" fill="#7e007f" d="M 23.5,124.5 C 24.8333,125.167 24.8333,125.167 23.5,124.5 Z"/></g>
<g><path style="opacity:0.008" fill="#7e7f7e" d="M 146.5,125.5 C 147.833,126.167 147.833,126.167 146.5,125.5 Z"/></g>
<g><path style="opacity:0.496" fill="#484259" d="M 94.5,124.5 C 98.2302,125.607 102.064,126.273 106,126.5C 108.491,126.292 110.825,125.625 113,124.5C 115.315,125.527 117.648,126.527 120,127.5C 124.238,127.129 128.238,126.129 132,124.5C 132.741,125.641 133.575,125.641 134.5,124.5C 135.541,126.991 136.374,126.991 137,124.5C 137.333,125.167 137.667,125.833 138,126.5C 140.83,126.435 143.663,126.435 146.5,126.5C 145.545,128.746 144.878,131.079 144.5,133.5C 141.288,135.263 138.788,134.596 137,131.5C 132.471,132.237 128.138,132.57 124,132.5C 122.518,130.219 120.851,130.219 119,132.5C 117.184,130.559 115.184,129.892 113,130.5C 112.147,132.125 111.147,132.458 110,131.5C 106.856,134.466 104.189,134.133 102,130.5C 100.691,132.891 99.6914,132.891 99,130.5C 98.3109,131.357 97.4776,132.023 96.5,132.5C 94.556,131.811 92.556,131.311 90.5,131C 91.1712,130.014 91.1712,128.847 90.5,127.5C 92.4044,127.262 93.7377,126.262 94.5,124.5 Z M 97.5,128.5 C 98.0768,127.227 98.7435,127.227 99.5,128.5C 99.0302,129.463 98.3635,129.463 97.5,128.5 Z"/></g>
<g><path style="opacity:0.616" fill="#5a5666" d="M 63.5,120.5 C 64.1667,121.833 64.8333,121.833 65.5,120.5C 68.3932,121.04 71.0599,121.373 73.5,121.5C 74.1667,121.5 74.5,121.167 74.5,120.5C 76.0418,121.301 77.7085,121.634 79.5,121.5C 82.8803,121.231 86.547,120.898 90.5,120.5C 90.5,120.833 90.5,121.167 90.5,121.5C 91.209,122.404 92.209,122.737 93.5,122.5C 92.7375,123.268 91.7375,123.768 90.5,124C 91.564,125.511 92.8974,125.677 94.5,124.5C 93.7377,126.262 92.4044,127.262 90.5,127.5C 90.6068,125.621 90.1068,125.288 89,126.5C 88.5078,127.549 88.6744,128.549 89.5,129.5C 89.1924,130.308 88.6924,130.975 88,131.5C 86.1843,131.649 84.351,131.649 82.5,131.5C 82.1667,130.167 81.8333,130.167 81.5,131.5C 77.4759,132.505 73.4759,132.172 69.5,130.5C 68.2519,131.04 67.0852,131.707 66,132.5C 65.6667,131.833 65.3333,131.167 65,130.5C 64.7216,131.416 64.2216,132.082 63.5,132.5C 63.6716,131.508 63.3382,130.842 62.5,130.5C 62.1667,130.5 61.8333,130.5 61.5,130.5C 60.5272,129.209 59.5272,129.209 58.5,130.5C 57.1128,128.79 55.7794,127.123 54.5,125.5C 54.5386,126.756 54.0386,127.756 53,128.5C 50.0597,128.154 47.5597,127.154 45.5,125.5C 47.1959,127.129 48.1959,126.796 48.5,124.5C 48.8333,124.5 49.1667,124.5 49.5,124.5C 50.2376,126.76 51.2376,126.927 52.5,125C 51.9056,124.536 51.2389,124.369 50.5,124.5C 52.3569,123.246 54.3569,123.246 56.5,124.5C 57.4252,123.643 58.0919,122.643 58.5,121.5C 60.2915,121.634 61.9582,121.301 63.5,120.5 Z M 75.5,125.5 C 78.9758,124.357 82.6425,124.19 86.5,125C 85.0692,125.465 83.9025,126.299 83,127.5C 82.6924,126.692 82.1924,126.025 81.5,125.5C 79.62,125.93 77.62,125.93 75.5,125.5 Z M 59.5,125.5 C 64.2646,124.663 69.2646,124.663 74.5,125.5C 73.7261,126.711 72.8928,126.711 72,125.5C 71.4169,127.002 70.5836,128.335 69.5,129.5C 68.2888,128.726 68.2888,127.893 69.5,127C 66.1204,126.661 62.7871,126.161 59.5,125.5 Z M 49.5,124.5 C 49.8333,124.5 50.1667,124.5 50.5,124.5C 51.2389,124.369 51.9056,124.536 52.5,125C 51.2376,126.927 50.2376,126.76 49.5,124.5 Z"/></g>
<g><path style="opacity:0.118" fill="#3d3a4c" d="M 150.5,124.5 C 154.544,124.844 158.544,125.51 162.5,126.5C 172.224,125.79 181.391,125.457 190,125.5C 191.525,129.721 189.858,132.388 185,133.5C 183.779,132.728 182.779,131.728 182,130.5C 179.197,131.357 176.197,131.357 173,130.5C 171.333,131.833 169.667,133.167 168,134.5C 167.585,132.709 166.585,131.376 165,130.5C 160.345,131.047 155.178,131.547 149.5,132C 148.083,129.257 148.416,126.757 150.5,124.5 Z M 152.5,127.5 C 153.077,126.227 153.743,126.227 154.5,127.5C 154.03,128.463 153.363,128.463 152.5,127.5 Z"/></g>
<g><path style="opacity:0.239" fill="#363342" d="M 29.5,127.5 C 30.9179,129.308 32.9179,129.975 35.5,129.5C 36.1667,129.5 36.5,129.167 36.5,128.5C 37.3478,127.375 38.3478,127.375 39.5,128.5C 40.1667,128.5 40.5,128.833 40.5,129.5C 42.8984,129.259 44.8984,129.926 46.5,131.5C 44.62,131.93 42.62,131.93 40.5,131.5C 35.5603,131.096 30.5603,131.096 25.5,131.5C 25.1667,130.167 24.8333,130.167 24.5,131.5C 21.9869,131.026 19.4869,130.693 17,130.5C 13.9208,133.425 11.4208,133.092 9.5,129.5C 9.97665,128.069 10.6433,126.736 11.5,125.5C 16.7114,126.711 21.8781,126.711 27,125.5C 27.7083,126.381 28.5416,127.047 29.5,127.5 Z"/></g>
<g><path style="opacity:0.004" fill="#000000" d="M 146.5,129.5 C 147.833,130.167 147.833,130.167 146.5,129.5 Z"/></g>
<g><path style="opacity:0.008" fill="#000000" d="M 24.5,131.5 C 24.8333,131.5 25.1667,131.5 25.5,131.5C 25.3147,132.17 24.9813,132.17 24.5,131.5 Z"/></g>
<g><path style="opacity:0.043" fill="#2d2e46" d="M 40.5,131.5 C 39.8333,132.167 39.8333,132.167 40.5,131.5 Z"/></g>
<g><path style="opacity:0.024" fill="#292a29" d="M 81.5,131.5 C 81.8333,131.5 82.1667,131.5 82.5,131.5C 82.3147,132.17 81.9813,132.17 81.5,131.5 Z"/></g>
</svg>
