<?xml version="1.0" encoding="UTF-8"?>
<!DOCTYPE svg PUBLIC "-//W3C//DTD SVG 1.1//EN" "http://www.w3.org/Graphics/SVG/1.1/DTD/svg11.dtd">
<svg xmlns="http://www.w3.org/2000/svg" version="1.1" width="180px" height="180px" style="shape-rendering:geometricPrecision; text-rendering:geometricPrecision; image-rendering:optimizeQuality; fill-rule:evenodd; clip-rule:evenodd" xmlns:xlink="http://www.w3.org/1999/xlink">
<g><path style="opacity:0.973" fill="#7d89ab" d="M 7.5,53.5 C 9.16667,53.5 10.8333,53.5 12.5,53.5C 10.025,55.0057 7.35836,56.3391 4.5,57.5C 3.20108,56.91 2.36775,55.91 2,54.5C 1.87838,56.437 1.04504,57.7703 -0.5,58.5C -0.5,55.5 -0.5,52.5 -0.5,49.5C 3.41095,47.7317 5.07761,49.065 4.5,53.5C 5.5,53.5 6.5,53.5 7.5,53.5 Z"/></g>
<g><path style="opacity:0.125" fill="#3e4874" d="M 49.5,65.5 C 48.0646,66.0965 46.398,66.0965 44.5,65.5C 43.5,65.5 42.5,65.5 41.5,65.5C 41.6657,61.1539 41.499,56.8206 41,52.5C 40.6174,51.944 40.1174,51.6107 39.5,51.5C 39.8338,48.7252 41.1671,48.0585 43.5,49.5C 44.0248,52.7783 44.1915,56.1116 44,59.5C 45.331,61.9962 47.1644,63.9962 49.5,65.5 Z"/></g>
<g><path style="opacity:1" fill="#464b6b" d="M 12.5,53.5 C 17.578,54.5389 22.578,55.8722 27.5,57.5C 27.3505,56.448 27.5172,55.448 28,54.5C 28.2734,56.1012 28.7734,57.6012 29.5,59C 32.1739,59.6701 34.5073,60.8368 36.5,62.5C 33.5,61.8333 30.5,61.1667 27.5,60.5C 23.5679,58.0435 19.2346,56.3768 14.5,55.5C 10.101,56.5339 6.10105,58.3672 2.5,61C 3.25244,61.6708 3.58577,62.5041 3.5,63.5C 3.16667,63.5 2.83333,63.5 2.5,63.5C 1.77765,62.4489 0.777652,61.7822 -0.5,61.5C -0.5,60.5 -0.5,59.5 -0.5,58.5C 1.04504,57.7703 1.87838,56.437 2,54.5C 2.36775,55.91 3.20108,56.91 4.5,57.5C 7.35836,56.3391 10.025,55.0057 12.5,53.5 Z"/></g>
<g><path style="opacity:0.243" fill="#9295c4" d="M 27.5,60.5 C 27.5,61.5 27.5,62.5 27.5,63.5C 26.391,63.4431 25.391,63.1098 24.5,62.5C 21.0554,61.8511 17.8887,60.5177 15,58.5C 11.2143,60.3103 7.38098,61.977 3.5,63.5C 3.58577,62.5041 3.25244,61.6708 2.5,61C 6.10105,58.3672 10.101,56.5339 14.5,55.5C 19.2346,56.3768 23.5679,58.0435 27.5,60.5 Z"/></g>
<g><path style="opacity:1" fill="#363b72" d="M 24.5,62.5 C 21.2319,63.8222 17.5652,64.4888 13.5,64.5C 9.65078,64.4987 5.98411,64.1654 2.5,63.5C 2.83333,63.5 3.16667,63.5 3.5,63.5C 7.38098,61.977 11.2143,60.3103 15,58.5C 17.8887,60.5177 21.0554,61.8511 24.5,62.5 Z"/></g>
<g><path style="opacity:0.937" fill="#7c7eac" d="M 27.5,60.5 C 30.5,61.1667 33.5,61.8333 36.5,62.5C 37.0431,62.56 37.3764,62.8933 37.5,63.5C 36.0878,64.8064 34.4211,65.6397 32.5,66C 31.7476,66.6708 31.4142,67.5041 31.5,68.5C 30.2584,70.6112 30.2584,72.6112 31.5,74.5C 31.5,75.1667 31.5,75.8333 31.5,76.5C 30.5,76.5 29.5,76.5 28.5,76.5C 28.815,72.6286 28.4816,68.9619 27.5,65.5C 27.5,64.8333 27.5,64.1667 27.5,63.5C 27.5,62.5 27.5,61.5 27.5,60.5 Z"/></g>
<g><path style="opacity:1" fill="#2b3170" d="M 126.5,57.5 C 125.9,58.8999 124.9,59.8999 123.5,60.5C 120.832,62.5005 117.832,64.0005 114.5,65C 114.833,65.3333 115.167,65.6667 115.5,66C 113.765,66.6514 112.098,66.4847 110.5,65.5C 107.385,66.9884 104.218,68.3218 101,69.5C 99.2785,69.3893 99.1118,68.8893 100.5,68C 99.552,67.5172 98.552,67.3505 97.5,67.5C 97.6107,66.8826 97.944,66.3826 98.5,66C 107.957,63.4579 117.29,60.6245 126.5,57.5 Z"/></g>
<g><path style="opacity:1" fill="#272979" d="M 123.5,60.5 C 126.518,60.3354 129.518,60.502 132.5,61C 133.056,61.3826 133.389,61.8826 133.5,62.5C 130.781,62.6025 128.115,62.2692 125.5,61.5C 119.357,64.1894 119.357,65.5228 125.5,65.5C 122.713,66.4767 119.713,66.81 116.5,66.5C 117.172,69.9079 116.172,72.5745 113.5,74.5C 110.833,75.5 108.167,76.5 105.5,77.5C 103.829,77.3318 102.496,76.6651 101.5,75.5C 104.565,73.8389 107.898,72.5056 111.5,71.5C 112.263,70.2807 113.263,69.2807 114.5,68.5C 114,68.1667 113.5,67.8333 113,67.5C 107.241,69.2318 101.407,70.5652 95.5,71.5C 95.3893,70.8826 95.056,70.3826 94.5,70C 95.5707,69.1482 96.5707,68.3149 97.5,67.5C 98.552,67.3505 99.552,67.5172 100.5,68C 99.1118,68.8893 99.2785,69.3893 101,69.5C 104.218,68.3218 107.385,66.9884 110.5,65.5C 112.098,66.4847 113.765,66.6514 115.5,66C 115.167,65.6667 114.833,65.3333 114.5,65C 117.832,64.0005 120.832,62.5005 123.5,60.5 Z"/></g>
<g><path style="opacity:1" fill="#262a70" d="M 126.5,57.5 C 138.348,61.0959 149.681,65.7626 160.5,71.5C 158.131,71.1489 155.797,70.9822 153.5,71C 154.756,71.4169 155.423,72.2502 155.5,73.5C 150.302,71.7252 145.302,69.7252 140.5,67.5C 137.679,66.5831 135.346,64.9164 133.5,62.5C 133.389,61.8826 133.056,61.3826 132.5,61C 129.518,60.502 126.518,60.3354 123.5,60.5C 124.9,59.8999 125.9,58.8999 126.5,57.5 Z"/></g>
<g><path style="opacity:0.18" fill="#6b769f" d="M 39.5,51.5 C 40.1174,51.6107 40.6174,51.944 41,52.5C 41.499,56.8206 41.6657,61.1539 41.5,65.5C 42.5,65.5 43.5,65.5 44.5,65.5C 45.1667,66.1667 45.8333,66.8333 46.5,67.5C 46.5,68.1667 46.8333,68.5 47.5,68.5C 48.8333,68.5 49.5,69.1667 49.5,70.5C 48.2921,69.7659 46.9587,69.4326 45.5,69.5C 44.0121,67.1546 42.0121,66.8212 39.5,68.5C 36.7775,67.9437 34.1109,67.9437 31.5,68.5C 31.4142,67.5041 31.7476,66.6708 32.5,66C 34.4211,65.6397 36.0878,64.8064 37.5,63.5C 37.3764,62.8933 37.0431,62.56 36.5,62.5C 34.5073,60.8368 32.1739,59.6701 29.5,59C 28.7734,57.6012 28.2734,56.1012 28,54.5C 27.5172,55.448 27.3505,56.448 27.5,57.5C 22.578,55.8722 17.578,54.5389 12.5,53.5C 10.8333,53.5 9.16667,53.5 7.5,53.5C 9.49053,51.9394 11.8239,50.9394 14.5,50.5C 17.8596,51.519 21.193,52.519 24.5,53.5C 24.4954,49.9997 26.1621,48.4997 29.5,49C 30.1197,51.4728 30.7864,53.9728 31.5,56.5C 33.9154,57.3052 36.2487,58.3052 38.5,59.5C 39.48,56.9135 39.8134,54.2469 39.5,51.5 Z"/></g>
<g><path style="opacity:1" fill="#2b2e72" d="M 125.5,65.5 C 129.607,66.6466 133.607,67.98 137.5,69.5C 141.077,73.2925 145.077,76.6259 149.5,79.5C 150.167,80.8333 150.833,82.1667 151.5,83.5C 150.167,83.5 148.833,83.5 147.5,83.5C 147.649,82.448 147.483,81.448 147,80.5C 144.798,79.5984 142.632,78.5984 140.5,77.5C 141.668,76.0944 141.335,74.9277 139.5,74C 135.561,71.0251 131.228,69.1917 126.5,68.5C 121.825,70.2717 118.158,72.605 115.5,75.5C 113.207,77.4221 110.541,78.7554 107.5,79.5C 104.821,79.5246 103.488,80.858 103.5,83.5C 101.167,83.5 98.8333,83.5 96.5,83.5C 97.9143,81.4017 97.2476,80.4017 94.5,80.5C 93.0813,79.5489 91.4147,79.2155 89.5,79.5C 92.4614,77.6838 95.7947,76.3505 99.5,75.5C 100.167,75.5 100.833,75.5 101.5,75.5C 102.496,76.6651 103.829,77.3318 105.5,77.5C 108.167,76.5 110.833,75.5 113.5,74.5C 116.172,72.5745 117.172,69.9079 116.5,66.5C 119.713,66.81 122.713,66.4767 125.5,65.5 Z M 126.5,68.5 C 130.641,70.0716 134.308,72.4049 137.5,75.5C 130.167,75.5 122.833,75.5 115.5,75.5C 118.158,72.605 121.825,70.2717 126.5,68.5 Z M 107.5,79.5 C 118.24,79.5056 128.906,79.5056 139.5,79.5C 141.153,79.6596 142.486,80.3263 143.5,81.5C 131.5,81.5 119.5,81.5 107.5,81.5C 106.494,81.0623 106.494,80.3957 107.5,79.5 Z"/></g>
<g><path style="opacity:1" fill="#2a2a7c" d="M 133.5,62.5 C 135.346,64.9164 137.679,66.5831 140.5,67.5C 140.179,69.0481 139.179,69.7148 137.5,69.5C 133.607,67.98 129.607,66.6466 125.5,65.5C 119.357,65.5228 119.357,64.1894 125.5,61.5C 128.115,62.2692 130.781,62.6025 133.5,62.5 Z"/></g>
<g><path style="opacity:1" fill="#2a2b82" d="M 140.5,67.5 C 145.302,69.7252 150.302,71.7252 155.5,73.5C 157.028,73.5173 157.528,74.184 157,75.5C 156.275,74.9415 155.442,74.6082 154.5,74.5C 152.944,75.5471 151.277,76.2137 149.5,76.5C 149.5,77.5 149.5,78.5 149.5,79.5C 145.077,76.6259 141.077,73.2925 137.5,69.5C 139.179,69.7148 140.179,69.0481 140.5,67.5 Z"/></g>
<g><path style="opacity:0.746" fill="#dcf1fb" d="M 89.5,69.5 C 86.4214,71.642 83.0881,72.3087 79.5,71.5C 73.5,70.8333 67.5,70.1667 61.5,69.5C 70.8258,68.3194 80.1591,68.3194 89.5,69.5 Z"/></g>
<g><path style="opacity:0.192" fill="#515b9b" d="M 44.5,65.5 C 46.398,66.0965 48.0646,66.0965 49.5,65.5C 51.487,66.1642 53.1537,67.3308 54.5,69C 56.8098,69.4966 59.1432,69.6633 61.5,69.5C 67.5,70.1667 73.5,70.8333 79.5,71.5C 72.8333,71.5 66.1667,71.5 59.5,71.5C 58.8333,71.5 58.1667,71.5 57.5,71.5C 56.1667,71.5 54.8333,71.5 53.5,71.5C 53.6747,73.6208 53.3414,75.6208 52.5,77.5C 51.1001,78.0998 50.1001,79.0998 49.5,80.5C 48.791,79.596 47.791,79.2627 46.5,79.5C 45.1275,77.6505 45.6275,76.3172 48,75.5C 50.1785,76.8398 50.6785,76.5065 49.5,74.5C 50.6857,73.0387 50.6857,71.7054 49.5,70.5C 49.5,69.1667 48.8333,68.5 47.5,68.5C 46.8333,68.5 46.5,68.1667 46.5,67.5C 45.8333,66.8333 45.1667,66.1667 44.5,65.5 Z"/></g>
<g><path style="opacity:1" fill="#2f3370" d="M 89.5,69.5 C 90.5,69.5 91.5,69.5 92.5,69.5C 92.0825,70.2216 91.4158,70.7216 90.5,71C 90.9574,71.414 91.2907,71.914 91.5,72.5C 90.2342,73.3624 88.9008,74.0291 87.5,74.5C 78.5243,73.6917 69.5243,73.3584 60.5,73.5C 59.6618,73.1583 59.3284,72.4916 59.5,71.5C 66.1667,71.5 72.8333,71.5 79.5,71.5C 83.0881,72.3087 86.4214,71.642 89.5,69.5 Z"/></g>
<g><path style="opacity:1" fill="#2b2b7f" d="M 97.5,67.5 C 96.5707,68.3149 95.5707,69.1482 94.5,70C 95.056,70.3826 95.3893,70.8826 95.5,71.5C 94.6236,71.3691 93.9569,71.7025 93.5,72.5C 95.5939,73.5176 97.5939,74.5176 99.5,75.5C 95.7947,76.3505 92.4614,77.6838 89.5,79.5C 88.5,79.8333 87.8333,80.5 87.5,81.5C 82.1667,81.5 76.8333,81.5 71.5,81.5C 72.1909,79.9778 73.3576,78.9778 75,78.5C 76.6803,79.5465 78.5136,80.2132 80.5,80.5C 83.4138,80.3666 85.7471,79.1999 87.5,77C 89.8333,76.6667 92.1667,76.3333 94.5,76C 92.3332,74.2771 89.9998,74.1104 87.5,75.5C 87.5,75.1667 87.5,74.8333 87.5,74.5C 88.9008,74.0291 90.2342,73.3624 91.5,72.5C 91.2907,71.914 90.9574,71.414 90.5,71C 91.4158,70.7216 92.0825,70.2216 92.5,69.5C 93.7804,68.0687 95.4471,67.4021 97.5,67.5 Z"/></g>
<g><path style="opacity:1" fill="#2a2988" d="M 101.5,75.5 C 100.833,75.5 100.167,75.5 99.5,75.5C 97.5939,74.5176 95.5939,73.5176 93.5,72.5C 93.9569,71.7025 94.6236,71.3691 95.5,71.5C 101.407,70.5652 107.241,69.2318 113,67.5C 113.5,67.8333 114,68.1667 114.5,68.5C 113.263,69.2807 112.263,70.2807 111.5,71.5C 107.898,72.5056 104.565,73.8389 101.5,75.5 Z"/></g>
<g><path style="opacity:0.171" fill="#4f5482" d="M 45.5,69.5 C 45.5,71.1667 45.5,72.8333 45.5,74.5C 46.8333,74.5 48.1667,74.5 49.5,74.5C 50.6785,76.5065 50.1785,76.8398 48,75.5C 45.6275,76.3172 45.1275,77.6505 46.5,79.5C 44.6381,81.4748 42.6381,81.8081 40.5,80.5C 40.7373,79.209 40.404,78.209 39.5,77.5C 37.0521,76.5269 34.3854,76.1936 31.5,76.5C 31.5,75.8333 31.5,75.1667 31.5,74.5C 34.1667,74.5 36.8333,74.5 39.5,74.5C 39.5,72.5 39.5,70.5 39.5,68.5C 42.0121,66.8212 44.0121,67.1546 45.5,69.5 Z"/></g>
<g><path style="opacity:1" fill="#252782" d="M 160.5,71.5 C 164.746,72.7451 167.746,75.4118 169.5,79.5C 169.5,80.1667 169.5,80.8333 169.5,81.5C 167.31,80.1978 165.31,78.5311 163.5,76.5C 163.968,78.1132 163.301,79.6132 161.5,81C 158.964,81.3392 156.464,81.8392 154,82.5C 152.877,80.9003 151.377,79.9003 149.5,79.5C 149.5,78.5 149.5,77.5 149.5,76.5C 151.277,76.2137 152.944,75.5471 154.5,74.5C 155.442,74.6082 156.275,74.9415 157,75.5C 157.528,74.184 157.028,73.5173 155.5,73.5C 155.423,72.2502 154.756,71.4169 153.5,71C 155.797,70.9822 158.131,71.1489 160.5,71.5 Z"/></g>
<g><path style="opacity:0.255" fill="#7a82b9" d="M -0.5,61.5 C 0.777652,61.7822 1.77765,62.4489 2.5,63.5C 5.98411,64.1654 9.65078,64.4987 13.5,64.5C 17.5652,64.4888 21.2319,63.8222 24.5,62.5C 25.391,63.1098 26.391,63.4431 27.5,63.5C 27.5,64.1667 27.5,64.8333 27.5,65.5C 24.8127,65.3359 22.146,65.5026 19.5,66C 20.056,66.3826 20.3893,66.8826 20.5,67.5C 20.7678,69.099 20.4345,70.4324 19.5,71.5C 16.1667,71.5 12.8333,71.5 9.5,71.5C 9.26057,69.5328 9.59391,67.6995 10.5,66C 8.5273,65.5045 6.5273,65.3379 4.5,65.5C 3.44802,65.3505 2.44802,65.5172 1.5,66C 2.80017,69.8325 2.80017,73.6658 1.5,77.5C 0.208905,78.5417 0.208905,79.7083 1.5,81C 0.905578,81.4643 0.238911,81.631 -0.5,81.5C -0.5,74.8333 -0.5,68.1667 -0.5,61.5 Z"/></g>
<g><path style="opacity:1" fill="#292b7d" d="M 60.5,73.5 C 69.5243,73.3584 78.5243,73.6917 87.5,74.5C 87.5,74.8333 87.5,75.1667 87.5,75.5C 85.095,75.8664 82.7617,76.5331 80.5,77.5C 74.8431,76.7131 69.1764,76.0465 63.5,75.5C 63.9153,77.7468 64.5819,79.9135 65.5,82C 65.472,83.0698 65.1386,83.9032 64.5,84.5C 63.5041,84.4142 62.6708,84.7476 62,85.5C 61.1721,81.534 60.6721,77.534 60.5,73.5 Z"/></g>
<g><path style="opacity:1" fill="#353970" d="M 4.5,65.5 C 4.61986,67.7345 4.28652,69.9011 3.5,72C 4.02229,72.9503 4.68895,73.7836 5.5,74.5C 10.1196,75.4933 14.7863,75.8266 19.5,75.5C 26.1579,76.8363 28.8246,74.1697 27.5,67.5C 25.1667,67.5 22.8333,67.5 20.5,67.5C 20.3893,66.8826 20.056,66.3826 19.5,66C 22.146,65.5026 24.8127,65.3359 27.5,65.5C 28.4816,68.9619 28.815,72.6286 28.5,76.5C 29.5,76.5 30.5,76.5 31.5,76.5C 34.3854,76.1936 37.0521,76.5269 39.5,77.5C 35.5,77.5 31.5,77.5 27.5,77.5C 18.8333,77.5 10.1667,77.5 1.5,77.5C 2.80017,73.6658 2.80017,69.8325 1.5,66C 2.44802,65.5172 3.44802,65.3505 4.5,65.5 Z"/></g>
<g><path style="opacity:1" fill="#32347f" d="M 4.5,65.5 C 6.5273,65.3379 8.5273,65.5045 10.5,66C 9.59391,67.6995 9.26057,69.5328 9.5,71.5C 12.8333,71.5 16.1667,71.5 19.5,71.5C 18.5946,72.7024 18.5946,74.0357 19.5,75.5C 14.7863,75.8266 10.1196,75.4933 5.5,74.5C 4.68895,73.7836 4.02229,72.9503 3.5,72C 4.28652,69.9011 4.61986,67.7345 4.5,65.5 Z"/></g>
<g><path style="opacity:1" fill="#2e3083" d="M 20.5,67.5 C 22.8333,67.5 25.1667,67.5 27.5,67.5C 28.8246,74.1697 26.1579,76.8363 19.5,75.5C 18.5946,74.0357 18.5946,72.7024 19.5,71.5C 20.4345,70.4324 20.7678,69.099 20.5,67.5 Z"/></g>
<g><path style="opacity:1" fill="#292984" d="M 71.5,81.5 C 71.1667,82.1667 70.8333,82.8333 70.5,83.5C 69.2335,85.311 67.9001,87.1443 66.5,89C 66.8333,89.3333 67.1667,89.6667 67.5,90C 66.552,90.4828 65.552,90.6495 64.5,90.5C 64.7373,89.209 64.404,88.209 63.5,87.5C 64.1098,86.609 64.4431,85.609 64.5,84.5C 65.1386,83.9032 65.472,83.0698 65.5,82C 64.5819,79.9135 63.9153,77.7468 63.5,75.5C 69.1764,76.0465 74.8431,76.7131 80.5,77.5C 82.7617,76.5331 85.095,75.8664 87.5,75.5C 89.9998,74.1104 92.3332,74.2771 94.5,76C 92.1667,76.3333 89.8333,76.6667 87.5,77C 85.7471,79.1999 83.4138,80.3666 80.5,80.5C 78.5136,80.2132 76.6803,79.5465 75,78.5C 73.3576,78.9778 72.1909,79.9778 71.5,81.5 Z"/></g>
<g><path style="opacity:1" fill="#2e375d" d="M 115.5,75.5 C 122.833,75.5 130.167,75.5 137.5,75.5C 136.209,77.5902 136.876,78.9236 139.5,79.5C 128.906,79.5056 118.24,79.5056 107.5,79.5C 110.541,78.7554 113.207,77.4221 115.5,75.5 Z"/></g>
<g><path style="opacity:0.231" fill="#9696c9" d="M 1.5,77.5 C 10.1667,77.5 18.8333,77.5 27.5,77.5C 27.4802,79.143 28.1468,80.4763 29.5,81.5C 19.5222,82.4985 9.52216,82.8319 -0.5,82.5C -0.5,82.1667 -0.5,81.8333 -0.5,81.5C 0.238911,81.631 0.905578,81.4643 1.5,81C 0.208905,79.7083 0.208905,78.5417 1.5,77.5 Z"/></g>
<g><path style="opacity:1" fill="#2a2a80" d="M 57.5,71.5 C 58.1667,71.5 58.8333,71.5 59.5,71.5C 59.3284,72.4916 59.6618,73.1583 60.5,73.5C 60.6721,77.534 61.1721,81.534 62,85.5C 62.6708,84.7476 63.5041,84.4142 64.5,84.5C 64.4431,85.609 64.1098,86.609 63.5,87.5C 63.189,88.4778 62.5223,89.1445 61.5,89.5C 60.1861,88.6872 59.0195,87.6872 58,86.5C 57.6749,82.3579 58.1749,78.3579 59.5,74.5C 58.5,74.5 57.5,74.5 56.5,74.5C 56.7373,75.791 56.404,76.791 55.5,77.5C 55.6138,75.2821 56.2804,73.2821 57.5,71.5 Z"/></g>
<g><path style="opacity:0.755" fill="#746fac" d="M 27.5,77.5 C 31.5,77.5 35.5,77.5 39.5,77.5C 40.404,78.209 40.7373,79.209 40.5,80.5C 37.1702,79.3342 33.8369,79.3342 30.5,80.5C 31.3128,81.8139 32.3128,82.9805 33.5,84C 38.8178,84.022 44.1511,83.8553 49.5,83.5C 49.5,82.5 49.5,81.5 49.5,80.5C 50.1001,79.0998 51.1001,78.0998 52.5,77.5C 52.8064,80.3854 52.4731,83.0521 51.5,85.5C 34.2644,83.9918 16.9311,83.3251 -0.5,83.5C -0.5,83.1667 -0.5,82.8333 -0.5,82.5C 9.52216,82.8319 19.5222,82.4985 29.5,81.5C 28.1468,80.4763 27.4802,79.143 27.5,77.5 Z M 40.5,80.5 C 42.6381,81.8081 44.6381,81.4748 46.5,79.5C 47.791,79.2627 48.791,79.596 49.5,80.5C 49.5,81.5 49.5,82.5 49.5,83.5C 44.1511,83.8553 38.8178,84.022 33.5,84C 32.3128,82.9805 31.3128,81.8139 30.5,80.5C 33.8369,79.3342 37.1702,79.3342 40.5,80.5 Z"/></g>
<g><path style="opacity:1" fill="#282a77" d="M 169.5,81.5 C 172.039,84.8224 171.039,85.9891 166.5,85C 166.833,84.6667 167.167,84.3333 167.5,84C 166.354,83.3551 165.354,82.5217 164.5,81.5C 161.539,82.1831 161.205,83.0164 163.5,84C 163.272,84.3988 162.938,84.5654 162.5,84.5C 160.833,84.5 159.167,84.5 157.5,84.5C 155.435,84.4828 153.435,84.1495 151.5,83.5C 150.833,82.1667 150.167,80.8333 149.5,79.5C 151.377,79.9003 152.877,80.9003 154,82.5C 156.464,81.8392 158.964,81.3392 161.5,81C 163.301,79.6132 163.968,78.1132 163.5,76.5C 165.31,78.5311 167.31,80.1978 169.5,81.5 Z"/></g>
<g><path style="opacity:1" fill="#43437d" d="M 89.5,79.5 C 91.4147,79.2155 93.0813,79.5489 94.5,80.5C 97.2476,80.4017 97.9143,81.4017 96.5,83.5C 94.1171,87.4583 90.7837,88.4583 86.5,86.5C 83.1145,84.7549 79.4479,84.2549 75.5,85C 71.7805,87.9038 70.7805,91.4038 72.5,95.5C 72.5,96.8333 71.8333,97.5 70.5,97.5C 70.4372,92.7971 70.7705,88.1304 71.5,83.5C 77.1136,83.927 82.4469,83.2604 87.5,81.5C 87.8333,80.5 88.5,79.8333 89.5,79.5 Z"/></g>
<g><path style="opacity:1" fill="#2c385c" d="M 107.5,81.5 C 119.5,81.5 131.5,81.5 143.5,81.5C 143.082,82.2216 142.416,82.7216 141.5,83C 136.649,83.1745 131.982,83.6745 127.5,84.5C 126.167,84.5 124.833,84.5 123.5,84.5C 119.154,84.6657 114.821,84.499 110.5,84C 109.429,83.1482 108.429,82.3149 107.5,81.5 Z"/></g>
<g><path style="opacity:1" fill="#33376b" d="M 126.5,68.5 C 131.228,69.1917 135.561,71.0251 139.5,74C 141.335,74.9277 141.668,76.0944 140.5,77.5C 142.632,78.5984 144.798,79.5984 147,80.5C 147.483,81.448 147.649,82.448 147.5,83.5C 148.833,83.5 150.167,83.5 151.5,83.5C 153.435,84.1495 155.435,84.4828 157.5,84.5C 157.585,85.9953 156.919,86.9953 155.5,87.5C 153.833,86.6667 152.167,85.8333 150.5,85C 142.841,84.5003 135.174,84.3336 127.5,84.5C 131.982,83.6745 136.649,83.1745 141.5,83C 142.416,82.7216 143.082,82.2216 143.5,81.5C 142.486,80.3263 141.153,79.6596 139.5,79.5C 136.876,78.9236 136.209,77.5902 137.5,75.5C 134.308,72.4049 130.641,70.0716 126.5,68.5 Z"/></g>
<g><path style="opacity:0.225" fill="#35395d" d="M 107.5,79.5 C 106.494,80.3957 106.494,81.0623 107.5,81.5C 108.429,82.3149 109.429,83.1482 110.5,84C 114.821,84.499 119.154,84.6657 123.5,84.5C 123.5,84.8333 123.5,85.1667 123.5,85.5C 114.494,85.3336 105.494,85.5002 96.5,86C 93.7952,88.7924 90.4618,90.1257 86.5,90C 81.9489,93.4342 77.2822,96.6009 72.5,99.5C 72.1583,98.6618 71.4916,98.3284 70.5,98.5C 70.5,98.1667 70.5,97.8333 70.5,97.5C 71.8333,97.5 72.5,96.8333 72.5,95.5C 77.7497,93.2205 82.4164,90.2205 86.5,86.5C 90.7837,88.4583 94.1171,87.4583 96.5,83.5C 98.8333,83.5 101.167,83.5 103.5,83.5C 103.488,80.858 104.821,79.5246 107.5,79.5 Z"/></g>
<g><path style="opacity:1" fill="#282b7f" d="M -0.5,85.5 C 0.221579,85.9175 0.721579,86.5842 1,87.5C 2.66667,86.8333 4.33333,86.1667 6,85.5C 6.33333,86.1667 6.66667,86.8333 7,87.5C 8.923,86.6839 10.923,86.0172 13,85.5C 17.9804,86.0928 22.8137,86.7595 27.5,87.5C 23.5,87.5 19.5,87.5 15.5,87.5C 15.5,88.8333 15.5,90.1667 15.5,91.5C 14.209,91.2627 13.209,91.596 12.5,92.5C 10.7682,90.6293 8.60156,89.296 6,88.5C 3.88509,89.5978 1.71843,89.5978 -0.5,88.5C -0.5,87.5 -0.5,86.5 -0.5,85.5 Z"/></g>
<g><path style="opacity:1" fill="#2c2d74" d="M -0.5,83.5 C 16.9311,83.3251 34.2644,83.9918 51.5,85.5C 50.0772,87.5449 48.0772,88.5449 45.5,88.5C 39.8333,89.0751 34.1667,89.2417 28.5,89C 27.944,88.6174 27.6107,88.1174 27.5,87.5C 22.8137,86.7595 17.9804,86.0928 13,85.5C 10.923,86.0172 8.923,86.6839 7,87.5C 6.66667,86.8333 6.33333,86.1667 6,85.5C 4.33333,86.1667 2.66667,86.8333 1,87.5C 0.721579,86.5842 0.221579,85.9175 -0.5,85.5C -0.5,84.8333 -0.5,84.1667 -0.5,83.5 Z"/></g>
<g><path style="opacity:0.063" fill="#3b4870" d="M 123.5,85.5 C 123.5,85.1667 123.5,84.8333 123.5,84.5C 124.833,84.5 126.167,84.5 127.5,84.5C 132.305,85.4872 137.305,85.8205 142.5,85.5C 143.604,87.3885 144.937,89.0552 146.5,90.5C 144.833,90.5 143.167,90.5 141.5,90.5C 141.082,89.7784 140.416,89.2784 139.5,89C 139.833,88.6667 140.167,88.3333 140.5,88C 137.242,87.7883 134.076,87.2883 131,86.5C 123.253,87.4817 115.42,87.815 107.5,87.5C 113.409,86.8762 118.742,86.2095 123.5,85.5 Z"/></g>
<g><path style="opacity:1" fill="#2b2984" d="M 63.5,87.5 C 64.404,88.209 64.7373,89.209 64.5,90.5C 65.552,90.6495 66.552,90.4828 67.5,90C 67.1667,89.6667 66.8333,89.3333 66.5,89C 67.9001,87.1443 69.2335,85.311 70.5,83.5C 69.8505,85.4352 69.5172,87.4352 69.5,89.5C 66.0695,90.6375 63.9028,92.9708 63,96.5C 61.3005,95.5939 59.4672,95.2606 57.5,95.5C 57.5,94.5 57.5,93.5 57.5,92.5C 57.5997,89.8915 56.9331,87.5582 55.5,85.5C 55.5,82.8333 55.5,80.1667 55.5,77.5C 56.404,76.791 56.7373,75.791 56.5,74.5C 57.5,74.5 58.5,74.5 59.5,74.5C 58.1749,78.3579 57.6749,82.3579 58,86.5C 59.0195,87.6872 60.1861,88.6872 61.5,89.5C 62.5223,89.1445 63.189,88.4778 63.5,87.5 Z"/></g>
<g><path style="opacity:1" fill="#292a80" d="M 27.5,87.5 C 27.6107,88.1174 27.944,88.6174 28.5,89C 34.1667,89.2417 39.8333,89.0751 45.5,88.5C 45.5,89.1667 45.8333,89.5 46.5,89.5C 40.726,89.771 34.726,90.4377 28.5,91.5C 25.6727,90.0678 22.6727,89.4012 19.5,89.5C 17.6996,95.2085 19.8662,98.2085 26,98.5C 29.1679,96.5452 32.3345,96.2118 35.5,97.5C 32.5794,97.1459 30.2461,98.1459 28.5,100.5C 27.2638,99.7542 25.9305,99.4208 24.5,99.5C 20.2236,99.4309 16.2236,98.4309 12.5,96.5C 13.0577,95.2101 14.0577,94.3768 15.5,94C 14.7562,92.9614 13.7562,92.4614 12.5,92.5C 13.209,91.596 14.209,91.2627 15.5,91.5C 15.5,90.1667 15.5,88.8333 15.5,87.5C 19.5,87.5 23.5,87.5 27.5,87.5 Z"/></g>
<g><path style="opacity:0.4" fill="#545785" d="M 127.5,84.5 C 135.174,84.3336 142.841,84.5003 150.5,85C 152.167,85.8333 153.833,86.6667 155.5,87.5C 156.919,86.9953 157.585,85.9953 157.5,84.5C 159.167,84.5 160.833,84.5 162.5,84.5C 163.514,85.6737 164.847,86.3404 166.5,86.5C 168.662,87.1276 170.328,88.461 171.5,90.5C 170.833,90.5 170.167,90.5 169.5,90.5C 169.167,90.5 168.833,90.5 168.5,90.5C 168.158,89.6618 167.492,89.3284 166.5,89.5C 165.175,88.0474 164.342,88.3808 164,90.5C 162.612,89.4464 161.112,89.2797 159.5,90C 158.262,90.69 158.262,91.19 159.5,91.5C 159.5,91.8333 159.5,92.1667 159.5,92.5C 159.842,93.3382 160.508,93.6716 161.5,93.5C 162.85,94.6499 162.684,95.3166 161,95.5C 157.281,94.9335 155.115,92.9335 154.5,89.5C 155.833,89.1667 155.833,88.8333 154.5,88.5C 153.85,88.8039 153.183,89.1373 152.5,89.5C 149.457,87.385 146.124,86.0517 142.5,85.5C 137.305,85.8205 132.305,85.4872 127.5,84.5 Z"/></g>
<g><path style="opacity:1" fill="#2a2a85" d="M -0.5,88.5 C 1.71843,89.5978 3.88509,89.5978 6,88.5C 8.60156,89.296 10.7682,90.6293 12.5,92.5C 13.7562,92.4614 14.7562,92.9614 15.5,94C 14.0577,94.3768 13.0577,95.2101 12.5,96.5C 11.8501,96.8039 11.1835,97.1373 10.5,97.5C 6.80053,94.8417 3.13386,94.8417 -0.5,97.5C -0.5,94.5 -0.5,91.5 -0.5,88.5 Z"/></g>
<g><path style="opacity:0.289" fill="#28344b" d="M 107.5,87.5 C 115.42,87.815 123.253,87.4817 131,86.5C 134.076,87.2883 137.242,87.7883 140.5,88C 140.167,88.3333 139.833,88.6667 139.5,89C 140.416,89.2784 141.082,89.7784 141.5,90.5C 127.817,90.1131 114.15,89.4465 100.5,88.5C 100.719,89.675 100.386,90.675 99.5,91.5C 94.9016,93.5189 90.2349,95.3522 85.5,97C 82.5095,98.9652 79.8428,101.132 77.5,103.5C 77.1667,103.5 76.8333,103.5 76.5,103.5C 76.5,102.833 76.1667,102.5 75.5,102.5C 74.5084,102.672 73.8417,102.338 73.5,101.5C 80.3955,97.2201 87.7288,93.7201 95.5,91C 96.0611,89.324 97.0611,87.9906 98.5,87C 101.447,87.1519 104.447,87.3185 107.5,87.5 Z"/></g>
<g><path style="opacity:1" fill="#2a2987" d="M 46.5,89.5 C 47.5,89.5 48.5,89.5 49.5,89.5C 49.5,91.5 49.5,93.5 49.5,95.5C 46.5884,96.2366 43.755,97.2366 41,98.5C 39.175,98.0566 37.3417,97.7233 35.5,97.5C 32.3345,96.2118 29.1679,96.5452 26,98.5C 19.8662,98.2085 17.6996,95.2085 19.5,89.5C 22.6727,89.4012 25.6727,90.0678 28.5,91.5C 34.726,90.4377 40.726,89.771 46.5,89.5 Z"/></g>
<g><path style="opacity:0.976" fill="#232469" d="M 169.5,79.5 C 172.833,82.5 176.167,85.5 179.5,88.5C 179.5,91.5 179.5,94.5 179.5,97.5C 178.448,97.6495 177.448,97.4828 176.5,97C 177.293,95.9148 177.96,94.7481 178.5,93.5C 176.495,90.9281 174.495,88.2615 172.5,85.5C 170.591,86.3482 168.591,86.6816 166.5,86.5C 164.847,86.3404 163.514,85.6737 162.5,84.5C 162.938,84.5654 163.272,84.3988 163.5,84C 161.205,83.0164 161.539,82.1831 164.5,81.5C 165.354,82.5217 166.354,83.3551 167.5,84C 167.167,84.3333 166.833,84.6667 166.5,85C 171.039,85.9891 172.039,84.8224 169.5,81.5C 169.5,80.8333 169.5,80.1667 169.5,79.5 Z"/></g>
<g><path style="opacity:1" fill="#292a82" d="M 55.5,85.5 C 56.9331,87.5582 57.5997,89.8915 57.5,92.5C 55.8993,91.3572 55.2326,92.0239 55.5,94.5C 55.4371,96.4809 56.1038,98.1476 57.5,99.5C 54.8938,100.652 52.2272,100.818 49.5,100C 51.0758,96.3345 51.7425,92.1678 51.5,87.5C 53.1993,87.4729 54.5326,86.8062 55.5,85.5 Z"/></g>
<g><path style="opacity:1" fill="#2b2b79" d="M 57.5,71.5 C 56.2804,73.2821 55.6138,75.2821 55.5,77.5C 55.5,80.1667 55.5,82.8333 55.5,85.5C 54.5326,86.8062 53.1993,87.4729 51.5,87.5C 51.7425,92.1678 51.0758,96.3345 49.5,100C 52.2272,100.818 54.8938,100.652 57.5,99.5C 56.1038,98.1476 55.4371,96.4809 55.5,94.5C 55.2326,92.0239 55.8993,91.3572 57.5,92.5C 57.5,93.5 57.5,94.5 57.5,95.5C 59.4672,95.2606 61.3005,95.5939 63,96.5C 63.9028,92.9708 66.0695,90.6375 69.5,89.5C 69.8134,92.2469 69.48,94.9135 68.5,97.5C 65.0432,98.0938 62.0432,99.4272 59.5,101.5C 58.2921,102.234 56.9587,102.567 55.5,102.5C 45.8333,102.5 36.1667,102.5 26.5,102.5C 25.4489,101.778 24.7822,100.778 24.5,99.5C 25.9305,99.4208 27.2638,99.7542 28.5,100.5C 30.2461,98.1459 32.5794,97.1459 35.5,97.5C 37.3417,97.7233 39.175,98.0566 41,98.5C 43.755,97.2366 46.5884,96.2366 49.5,95.5C 49.5,93.5 49.5,91.5 49.5,89.5C 48.5,89.5 47.5,89.5 46.5,89.5C 45.8333,89.5 45.5,89.1667 45.5,88.5C 48.0772,88.5449 50.0772,87.5449 51.5,85.5C 52.4731,83.0521 52.8064,80.3854 52.5,77.5C 53.3414,75.6208 53.6747,73.6208 53.5,71.5C 54.8333,71.5 56.1667,71.5 57.5,71.5 Z"/></g>
<g><path style="opacity:0.261" fill="#33344f" d="M 142.5,85.5 C 146.124,86.0517 149.457,87.385 152.5,89.5C 153.183,89.1373 153.85,88.8039 154.5,88.5C 154.5,88.8333 154.5,89.1667 154.5,89.5C 155.115,92.9335 157.281,94.9335 161,95.5C 162.684,95.3166 162.85,94.6499 161.5,93.5C 160.508,93.6716 159.842,93.3382 159.5,92.5C 160.833,92.1667 160.833,91.8333 159.5,91.5C 158.262,91.19 158.262,90.69 159.5,90C 161.112,89.2797 162.612,89.4464 164,90.5C 164.342,88.3808 165.175,88.0474 166.5,89.5C 167.006,91.1054 167.673,91.4387 168.5,90.5C 168.833,90.5 169.167,90.5 169.5,90.5C 169.782,91.7777 170.449,92.7777 171.5,93.5C 171.179,95.0481 170.179,95.7148 168.5,95.5C 165.833,95.8333 165.833,96.1667 168.5,96.5C 169.167,96.8333 169.833,97.1667 170.5,97.5C 170.5,98.1667 170.833,98.5 171.5,98.5C 172.585,102.582 175.252,104.916 179.5,105.5C 179.5,106.167 179.5,106.833 179.5,107.5C 175.425,107.048 171.758,105.548 168.5,103C 168.833,102.667 169.167,102.333 169.5,102C 162.422,99.4376 156.089,95.7709 150.5,91C 149.207,90.51 147.873,90.3433 146.5,90.5C 144.937,89.0552 143.604,87.3885 142.5,85.5 Z"/></g>
<g><path style="opacity:1" fill="#2a2d6c" d="M 12.5,96.5 C 16.2236,98.4309 20.2236,99.4309 24.5,99.5C 24.7822,100.778 25.4489,101.778 26.5,102.5C 24.5,102.5 22.5,102.5 20.5,102.5C 19.7326,101.828 19.0659,100.995 18.5,100C 12.1754,99.5005 5.84209,99.3338 -0.5,99.5C -0.5,98.8333 -0.5,98.1667 -0.5,97.5C 3.13386,94.8417 6.80053,94.8417 10.5,97.5C 11.1835,97.1373 11.8501,96.8039 12.5,96.5 Z"/></g>
<g><path style="opacity:1" fill="#2f2f70" d="M 71.5,81.5 C 76.8333,81.5 82.1667,81.5 87.5,81.5C 82.4469,83.2604 77.1136,83.927 71.5,83.5C 70.7705,88.1304 70.4372,92.7971 70.5,97.5C 70.5,97.8333 70.5,98.1667 70.5,98.5C 67.4608,101.193 63.7941,102.193 59.5,101.5C 62.0432,99.4272 65.0432,98.0938 68.5,97.5C 69.48,94.9135 69.8134,92.2469 69.5,89.5C 69.5172,87.4352 69.8505,85.4352 70.5,83.5C 70.8333,82.8333 71.1667,82.1667 71.5,81.5 Z"/></g>
<g><path style="opacity:1" fill="#303263" d="M 179.5,97.5 C 179.5,99.5 179.5,101.5 179.5,103.5C 176.833,101.833 174.167,100.167 171.5,98.5C 170.833,98.5 170.5,98.1667 170.5,97.5C 169.833,97.1667 169.167,96.8333 168.5,96.5C 168.5,96.1667 168.5,95.8333 168.5,95.5C 170.179,95.7148 171.179,95.0481 171.5,93.5C 173.017,93.5106 174.184,94.1772 175,95.5C 175.5,95 176,94.5 176.5,94C 174.654,92.9702 172.987,91.8036 171.5,90.5C 170.328,88.461 168.662,87.1276 166.5,86.5C 168.591,86.6816 170.591,86.3482 172.5,85.5C 174.495,88.2615 176.495,90.9281 178.5,93.5C 177.96,94.7481 177.293,95.9148 176.5,97C 177.448,97.4828 178.448,97.6495 179.5,97.5 Z"/></g>
<g><path style="opacity:0.09" fill="#878bb2" d="M -0.5,100.5 C -0.5,100.167 -0.5,99.8333 -0.5,99.5C 5.84209,99.3338 12.1754,99.5005 18.5,100C 19.0659,100.995 19.7326,101.828 20.5,102.5C 22.0276,103.309 23.6943,103.976 25.5,104.5C 25.5,104.833 25.5,105.167 25.5,105.5C 24.2976,106.405 22.9643,106.405 21.5,105.5C 18.7898,105.074 16.4565,103.907 14.5,102C 10.4631,101.393 6.46308,101.56 2.5,102.5C 1.22235,102.218 0.222348,101.551 -0.5,100.5 Z"/></g>
<g><path style="opacity:0.586" fill="#9495cf" d="M 20.5,102.5 C 22.5,102.5 24.5,102.5 26.5,102.5C 36.1667,102.5 45.8333,102.5 55.5,102.5C 55.5,102.833 55.5,103.167 55.5,103.5C 51.0712,102.887 47.4046,104.22 44.5,107.5C 43.2617,107.19 43.2617,106.69 44.5,106C 43.7445,104.62 43.0778,104.453 42.5,105.5C 42.1667,105.5 41.8333,105.5 41.5,105.5C 36.2818,103.402 30.9485,103.069 25.5,104.5C 23.6943,103.976 22.0276,103.309 20.5,102.5 Z"/></g>
<g><path style="opacity:0.661" fill="#484b7c" d="M 70.5,98.5 C 71.4916,98.3284 72.1583,98.6618 72.5,99.5C 71.7375,100.268 70.7375,100.768 69.5,101C 70.7932,101.49 72.1266,101.657 73.5,101.5C 73.8417,102.338 74.5084,102.672 75.5,102.5C 76.1667,102.5 76.5,102.833 76.5,103.5C 76.8333,103.5 77.1667,103.5 77.5,103.5C 74.7131,104.477 71.7131,104.81 68.5,104.5C 68.5,105.5 68.5,106.5 68.5,107.5C 68.5,109.5 68.5,111.5 68.5,113.5C 68.1667,113.5 67.8333,113.5 67.5,113.5C 67.2978,110.393 66.9645,107.06 66.5,103.5C 65.1667,103.5 63.8333,103.5 62.5,103.5C 62.9153,105.747 63.5819,107.914 64.5,110C 64.3868,112.399 63.3868,114.232 61.5,115.5C 61.2924,113.08 61.6258,110.747 62.5,108.5C 60.7036,106.1 58.3702,104.433 55.5,103.5C 55.5,103.167 55.5,102.833 55.5,102.5C 56.9587,102.567 58.2921,102.234 59.5,101.5C 63.7941,102.193 67.4608,101.193 70.5,98.5 Z"/></g>
<g><path style="opacity:0.784" fill="#3d4168" d="M 145.5,104.5 C 145.821,105.817 146.154,107.151 146.5,108.5C 146.547,110.038 145.88,111.038 144.5,111.5C 144.682,109.409 144.348,107.409 143.5,105.5C 138.233,105.087 132.899,105.087 127.5,105.5C 127.5,107.5 127.5,109.5 127.5,111.5C 126.691,109.708 126.191,107.708 126,105.5C 124.713,108.145 122.547,109.145 119.5,108.5C 119.5,107.167 119.5,105.833 119.5,104.5C 117.5,104.5 115.5,104.5 113.5,104.5C 113.177,108.226 113.511,111.893 114.5,115.5C 115.736,116.246 117.07,116.579 118.5,116.5C 116.777,117.807 114.943,117.807 113,116.5C 112.818,113.774 112.318,111.107 111.5,108.5C 109.111,108.021 107.444,106.688 106.5,104.5C 107,104.167 107.5,103.833 108,103.5C 111.126,102.898 114.293,102.565 117.5,102.5C 120.613,102.562 123.446,103.229 126,104.5C 127.117,102.876 128.617,101.876 130.5,101.5C 135.622,102.096 140.622,103.096 145.5,104.5 Z"/></g>
<g><path style="opacity:0.02" fill="#333366" d="M 145.5,103.5 C 146.833,104.167 146.833,104.167 145.5,103.5 Z"/></g>
<g><path style="opacity:0.475" fill="#3c3e6f" d="M -0.5,100.5 C 0.222348,101.551 1.22235,102.218 2.5,102.5C 3.74095,105.296 2.74095,106.963 -0.5,107.5C -0.5,105.167 -0.5,102.833 -0.5,100.5 Z"/></g>
<g><path style="opacity:1" fill="#313361" d="M 77.5,103.5 C 81.0053,102.891 83.672,104.058 85.5,107C 84.7069,108.085 84.0402,109.252 83.5,110.5C 86.2833,113.342 85.9499,115.842 82.5,118C 77.5111,118.499 72.5111,118.666 67.5,118.5C 67.5,116.833 67.5,115.167 67.5,113.5C 67.8333,113.5 68.1667,113.5 68.5,113.5C 70.6965,115.545 73.0298,115.878 75.5,114.5C 76.1667,114.167 76.8333,113.833 77.5,113.5C 77.7869,115.121 78.7869,116.121 80.5,116.5C 81.2436,115.009 81.9103,113.509 82.5,112C 81.5769,109.959 81.2436,107.792 81.5,105.5C 76.8468,104.999 72.5135,105.666 68.5,107.5C 68.5,106.5 68.5,105.5 68.5,104.5C 71.7131,104.81 74.7131,104.477 77.5,103.5 Z"/></g>
<g><path style="opacity:1" fill="#3e466d" d="M 21.5,105.5 C 22.9643,106.405 24.2976,106.405 25.5,105.5C 27.8337,107.176 28.8337,109.509 28.5,112.5C 31.1813,112.462 33.6813,113.129 36,114.5C 37.7491,114.252 38.5824,113.252 38.5,111.5C 40.099,111.232 41.4324,111.566 42.5,112.5C 41.6778,116.152 39.3445,118.318 35.5,119C 31.5,119.667 27.5,119.667 23.5,119C 24.6956,118.346 24.6956,117.846 23.5,117.5C 22.7348,118.612 21.7348,119.279 20.5,119.5C 21.4312,114.724 21.7645,110.058 21.5,105.5 Z"/></g>
<g><path style="opacity:1" fill="#343875" d="M 144.5,111.5 C 144.047,112.458 143.381,113.292 142.5,114C 145.226,117.63 144.226,118.963 139.5,118C 138.244,117.583 137.577,116.75 137.5,115.5C 140.458,114.533 142.125,112.533 142.5,109.5C 140.833,109.5 139.167,109.5 137.5,109.5C 135.952,108.266 135.285,108.266 135.5,109.5C 135.53,110.497 135.03,111.164 134,111.5C 132.667,110.833 131.333,110.167 130,109.5C 128.989,110.056 128.156,110.722 127.5,111.5C 127.5,109.5 127.5,107.5 127.5,105.5C 132.899,105.087 138.233,105.087 143.5,105.5C 144.348,107.409 144.682,109.409 144.5,111.5 Z"/></g>
<g><path style="opacity:1" fill="#393c7e" d="M 41.5,105.5 C 41.5,105.833 41.5,106.167 41.5,106.5C 41.1667,106.5 40.8333,106.5 40.5,106.5C 36.8581,107.08 33.1914,107.58 29.5,108C 32.7305,108.861 35.7305,110.028 38.5,111.5C 38.5824,113.252 37.7491,114.252 36,114.5C 33.6813,113.129 31.1813,112.462 28.5,112.5C 28.8337,109.509 27.8337,107.176 25.5,105.5C 25.5,105.167 25.5,104.833 25.5,104.5C 30.9485,103.069 36.2818,103.402 41.5,105.5 Z"/></g>
<g><path style="opacity:0.631" fill="#616299" d="M 44.5,107.5 C 44.7845,109.877 44.7845,112.044 44.5,114C 45.7101,115.039 46.7101,116.206 47.5,117.5C 44.856,116.856 43.1894,115.189 42.5,112.5C 41.4324,111.566 40.099,111.232 38.5,111.5C 35.7305,110.028 32.7305,108.861 29.5,108C 33.1914,107.58 36.8581,107.08 40.5,106.5C 40.8333,109.167 41.1667,109.167 41.5,106.5C 42.1667,106.5 42.5,106.167 42.5,105.5C 43.0778,104.453 43.7445,104.62 44.5,106C 43.2617,106.69 43.2617,107.19 44.5,107.5 Z"/></g>
<g><path style="opacity:1" fill="#383872" d="M 55.5,103.5 C 58.3702,104.433 60.7036,106.1 62.5,108.5C 61.6258,110.747 61.2924,113.08 61.5,115.5C 60.9423,116.79 59.9423,117.623 58.5,118C 54.58,120.031 50.9134,119.865 47.5,117.5C 46.7101,116.206 45.7101,115.039 44.5,114C 44.7845,112.044 44.7845,109.877 44.5,107.5C 47.4046,104.22 51.0712,102.887 55.5,103.5 Z M 52.5,108.5 C 55.7673,108.424 57.1007,109.757 56.5,112.5C 51.0941,114.435 49.7608,113.101 52.5,108.5 Z"/></g>
<g><path style="opacity:1" fill="#37397c" d="M 77.5,113.5 C 76.6136,112.224 75.6136,112.224 74.5,113.5C 74.6236,114.107 74.9569,114.44 75.5,114.5C 73.0298,115.878 70.6965,115.545 68.5,113.5C 68.5,111.5 68.5,109.5 68.5,107.5C 72.5135,105.666 76.8468,104.999 81.5,105.5C 81.2436,107.792 81.5769,109.959 82.5,112C 81.9103,113.509 81.2436,115.009 80.5,116.5C 78.7869,116.121 77.7869,115.121 77.5,113.5 Z M 77.5,113.5 C 76.8333,113.833 76.1667,114.167 75.5,114.5C 74.9569,114.44 74.6236,114.107 74.5,113.5C 75.6136,112.224 76.6136,112.224 77.5,113.5 Z"/></g>
<g><path style="opacity:1" fill="#333578" d="M 102.5,107.5 C 103.038,109.117 103.371,110.784 103.5,112.5C 100.482,112.335 97.4816,112.502 94.5,113C 95.056,113.383 95.3893,113.883 95.5,114.5C 93.283,115.369 90.9496,115.702 88.5,115.5C 88.2161,112.223 88.5495,109.057 89.5,106C 94.0911,105.058 98.4245,105.558 102.5,107.5 Z"/></g>
<g><path style="opacity:1" fill="#32357a" d="M 135.5,109.5 C 136.167,109.5 136.833,109.5 137.5,109.5C 139.167,109.5 140.833,109.5 142.5,109.5C 142.125,112.533 140.458,114.533 137.5,115.5C 136.417,115.461 135.417,115.127 134.5,114.5C 133.614,115.325 133.281,116.325 133.5,117.5C 128.074,119.402 126.074,117.402 127.5,111.5C 128.156,110.722 128.989,110.056 130,109.5C 131.333,110.167 132.667,110.833 134,111.5C 135.03,111.164 135.53,110.497 135.5,109.5 Z"/></g>
<g><path style="opacity:0.98" fill="#323378" d="M 149.5,113.5 C 149.328,112.508 149.662,111.842 150.5,111.5C 152.306,109.911 153.639,107.911 154.5,105.5C 156.695,104.231 158.861,104.231 161,105.5C 162.709,108.418 164.542,111.252 166.5,114C 160.794,116.062 155.127,115.896 149.5,113.5 Z"/></g>
<g><path style="opacity:0.994" fill="#343467" d="M 102.5,107.5 C 98.4245,105.558 94.0911,105.058 89.5,106C 88.5495,109.057 88.2161,112.223 88.5,115.5C 90.9496,115.702 93.283,115.369 95.5,114.5C 98.1873,114.336 100.854,114.503 103.5,115C 104.833,116 104.833,117 103.5,118C 98.467,118.829 93.467,118.662 88.5,117.5C 87.5565,112.9 87.2232,108.233 87.5,103.5C 93.1764,103.334 98.8431,103.501 104.5,104C 105.354,105.785 104.687,106.951 102.5,107.5 Z"/></g>
<g><path style="opacity:0.016" fill="#353378" d="M 119.5,108.5 C 119.806,111.385 119.473,114.052 118.5,116.5C 117.07,116.579 115.736,116.246 114.5,115.5C 113.511,111.893 113.177,108.226 113.5,104.5C 115.5,104.5 117.5,104.5 119.5,104.5C 119.5,105.833 119.5,107.167 119.5,108.5 Z"/></g>
<g><path style="opacity:0.698" fill="#444673" d="M 149.5,113.5 C 155.127,115.896 160.794,116.062 166.5,114C 164.542,111.252 162.709,108.418 161,105.5C 158.861,104.231 156.695,104.231 154.5,105.5C 153.639,107.911 152.306,109.911 150.5,111.5C 150.799,101.767 155.299,99.0999 164,103.5C 164.617,104.449 164.451,105.282 163.5,106C 165.72,109.439 167.387,113.106 168.5,117C 167.271,117.781 165.938,118.281 164.5,118.5C 159.877,115.843 155.21,115.843 150.5,118.5C 148.393,117.087 148.06,115.42 149.5,113.5 Z"/></g>
<g><path style="opacity:0.349" fill="#485b6c" d="M 18.5,119.5 C 19.1667,119.5 19.8333,119.5 20.5,119.5C 23.9619,120.482 27.6286,120.815 31.5,120.5C 30.1979,122.028 28.5313,123.028 26.5,123.5C 23.8333,123.5 21.1667,123.5 18.5,123.5C 18.0825,122.778 17.4158,122.278 16.5,122C 17.3805,121.292 18.0472,120.458 18.5,119.5 Z"/></g>
<g><path style="opacity:0.02" fill="#060606" d="M 83.5,121.5 C 83.8966,120.475 84.5632,120.308 85.5,121C 84.9056,121.464 84.2389,121.631 83.5,121.5 Z"/></g>
<g><path style="opacity:0.486" fill="#0d192f" d="M -0.5,118.5 C 1.84294,119.151 4.17627,119.818 6.5,120.5C 10.476,119.836 14.476,119.503 18.5,119.5C 18.0472,120.458 17.3805,121.292 16.5,122C 17.4158,122.278 18.0825,122.778 18.5,123.5C 11.8857,123.192 5.55234,122.859 -0.5,122.5C -0.5,121.167 -0.5,119.833 -0.5,118.5 Z"/></g>
<g><path style="opacity:0.388" fill="#0f1835" d="M 31.5,120.5 C 47.1997,120.159 62.8664,120.659 78.5,122C 61.1815,123.048 43.8482,123.548 26.5,123.5C 28.5313,123.028 30.1979,122.028 31.5,120.5 Z"/></g>
</svg>
