<?xml version="1.0" encoding="UTF-8"?>
<!DOCTYPE svg PUBLIC "-//W3C//DTD SVG 1.1//EN" "http://www.w3.org/Graphics/SVG/1.1/DTD/svg11.dtd">
<svg xmlns="http://www.w3.org/2000/svg" version="1.1" width="48px" height="48px" style="shape-rendering:geometricPrecision; text-rendering:geometricPrecision; image-rendering:optimizeQuality; fill-rule:evenodd; clip-rule:evenodd" xmlns:xlink="http://www.w3.org/1999/xlink">
<g><path style="opacity:0.918" fill="#434241" d="M 33.5,16.5 C 33.44,17.0431 33.1067,17.3764 32.5,17.5C 32.3697,13.6109 30.5364,10.9442 27,9.5C 23.5,10.6667 20,11.8333 16.5,13C 15.9103,14.5095 15.2436,16.0095 14.5,17.5C 13.8933,17.3764 13.56,17.0431 13.5,16.5C 13.0405,6.28339 17.7071,2.28339 27.5,4.5C 32.9622,6.6419 34.9622,10.6419 33.5,16.5 Z"/></g>
<g><path style="opacity:0.973" fill="#f6c226" d="M 33.5,16.5 C 34.1239,16.9169 34.4573,17.5836 34.5,18.5C 32.4568,22.5863 30.4568,26.5863 28.5,30.5C 25.1475,31.7074 21.8142,31.7074 18.5,30.5C 16.5432,26.5863 14.5432,22.5863 12.5,18.5C 12.5427,17.5836 12.8761,16.9169 13.5,16.5C 13.56,17.0431 13.8933,17.3764 14.5,17.5C 15.2436,16.0095 15.9103,14.5095 16.5,13C 20,11.8333 23.5,10.6667 27,9.5C 30.5364,10.9442 32.3697,13.6109 32.5,17.5C 33.1067,17.3764 33.44,17.0431 33.5,16.5 Z"/></g>
<g><path style="opacity:0.974" fill="#4151b4" d="M 18.5,30.5 C 19.6553,33.3283 20.9886,35.9949 22.5,38.5C 23.1667,41.1667 23.8333,41.1667 24.5,38.5C 26.0114,35.9949 27.3447,33.3283 28.5,30.5C 36.1584,31.4943 39.825,35.8277 39.5,43.5C 28.8333,43.5 18.1667,43.5 7.5,43.5C 7.17208,35.8254 10.8387,31.4921 18.5,30.5 Z"/></g>
<g><path style="opacity:0.999" fill="#f3d8d4" d="M 18.5,30.5 C 21.8142,31.7074 25.1475,31.7074 28.5,30.5C 27.3447,33.3283 26.0114,35.9949 24.5,38.5C 23.8333,30.5 23.1667,30.5 22.5,38.5C 20.9886,35.9949 19.6553,33.3283 18.5,30.5 Z"/></g>
<g><path style="opacity:1" fill="#d22f2f" d="M 24.5,38.5 C 23.8333,41.1667 23.1667,41.1667 22.5,38.5C 23.1667,30.5 23.8333,30.5 24.5,38.5 Z"/></g>
</svg>
