<?xml version="1.0" encoding="UTF-8"?>
<!DOCTYPE svg PUBLIC "-//W3C//DTD SVG 1.1//EN" "http://www.w3.org/Graphics/SVG/1.1/DTD/svg11.dtd">
<svg xmlns="http://www.w3.org/2000/svg" version="1.1" width="48px" height="48px" style="shape-rendering:geometricPrecision; text-rendering:geometricPrecision; image-rendering:optimizeQuality; fill-rule:evenodd; clip-rule:evenodd" xmlns:xlink="http://www.w3.org/1999/xlink">
<g><path style="opacity:0.876" fill="#8354fd" d="M 15.5,9.5 C 15.6137,13.6615 17.2804,17.1615 20.5,20C 23.8173,20.9772 26.484,20.1438 28.5,17.5C 30.9675,15.1585 31.1342,12.4918 29,9.5C 25.9588,6.45848 22.4588,5.79181 18.5,7.5C 18.1667,7.5 17.8333,7.5 17.5,7.5C 17.33,6.17793 17.6634,5.01127 18.5,4C 27.4018,1.44349 32.4018,4.61016 33.5,13.5C 32.4018,22.3898 27.4018,25.5565 18.5,23C 13.262,19.222 12.262,14.722 15.5,9.5 Z"/></g>
<g><path style="opacity:1" fill="#b4b0fe" d="M 28.5,17.5 C 24.8333,14.5 21.5,11.1667 18.5,7.5C 22.4588,5.79181 25.9588,6.45848 29,9.5C 31.1342,12.4918 30.9675,15.1585 28.5,17.5 Z"/></g>
<g><path style="opacity:1" fill="#eae8ff" d="M 17.5,7.5 C 17.8333,7.5 18.1667,7.5 18.5,7.5C 21.5,11.1667 24.8333,14.5 28.5,17.5C 26.484,20.1438 23.8173,20.9772 20.5,20C 17.2804,17.1615 15.6137,13.6615 15.5,9.5C 15.8333,8.5 16.5,7.83333 17.5,7.5 Z"/></g>
<g><path style="opacity:0.924" fill="#8554fd" d="M 13.5,28.5 C 9.54697,31.604 9.54697,34.7707 13.5,38C 15.6504,39.4114 17.9837,40.2447 20.5,40.5C 20.8333,37.1667 21.1667,33.8333 21.5,30.5C 19.2188,30.9227 17.5521,30.256 16.5,28.5C 23.6549,27.3448 30.9882,27.1782 38.5,28C 39.6168,31.0731 39.7835,34.2397 39,37.5C 37.8904,39.0368 36.3904,39.7035 34.5,39.5C 35.9205,36.7387 36.5871,33.7387 36.5,30.5C 32.8333,30.5 29.1667,30.5 25.5,30.5C 25.1984,33.0593 25.5318,35.3926 26.5,37.5C 27.1834,39.1765 28.5168,39.8432 30.5,39.5C 31.609,39.5569 32.609,39.8902 33.5,40.5C 33.4226,41.7498 32.756,42.5831 31.5,43C 26.1667,43.6667 20.8333,43.6667 15.5,43C 8.17126,40.6698 5.67126,35.8365 8,28.5C 9.94349,27.193 11.7768,27.193 13.5,28.5 Z"/></g>
<g><path style="opacity:1" fill="#ebe8ff" d="M 13.5,28.5 C 14.5,28.5 15.5,28.5 16.5,28.5C 17.5521,30.256 19.2188,30.9227 21.5,30.5C 21.1667,33.8333 20.8333,37.1667 20.5,40.5C 17.9837,40.2447 15.6504,39.4114 13.5,38C 9.54697,34.7707 9.54697,31.604 13.5,28.5 Z"/></g>
<g><path style="opacity:1" fill="#aeaafe" d="M 34.5,39.5 C 34.5,40.1667 34.1667,40.5 33.5,40.5C 32.609,39.8902 31.609,39.5569 30.5,39.5C 31.078,37.3091 30.078,35.6424 27.5,34.5C 26.6143,35.325 26.281,36.325 26.5,37.5C 25.5318,35.3926 25.1984,33.0593 25.5,30.5C 29.1667,30.5 32.8333,30.5 36.5,30.5C 36.5871,33.7387 35.9205,36.7387 34.5,39.5 Z"/></g>
<g><path style="opacity:1" fill="#d3d2ff" d="M 30.5,39.5 C 28.5168,39.8432 27.1834,39.1765 26.5,37.5C 26.281,36.325 26.6143,35.325 27.5,34.5C 30.078,35.6424 31.078,37.3091 30.5,39.5 Z"/></g>
</svg>
